<mxfile host="app.diagrams.net" modified="2021-02-01T14:14:12.744Z" agent="5.0 (X11; Linux x86_64) AppleWebKit/537.36 (KHTML, like Gecko) Chrome/88.0.4324.96 Safari/537.36" etag="zhRdK6ALqn07cygSyXaD" version="14.2.9" type="github">
  <diagram id="xbnxi7u_yc3S8dmFcwFy" name="Page-1">
    <mxGraphModel dx="1050" dy="1137" grid="1" gridSize="10" guides="1" tooltips="1" connect="1" arrows="1" fold="1" page="1" pageScale="1" pageWidth="1169" pageHeight="827" math="0" shadow="0">
      <root>
        <mxCell id="0" />
        <mxCell id="1" parent="0" />
        <mxCell id="tFHFQbnFNSWmSSy7VT7S-6" value="" style="group" parent="1" vertex="1" connectable="0">
          <mxGeometry x="70" y="540" width="172" height="172" as="geometry" />
        </mxCell>
        <mxCell id="tFHFQbnFNSWmSSy7VT7S-1" value="" style="shape=image;verticalLabelPosition=bottom;labelBackgroundColor=#ffffff;verticalAlign=top;aspect=fixed;imageAspect=0;image=data:image/png,iVBORw0KGgoAAAANSUhEUgAAAgAAAAIACAYAAAD0eNT6AAAACXBIWXMAAB34AAAd+AHdNitIAAAeiklEQVR4nO3dC7z+1Zwv8FWpdFMUIqkkRSFdjCKlhhFDklwGGfdGwzB0cRlyOe4Sx9CQoYlQrjnnMDMiDHKakJAzGol0UyqVLrqc77Keze7v/997P8+zfs9vP896v1+vz0z+/73Xb/nrv3+f53dZ6zZpeVgtsm1k+8h2g3/eJnL7yAaDrD/4OgBYzm6IXBe5PHJp5OeRn0V+FPn+INf1Nbk5t+nx2JtHHhHZJ7J35M49zgUAallrkNtFtojsvMLv54JwRuTLkS9ETovcNMkJZpMuAPlT/AGRZ0QeNuFjA8BykMvBboO8MnJx5JOR4yL/GbllEpOYVAHYMnJY5KDIehM6JgBMg3wF/JBBzoy8O/LRyPVdHrTrAnDPyCsiT5/AsQBg2t0/8sHI/4i8JXJM6uh5ga5OyvmhvSMjfxdZo6NjAMCs2jTyzsjLIkdETojcXPMAtQtAfko/3+M/OrJZ5bEBoDX5XHp85G8iz03lTYIqahaADSPHRp5QcUwAIKXdI9+LvCby1lThrYFaBSC/4nBi5B6VxgMAbm3NyBsjj4w8JXLBOIPVKAD5ksR7UnmtAQDo1kMj34kcGPn6qIOMUwDy/f7XDAIATE5+dfBLkWem8oDg0EYtAPnJ/vyp/+ARvx8AGE++8p7XC7hTKg/fD2WUArB6KqsVPXWE7wUA6sqvC66byvMBSzZsAciX/Y9OTv4AsJzkhYOuTaUMLMmwBeBVkRcO+T0AQPeOilySym2BRQ1TAPJyvq8bZUYAwET8c+S8yH8s9oVLLQA7RP5pnBkBAJ3LDwaeFNkpcuFCX7iUApDX9c/bFK4z/ryW5PxU9kg+K/LDwX++apCJ75cMAEPID8rnk/DtI3eNbJPKBj95Jb/7TWgOeR+Bj0X2SQucN5dSAN4X2bbSpFblosgHUmktP0gT2gsZADqSz2tnR06Z92t3iewXeVrkwR0ff8/IYZE3reoLFisAj0rdPvF/TioLCeUT/+86PA4A9C1fkj9mkHw14NDIX6Vy1aALr418Lq1iA6GFCsB6kfd2MaNwdeQVqfwhOPED0Jrvp/Jwff6EfnTk4R0cI+8dkK+u75FWspXwQgUgN4ctOpjQ1yJ/HTm3g7EBYJrkT+d/kcptgbzC7u0qj5+fPchXGT6y4m+sqgDcM/LiypPIjo68LHmYDwDm5Ofejk/l1b1PRR5Qefw3D8a9dv4vrqoA/EMq6/3XdEjq7pYCAEy7fGU8X67Pm/s8tuK4m0WeF3nX/F9cWQHIT/w/reKBs+dH3l95TACYNddEDkjlisCTK457RCrP3V0/9wsrKwCvTnWfSMxPOTr5A8DS3Bg5KJWH8R9Tacy8NkB+FuBDc7+wYgHIixY8qdLBsg9H3lFxPABoQX5D7impPBewY6UxX5TKefn3a+2sWACelerd+z8zcnCyqA8AjGLudsD3UlmVd1w7RnaO/Gf+D/MLQD7xP7fCAbIbUnm/8frFvhAAWKWfpvLJ/UOLfeES5VsLf1IAHhG5e6UDvCGVtfwBgPEcl8qH6r0rjHVg5CWRm+YXgCdUGDj7eeTtlcYCgNblW+kvTuXW+mpjjpUfBtw1ctpcAchP/T96zEHnvDKtsNgAADCWfFX9xFTnQf1907wCsEvkzhUGzYsYfLzCOADArb011SkAeZvg18wVgFrvGb4zlfcXAYC6vhM5PZVL+OPI33/buQKwx5iDZfmJ/+MrjAMArFze1GfcArBW5L65AOT7/zuPPaWUPhO5osI4AMDK5XPtuxb9qsX9vgDktf/XrzDYJyuMAQCs2i8iP45sN+Y498kFYJfx5/P7+/5fqjAOALCwb6bxC8CWuQDsUGEy+aGEKyuMAwAs7MwKY9w9F4DNKwx0eoUxAIDFnVNhjI1rFYDvVhgDAFjc+RXGqFYAarQRAGBxl1cY4/frAGxWYaAabQQAWFyNnXbXzgXgNot+2eIuqzAGALC4m2sMUuPkn91SaRwAYAJqFQAAYIooAADQIAUAABqkAABAgxQAAGiQAgAADVIAAKBBCgAANEgBAIAGKQAA0CAFAAAapAAAQIMUAABokAIAAA1SAACgQQoAADRIAQCABikAANAgBQAAGqQAAECDFAAAaJACAAANUgAAoEEKAAA0SAEAgAYpAADQIAUAABqkAABAgxQAAGiQAgAADVIAAKBBCgAANEgBAIAGKQAA0CAFAAAapAAAQIMUAABokAIAAA1SAACgQQoAADRIAQCABikAANAgBQAAGqQAAECDFAAAaJACAAANUgAAoEEKAAA0SAEAgAYpAADQIAUAABqkAABAgxQAAGhQrQKwWqVxAIAJcAUAABqkAABAgxQAAGiQAgAADVIAAKBBCgAANEgBAIAGKQAA0CAFAAAapAAAQIMUAABokAIAAA1SAACgQQoAADRIAQCABikAANAgBQAAGqQAAECDFAAAaJACAAANUgAAoEEKAAA0SAEAgAYpAADQIAUAABqkAABAgxQAAGiQAgAADVIAAKBBCgAANEgBAIAGKQAA0CAFAAAapAAAQIMUAABokAIAAA1SAACgQQoAADRIAQCABikAANAgBQAAGqQAAECDFAAAaJACAAANUgAAoEEKAAA0SAEAgAYpAADQIAUAABqkAABAgxQAAGiQAgAADVIAAKBBCgAANKhWAVit0jgAwAS4AgAADVIAAKBBCgAANEgBAIAGKQAA0CAFAAAapAAAQIMUAABokAIAAA1SAACgQQoAADRIAQCABikAANAgBQAAGqQAAECDFAAAaJACAAANUgAAoEEKAAA0SAEAgAYpAADQIAUAABqkAABAgxQAAGiQAgAADVIAAKBBCgAANEgBAIAGKQAA0CAFAAAapAAAQIMUAABokAIAAA1SAACgQQoAADRIAQCABikAANAgBQAAGqQAAECDFAAAaJACAAANUgAAoEEKAAA0SAEAgAYpAADQIAUAABqkAABAgxQAAGiQAgAADVIAAKBBCgAANEgBAIAGKQAA0CAFAAAapAAAQINqFYDVKo0DAEyAKwAA0CAFAAAapAAAQIMUAABokAIAAA1SAACgQQoAADRIAQCABikAANAgBQAAGqQAAECDFAAAaJACAAANUgAAoEEKAAA0SAEAgAYpAADQIAUAABqkAABAgxQAAGiQAgAADVIAAKBBCgAANEgBAIAGKQAA0CAFAAAapAAAQIMUAABokAIAAA1SAACgQQoAADRIAQCABikAANAgBQAAGqQAAECDFAAAaJACAAANUgAAoEEKAAA0SAEAgAYpAADQIAUAABqkAABAgxQAAGiQAgAADVIAAKBBCgAANEgBAIAGKQAA0CAFAAAapAAAQIMUAABokAIAAA1SAACgQQoAADQoF4CrIhuMMcZNkWvqTAcAmIRcAM6K7D7GGD+K3FhnOgDAJOQC8Pk0XgE4udJcAIAJyQXg2Mgr0mi3Aa6LvK/qjACAzuUCcGnk0MgxI3z/qyK/rDojAKBzc28BvD+ybeQlQ3zvByJHVZ8RANC5uQJwS+SlkXMib42st8D35Mv+r4y8c/B9AMCUmb8OQD6Zvzfy6cjBkcdFth98TX7V7+xUHvjLX+OyPwBMsZUtBHRR5MhB1oisn8p7/l71A4AZsdhKgPmT/5WTmAgAMDmWAgaABikAANAgBQAAGqQAAECDFAAAaJACAAANUgAAoEEKAAA0SAEAgAYpAADQIAUAABqkAABAgxQAAGiQAgAADVIAAKBBKysAa0YeG9kvcr/IRpOcEABMsVsil0bOiHwycsrg15adFQvAwyLvj9yzh7kAwCzYMrJL5PmR/xt5duQHfU5oZeYXgGdFPhBZvae5AMCseWDk25HHRf6936nc2lwBeGTk2MhqPc4FAGbRupHPpFIGftTzXP4gF4A8MSd/AOjOeqlcZX9IWibPBOQC8LTIZn1PBABm3O6RPSOn9jyP38sF4Al9TwIAGpHPuaf2PYksF4Cd+p4EADRi2ZxzcwHYuO9JAEAjNul7AnOsBAgAk3NN3xOYowAAwOSc3fcE5igAADA5X+h7AnMUAACYjAtT2R9gWVAAAGAyXhy5tu9JzFEAAKB7b46c2Pck5lMAAKA710UOi7yn74msSAEAgPouSOV+/1GR83qey0rVKgAPjVxVaSwAmFZ5o59LIhelZbLpz6rUKgBnRa6oNBYA0DG3AACgQQoAADRIAQCABikAANAgBQAAGqQAAECDFAAAaJACAAANUgAAoEEKAAA0SAEAgAYpAADQIAUAABqkAABAgxQAAGiQAgDtuEdkj8j9IptHNhz8+pWRn0fOinwtcm4vswMmSgGA2bZR5NmRZ0a2X+L35CLwocgHI7/pZlpA3xQAmE1rRV4aOTz98ZP+Ut03clTk1ZE3Ro6O/K7m5ID+KQAwe3aIfGzw/8exUeStkadGnhI5e8zxgGVEAYDZ8peRj0fWqzjm/SPfjjwx8sWK4wI9UgBgdjw+8onUzd/rDSInRw6IfL6D8YEJUwBgNuwWOSF1+3d6zVQKxp6R0zs8DjABCgBMvztEToqsPYFjrTM4Vr4tcOUEjgd0RAGA6feOyGYTPN4WkTdFXjDBYwKVKQAw3XaMPKOH4z4v8j+TNwNgaikAMN3ye/6r9XDcNQbH/usejg1UoADA9Noklafy+/KkyN8lzwLAVFIAYHrtl8qT+X25beQxkY/0OAdgRAoATK+9+55A2CcpADCVFACYXjv3PYGwU98TAEajAMB0yg/+bdX3JMLWfU8AGI0CANMpL827Vt+TSGXPgfwswHV9TwQYjgIA02k5/d3NDyIqADBlltMPEWDpru17AgO3pOUzF2AICgBMp3zSze/fb9jzPH4VubHnOQAjUABgev048mfLYA7AFFIAYHp9K/VfAL7V8/GBESkAML2+EHnxMpgDMIUUAJheX45cFNm0p+P/IvL1no4NjEkBgOmVH757X+S1PR3/PZGbezo2MCYFAKbbu1PZke8OEz7uxZH3TviYQFFlC/BcAHKDX33McdaoMBdgeFdEDo98YMLHPTRy9YSPCRQ1PrzflAe5IZWlPMeRlwO9bPz5ACM4NpVteR87oeOdFDl+QscC/tS6Fca4PheAa9L4BWDjyM/Hnw8wooMi34hs3/Fxzow8u+NjAAvbuMIYV+cCcFmFwe4W+e748wFGlFcFfETklMh2HR3jR5FHRq7qaHxgae5eYYzLcgG4JHKvMQfaNvL58ecDjOGCyEMin4rsWXnsXCwOjFxeeVxgeOOes7NLcgE4L5UfGuPYcfy5ABXkK3r7RF45yLhbBl+fymuGb0le+YPlYscKY/wsF4CfVhho9wpjAHXcFHld5ITIkZEnp+Hf1Llx3vefW3FuwHjyK4A1zrnn5gLwwwoDbRXZOvLfFcYC6jgn8rTIEZGnp/KWwC5p1a8Q5ZP+6ZHPRT4S+eUE5ggM596RzSqM84P8g+D7FQbK9o+8vdJYQD3nR940yDqp/ADJDxFtNPj9K1K5FZh39rt28tMDhrB/pXHOygXg/6U6+4rnTxoKACxv+QT/nUGA6ZIv/z+1wji/jpwztxLgaZG/GHPA+0ceNBgLAKjroalcwRtX3sb75rl7gV9K4xeALC8PekCFcQCAWzu80jj/nv/PXAH4YuRtFQZ9fGSn5PIiANSUn/zft9JY+Zz/hwKQ3wT4SWSbCgO/K5VFSLwzDADjy6/xHl1prLyiZ3727w8F4JbIiaksHDKuvKjQ8yLHVBgLAFr3t5FdK4110tw/zH8f+LhUpwBk74h8LZWmAQCMJj9g/5aK4/3L3D/MLwD5FsCpkb0qHCBvVfiZVN4KsHY4AAxvk8inI2tXGu/Lad7qvyuuCJbv3+9V6UB5s4K8oljePey3lcYEgBasFzk5co+KYx49/z+sWADyjn61HgbM9hiMuV/k6kpjAsAs2yCVc+duFcfMK33+7/m/sGIByJuIvD7Nu0dQwd6p3FrI65BfUHFcAJg1m6dy8r9/5XHzrp63ejtvZZuC5B3A8uYh96l44J1TWRsgL2F4SsVxAWBW5AX58kZcm1QeN+/5c9KKv7iyApCvAvx9GiwUUNGdU1lx8B9TedvgysrjA8A0un0qm3U9v6PxX5LKuf1WVrUt6L9GPht5XAcTOSTyxMgbIu+PXNfBMQBguctvzB2cyofiO3R0jE+m8vT/n1hVAcheGNknlYcRartjKm8c5P/SecGgD0fO7eA4ALDcbB15Ziqf+Gtf7p8vX2l/0ap+c6ECcP7gGz9Ue0bz3Cny6kFOj/yvVB4YPCNyTYfHBYBJWT+yS+RhkUen8lzcJLwgcuGqfnOhApDl1QHz5gNPrDmjVdg1/XGpw7w08c9SWbDgolRazPXJ/gIALG+rp7Jwz4aRu6TyHv8WkdUmPI/8MOEJC33BYgUgn4ifE7lfZLtKk1qK/Ae11SAAwNL9IJVnCxa0WAHIrkplIZ/TUnlSEQBYni5N5QH+RW+jL6UAZP81GPDfUr01iQGAevJbdfkD+38v5YuXWgCyvLvfgalsTDDM9wEA3fpd5PGRby71G4Y9keflCfMDgZ+IrDnk9wIA9d2Qyrn5C8N80yif5PM2v3ld/0+lsogBANCPvNHe/qmstDuUUS/l52WC805/+b39u4w4BgAwul+msq7AmaN88zj38vPmPnkxgxMjDxljHABgOKdGnhy5eNQBxn2YL68wlLf7PTLy8jT5hQ4AoCV5Qby8l87rIzeOM1CNp/nzk4d5Tf98W+DYyL0qjAkA3NrZqSzOt+Qn/RdS83W+r0fuHzkiclhknYpjA0CrfpvKdsFvS2VZ/Cpqv8+fFyE4MvLByOsiT4+sUfkYANCCfIn/w5HXRC6oPXhXC/r8IpWtDt8YOTRyULKCIAAsRf4wnTfje2sqm+J1ousV/X4SeV7kVZFnRJ4d2bbjYwLANMr3+PMV9Hzyv7Trg01qSd9LUrl38fbIA1JZUji/u3jfCR0fAJaj76eyps5JqbzPf8ukDjzpNf3zf7HvDJJfG9wslQWFHhzZKbJD5HYTnhMATMKVqWzVm8+B30hlj50L+5pM35v65FWMPj5IltcR2DSyRWTzyMapbEG89iDWGQBgOcsfdPOT+vk+/uWRy1J5Lu68VBbtmdgn/MX0XQBWlP9gLhzktJ7nAgAza7kVAABgAhQAAGiQAgAADVIAAKBBCgAANEgBAIAGKQAA0CAFAAAapAAAQIMUAABokAIAAA1SAACgQQoAADRIAQCABikAANAgBQDqWCOyU2S7yDqRSyNnRM7rc1IzYKtU/lw3jvw2cnbku5Gb+5wUzAIFAMazfuTQyMGRO63k90+PvDHy2QnOaRYcGDkilZP/ii6KvC/y9lRKATACBQBGt0Pkc5F7LPA1u0Y+E/lY5FmR6yYwr2m2buRfIgcs8DWbRl4beVpkv1SuCgBDUgBgNPlS/6mpXJpeiqdENoo8JnJTN1OaemtGTo7ss8Sv3yby1cjukXO6mhTMKgUAhpdPVCelpZ/85+wbeXnkDdVnNBtek5Z+8p9zx8gnIg9MihUMRQGA4T0zlcv/o8gF4JhUHhLkj+4SedmI35ufE8i3A46rNx2YfQoADO+5Y3xvvsf91Mi7Ks1lVhwUWXuM78//mygAMAQFAIazQWTnMcfYOykAK3rYmN//oFRev7y2wlygCQoADGfLyGpjjrF1hXnMmq3G/P68DsMWkR9XmAs0QQGA4YxzmbrmGLPGnytMmAIAkzfuFQRWzp8rDEEBAIAGKQAA0CAFAAAapAAAQIMUAABokAIAAA1SAACgQQoAADRIAQCABikAANAgBQAAGqQAAECDFAAAaJACAAANUgAAoEEKAAA0SAEAgAYpAADQIAUAABqkAABAgxQAAGiQAgAADVIAAKBBCgAANEgBAIAGKQAA0CAFAAAapAAAQIMUAABokAIAAA1SAACgQQoAADRIAQCABikAANAgBQAAGqQAAECDFAAAaJACAAANUgAAoEEKAAA0SAFgmq0RuWNkw8htU/n3ebWOj3nvCmOsHdmlwjiTcEvkN5FzIzf2PJfF3Cd1/zMt/3nkP4frIldELo3c1PExoRMKANPiHpHdI7tG7hvZJnLXyOp9TmpEd4uc3vckhnRN5AuRd0a+2fNcVuWjPRzz5sgvIz+JnJXK/67fiPysh7nAUBQAlqv87+bekf0j+0a26Hc6zVsv8oRBPhB5YeT6Xme0POQCuvkge8/79XzFJBemz0S+klwlYBlSAFhutoscHPmrVC7vs/w8N7Jl5NGR3/U7lWVrq8gLBrkockLknyL/1eekYD4FgOXiYZHDI49I3d/HZ3wPj7wl8vd9T2QKbJrKn9NLIl+MvDnytV5nBEkBoH8PSeUH4oP7nghDe1EqtwPO7nsiUyIX230H+WrkiMhpvc6IpikA9CXf088PlO3f90QYWX4L429SKQIMZ8/ItyInRl4aOb/f6dAiBYBJyyeNfDn0yMi6/U6FCvbtewJT7omRR0X+IfLuVN4qgIlQAJike0aOjzyo74lQzdaRNZOHAcexfipXww6IHJTKGwTQOQWASclP9R8T2aDviVBVvq+dF2EatwD45Fueh/lu5DmRT/Y8FxqgANC1/O/YO5L7xLMqr4h3dYVx8op6W1UYZ9rlVS1Pirwt8vJk/QA6pADQpfxpP3+SeUTfE6Ez30lledxxnZHKKo8Uh6aytPGTUlmFEapTAOjKnSL/Gtmx53nQrZMqjZOL4sGVxpoVeaGlUyOPjFzW71SYRQoAXchr9J+Syqp+zK6LI8dWGiv/+/LtyJ9VGm9W5E2j8poBf57KioJQjQJAbXdOZe3ze/U9ETqVL/s/L9W5/z/n2amUgPUqjjkLtk+lIOW1Ay7teS7MEAWAmjaKfCk5+c+6/MT+30ZOrjzuDyOPS2UDnfUrjz3t8vMA/5ZKCbiq57kwIxQAalkrlR/cO/Q9ETqVN7PJ9+q/0tH4uUA+MJUlhi0PfWsPSOVZifxswI09z4UZoABQy/sie/V07CsjVyQ/FLuQL/Vfkcpe9/kT/+dT96+m5b0F8jvx+dNu3n54p1R2hly94+MuVf65uVEqr+xNWn6j5uhUrsDAWBQAasjrwT9rQse6IZVPn/lyaL5f/INUCgCz56uDLFe5ANw3slsqJ+a90mR+ph6SymuTH5rAsZhhCgDj2jGVZUy7lj8V/mPkY5FfT+B4sJhcPP9jkLxwzyaprHiZP51v0/Gx35NKAf5Rx8dhhikAjCMvAZtPyGt3eIz8A+5Vkc+mOgvOQFfyE/p5Q598cs63Ll4X2bajY+WNtD6eymuCN3R0DGacAsA43pC6e9c/P+n8ilSeLbAcKtMkvyWRt/n9dCpLYOci0MWrjfn2w6tTKcgwNAWAUe0ceUlHY+f7vnlXtJ93ND5MQn4o9ahU3o7Ju2B28VbD4ZFPpPKQJgxFAWAUeQe4fD++9lPZ+RL/m1LZG93ucMyKvL3vXqn8u/2yymPnn+H57+JDK49LAxQARpEfdKq9ZOv1kWek8mkGZk2+GpA3+MlvreQ1DtasOPYekQMin6o4Jg1QABhWXvDnDZXH/G1kv1QWgYFZdlzkV6mcrG9bcdw3pvKgrOdlWDIFgGHle/NbVhwv7yf/l6m7leVgufk/kf0jn0ulUNeQl9/OV+aOrzQeDVAAGEa+5394xfHyff6nJCd/2vPFVG55nZDKMzU1vDzykeR1WZZIAWAY+ZP6PSuOl1/z+2zF8WCa5Pf48yf311Ya796Rh6eySiYsSgFgGIdUHOuzkbdUHA+m0esjD4rsW2m8FyQFgCVSAFiqu0X+vNJYF0WeU2ksmGb5cv0zU3k7YJMK4z0qlY2TflVhLGacAsBSPTnVe+//hZHLKo0F0+7iyItTuX8/rvx64ZNSWY4YFqQAsFSPrzTOKansaQ780Ucjz0/lnf5x5TcMFAAWpQCwFPnSZK2Ffw6rNA7Mmvx341sVxsmrAt4u8psKYzHDFACWYq9U5/L/qams71/jXifMmnMi30jj7xmQf67vGfn82DNipikALEWtdcb3Sh5OgknIf2cVABakALAUu/Y9AWAo/s6yKAWAxeRVyu7X9ySAoezY9wRY/hQAFpPf/1+370kAQ9kwWQ+ARSgALGarvicAjGTrpACwAAWAxWza9wSAkdy57wmwvCkALOYOfU8AGInXbVmQAsBi1ul7AsBI/N1lQQoAi1mz7wkAI/F3lwUpACzmyr4nAIzk8r4nwPKmALCY7/U9AWAkZ/Y9AZY3BYDFnB65IHLXvicCLNl5SXlnEQoAi7k5clTk7X1PBFiyt0Vu6XsSLG8KAEvx7siTI7v0PRFgUd+MHNP3JFj+FACW4neR/SJfidyr57kAq3Z25PGRm/qeCMufAsBS5ecAdkvlk8WBPc8F+FMnRA6JXNHzPJgSCgDD+HXkiZEHRp4V2SuVvQLW6nFO0KrrIz9N5crcP0fO6Hc6TJv/D/Slj9eFYsIOAAAAAElFTkSuQmCC;" parent="tFHFQbnFNSWmSSy7VT7S-6" vertex="1">
          <mxGeometry width="172" height="172" as="geometry" />
        </mxCell>
        <mxCell id="tFHFQbnFNSWmSSy7VT7S-5" value="" style="shape=image;verticalLabelPosition=bottom;labelBackgroundColor=#ffffff;verticalAlign=top;aspect=fixed;imageAspect=0;image=data:image/png,iVBORw0KGgoAAAANSUhEUgAABLAAAASwCAYAAADrIbPPAAAABGdBTUEAALGPC/xhBQAAACBjSFJNAAB6JgAAgIQAAPoAAACA6AAAdTAAAOpgAAA6mAAAF3CculE8AAAABmJLR0QA/wD/AP+gvaeTAAAAB3RJTUUH4gYCCQURqgfCOgAAgABJREFUeNrs3XeYXVW9xvH3t8+ZSS8kgFIUSCaThAAioRcBKyBFSDJ0lKsSvSIdQmgeKSEhIaFZgldRVMqEBBAFUZCgYLmaqwKBZDIJvaXPTNrMnLN/948AUkPKzDlr7/39PM9+fK4XmTPvbmu9s/Y+EgAAAAAAAAAAAAAAAAAAAAAAAAAAAAAAAAAAAAAAAAAAAAAAAAAAAAAAAAAAAAAAAAAAAAAAAAAAAAAAAAAAAAAAAAAAAAAAAAAAAAAAAAAAAAAAAAAAAAAAAAAAAAAAAAAAAAAAAAAAAAAAAAAAAAAAAAAAAAAAAAAAAAAAAAAAAAAAAAAAAAAAAAAAAAAAAAAAAAAAAAAAAAAAAAAAAAAAAAAAAAAAAAAAAAAAAAAAAAAAAAAAAAAAAAAAAAAAAAAAAAAAAAAAAAAAAAAAAAAAAAAAAAAAAAAAAAAAAAAAAAAAAAAAAAAAAAAAAAAAAAAAAAAAAAAAAAAAAAAAAAAAAAAAAAAAAAAAAAAAAAAAAAAAAAAAAAAAAAAAAAAAAAAAAAAAAAAAAAAAAAAAAAAAAAAAAAAAAAAAAAAAAAAAAAAAAAAAAAAAAAAAAABgYxgRAACApJtaP6BPay7qpZx6R7JesUq9ZOptinKK1dvkuVjqFZnnXdbLZXkp7mlmVXLrKXmVpB6SqiX1sLX/+RaXusvU5T0/2Nf+8x/y8WKZmt73/+NqMil+13/b7FJJrmaZSubW4pEXTWqJ3YombzF5UYpWyL3dzVfIonbFvkKy1bG8pSrOLctVq7k1F7eccVhjK0cIAABIOgosAABQcTfcX9M71+5blsw2l8f95dY/Mtvc5X1d1ssU95Jbb0mbSd5Lsl6SeknqLakPCa5Tq0stZmpWrOUyNZu8RYqaXd7isqbI1OSuJpkWxfLFkftiWdWSJa35xYW62W1ECAAAKo0CCwAAdLgb6mu2sOr4o5HZNnFsm5vizSXrH0fW31xbynxzufpL2lxSf0lVpBbsYLHF5YulaJHki11aIrMl5r7YpcUyX5QraWHJoleL7WteOafupdWkBgAAOmFMAgAAsH6+/+uPbxbH1VtbMd4szkVbSfHW7tFWkm9t0laStpb0cUk9SSuz1sj0ilyvSnrFpFclfyWWvSr5K1EUvdpeKr589tHPLScqAACwviiwAACAJGnqfVt3by11397ct1Pk28mj7WS+nbm287Wl1EfESil0nGZJL8vtJTd/3qTn5PZ85PFziuz5Ldrmv1JXpxIxAQAAiQILAIDMuOWR7buuXlq9dTFXHBC5DYjNBph8gKStZdpKrh0YGyAg7ZIWm/SKSwtctiByXxCbL4ii6NUqW/Xs6CNeWUVMAABkA4NUAABS5Ib7a7rkV0fbFHPxsEjxjm42QK4BMq39TyBdXpU0W6YF5r7ALVpgpqcX99p2buHgmUXiAQAgPSiwAABImEL9sOotc+3bFnPFAWYaJtmObyupWEUFSO0yvSjXgjfLrVjR0/lSNHvzUsPzPJoIAEDyMMAFACBQU+/buvuaYrehZhpmpmFy7WTSji5txz0c2GhrZDZX8qfd7SlzfzqK9NSif85fUCgoJh4AAMLE4BcAgAqbOnV4VftWTbXu2lGxhsl8R0nDJA2WlCMhoCzaJDVKmi23pxVptpmeXvx/jc9QbAEAUHkUWAAAlNH3p9cOKEXFT5psV5d2lLSzTANEUQWEaoW7nolkT8bypyP5v6Kq4v/99+EvLCMaAADKhwILAIBOUF+v3MKuNUPeWlUVabjke8m1BekAqfCqzGYp1qw3V2udfmTjbGIBAKBzUGABALCJ3nwEMI59eCQNd2m4pE9K6k46QKYslzTbpFmxNCuKbBaPIAIA0DEosAAA2ACFRw7Kb7H85Z3iqLS3ue3l0u6ShkjKkw6A9xlst7j0L8n/YR79VXHpb6ePePZ5kgEAYIPvqQAA4IPceO/grd1Lw801XJGGy31/SX1JBsAmeE1m/1CsWW6alc+3PcY7tQAAWDcKLAAA3jDxwV16dF+54pNxTsPdbbjJ95dsB5IB0MlKkua6NMvMZ8WxPbZV+/x/1dWpRDQAAKxFgQUAyKwf3Fe7TXux+Ckz7S+L9pP7TuLbAAGEMUhvkfQPNz3msT2Wa+/y52/VzV5BMgCADN8bAQDIhu9Prx1QzJX2N9N+cu0vaUdSAZAQJUlzZXpMsoeqo+iR0Uc0LCYWAEBWUGABAFKpUFC0+W41Q1Xy/WLT/iYdKOnjJAMgRSP5Be56PHI95rn877995NxnCQUAkN7bHgAAKVBfr9xrVTsMj8wOdtkBkvaX1IdkAGSHPyvZn+T2R5dmnnF043wyAQCkBQUWACCxvj+9dkAclT7rps9K9hnJ+5EKALzlVUmPmeshj/K//vZRc18hEgBAUlFgAQAS4wczBm5ZzNmBkn9Wri9I2o5UAGC9R/4LJD0k2UNepQfPOKyxmVAAAMm5jQEAEKiJD+7So8vqFftI0Wcj+Wdd2o17FwB0iKJJ/45lD0nxQ11e3+zR0aNntRMLACBUTAIAAMFwl934q5pd5TpU5oeaa29JeZIBgE63XNIj5vqtmR741pfmv0gkAICQUGABACpq7SqrVZ8288PlOkzStqQCABWfJSww169j+X1L27r9sVA3u41QAACVvTUBAFBm359eO6CULx4ht8MlfUpSNakAQKh8pSx6xGK/j5fBAwAqhQILANDpJtdv2y1fXb3fG++y+pJLg0kFABLraZfdJ8UPLe3z8ZmFg2cWiQQA0NkosAAAneK6e3f4SKToSHN9SdKnJXUlFQBInYVyPSDpnur86t+NPuKVVUQCAOgMFFgAgA5z0/QdtvO8femNRwMPEi9gB4AsWS2zhy32+3Kue755zPyFRAIA6CgUWACATXLTr2qGKY4Pd9kRkvbl3gIAkFSS9FeZT/NiNP2MEY0vEQkAYFMwyQAAbJBCQdFmnxj4yUh2hMyPl1RLKgCAD/G03KbF8vvOPHr+LOIAAGwoCiwAwIeqr1futaqaz8h8lJmOkmsLUgEAbOQUZI6ke9xUf8ZRjf8kDwDAet09iAAA8H4KBUVb7DJgX49slEt1kj5KKgCADp6MPCfpVxb7tG8ds+AxEgEArOOeAQDAf9z0q5phcayTTX6ypK1JBABQJk/LbZryxTu+fcRzc4gDAPB2FFgAAN30q5phXtIomZ8kaSCJAAAq7Gm5TYsi/8W3jprfSBwAAAosAMioG2bs8AkzO1aRHSvXABIBAATIJf3N3O/M5fPTvnlEw8tEAgDZRIEFABly472Dt3YVTzTXKZJ2IhEAQILEJj0au25dHeWnjzlqbguRAEB2UGABQMrd8sj2XVc054+QdIrcD5GUJxUAQCh84/5nayTdJ9nPl/bZ9oHCwTOLJAkA6UaBBQAp9OY3CMY5O1mu4yT1JhUACI8TQUd4RdJdMvvpGUc1/pM4ACCdKLAAIEVumr7DdsrZcS77ungZO4BAUdqgEz0t+a2x+U/POurZ14kDANKDAgsAEm7K3dv3zVv+BMlPlrQ3iQDhorgByqZd8t9K0a2q1n1nHNbYSiQAkGwUWACQUNffPXB4FOk0uZ8oWQ8SQegobwBUyHIz1Xsp/v4Zxzz7b+IAgGSiwAKABPn+rz++WdxeNcpNp0vamUSSgeIGAIIxy10359u73vatutkriAMAkoMCCwACVygo6rfrgE9LdopJIyV1S9Lnp7wBAASo2Ux3WGRTTz+i8f+IAwDCR4EFAIGaMn27rXK53Clmdpq7BpAIAACd4mnJby22tf3onLqXlhIHAISJAgsAAlJfr9zrXWq+GEtfN/dDJeVIBQCAcvCV8uhO5fSjM45s/Ct5AEBYKLAAIABT7t6+bz6KvuxuZ0nankQAAKjoNGmOWfzDNV17/s/5X3hiJXkAQABXZiIAgMq56b6a3Tz20e46SVJ3EgEAIChNZrqzWIquO/uYec8QBwBUDgUWAJRZoX5Ydf8urUe5+2mSPksiAAAEL5b0BzO7+SOtjTPq6lQiEgAoLwosACiTt17KLvu2S9uQCAAgM9L1lbSNMv8fXvoOAOVFgQUAnez6uwcON9OZko6TVEUiAJAhTgQpnkmtkWtaHMWTzjrq2ScIBAA6+7ILAOhwhfph1f2q1pwg0zmSdiYRAJlEeYPsmOlu1y17ovG+QkExcQBAx6PAAoAOdMP9Nb2tPT7V3c6TtC2JABlEaQNk2XyT31idX/Oj0Ue8soo4AKDjUGABQAeYMr12QC5XOlPyr0rWg0SQWZQ3ACBJi+X242JVdOM5RzS8TBwAsOkosABgE7zt/VbHS8qTSIZR3AAA3qtN0p1RziacfmTjbOIAgI1HgQUAG6hQUNRv15ovSj5G0n4kIsobAAC3wQ//Rx42sxu+fVTjr824cwLAhqLAAoD1NPHBXXp0Wb3yq2Y6010D1nfECgBAWnEb3KgJ2P+5+bVdX99s2ujRs9pJBADW+/oJAFiXKXdv3zen3OmSzpS0OYkAAChu0AGel9vEUnHNT86pe2k1cQDAulFgAcAHmHRf7eZVxfh0k58pqS+JAADFDdAJFkn2/VjF684++rnlxAEA748CCwDe5bp7d/hIVMqdLfNvS+pOIgDeRHkDoBM1u9sP4uKaa86pe2kpcQDAO1FgAcAbbvzV4B08Lp4l6TS5upII8B8UNwBQNivc9JM4l7vmnCMaXiYOAFiLAgtA5l0/Y+BOZrpA0vGS8iSCd6O8AQBUQJukO0uRLj/nqPmNxAEg6yiwAGTWjfcO2N1ju0TSkVwP34vSBgCAILTL7Rc5xeNPP2ZBA3EAyCombAAy5/oZA3eySJfJNfKDroOUNwAAIDCxmaZHsV9CkQUgiyiwAGTG5F/VDMvH/h1fR3EFAACYDgUuNtP0ovlFPFoIgCs2AKTIlBmDhkYWj5V0gqQciQAAwFQgBdol3WHSd884unE+cQDgrgUACXXjrwbvEJeKF0r6qiiuAAAMf5FO7ZLdUsrb5XxrIQDu4ACQIDdN32G7UhRdJOm/xLcKAgBDPyAb2iT7aRRF3/32UXNfIQ4AjGIAIFBT7t5++0jRJZKdIqmKRAAw5AGQQavk9n0r+jVn1DUuIg4AjOYAIBCT7qvdPF+MLzb5NyV1IRGA2z0AQCskn7Imyk8cc9TcFuIAwIgWACpk6n1bd28tdf22u10oqS+JgFsdAADvscRME1Wt6844rLGVOAAwqgeAMikUFPXddeBJ5rpa0tYkwuUdAAB8qBckv2rZv+f/T6GgmDgAMMMBgE50wz0DPutukyXtzKUNAABggz3lbmPPOmber4kCQJIwywOQCFNm1OwTmU+Q7ADSAAAA2FT+UBzbmLNHNP4fWQBIAgosAEGbMmPQ0Fzk33XXKNIAAAAdyYnAZborco094+jG+cQBIGQUWACCNGX60K2iqP1KSV+WlCMRAAA6DsUN3qXN5T+o8qorTj9mzhLiABAiCiwAQSnUD6verKrtm5JfLqk3iQAAOhLFDbBOy2SaEPGNhQACRIEFIBg33FNzhLuukzSANACgY1HcANiASWKDuy4565jGaaQBIKBrEwBU1pTpNbtFpikyfYo0AHQGyhsA2Kjp4sOxlc4+50sLniQLABW/IhEBgEpZ+56rYkHyr4r3XAEdjtIGANABii77SdHjS88/Zv5C4gBQKRRYAMqO91yhHChvAADoULwfC0BFUWABKKs33nN1vaQdSKNzUNwAAIBOnEDyfiwAlbr+AEDnm/yrmmG5kr4n6cDO/DmUNwAAAGXxYMnjM849ZkEDUQAoBwosAJ1q6n1bd19V7H6BSWMlVZMIAABAarTL/AdVbV0v/lbd7BXEAaAzUWAB6DST76k5InLdJOnjpAEAAJBaL8n84rO+NP9WogDQWSiwAHS4yfcOrIncbpTrENIAAADIzPTyYUXRt846au5csgDQ4VcYIgDQUSbXb9vNqrqOMelCSV1IBAAAIHNWu3RN3+XF8aee+twa4gDQUSiwAHSItY8L+g2SbU8aAAAAmTffLD7jzC8tuJ8oAHQECiwAm+SGu2sGxrIbJD+MNAAAAPBOPsPyfvaZRyx4gSwAbAoKLAAbZerU4VVrtmg6102XSepGIgAAAPgAK+X23eWbbTOlcPDMInEA2BgUWAA22JS7B+1q8h9J2p00AAAAEsQrOv18Ijb7+jlHN/wvOwLABl9BiADA+pp639bdV7d3v0ym8yTlSAQAACSGE0EgipJ/v6rY9eJv1c1eQRwA1hcFFoD1MuXugYdK9gOTtiMNAAAShvKGXRva53Y9G7m+edbIxgfZiwDWBwUWgHWaXD+sn1W1XW3y00gDAMDsHuxWdLBpuaK+dUZd4yKiALAuFFgAPtB1M2pGyfR9SZuTBgAwwwe7Fugky2R+4dlHz7+ZKAB8EAosAO8xZXrtAIviH0r6HGkAYHYPdi2AMpkZxfFpZ45cMI8oALwbBRaAtxQKivrsUnOWma6U1I1EAGb4YLcCQJkveCslXdL0ZOMNhYJiAgHwJgosAJKkG381eIdSqfQTSQeRBpjhg90KAKiwv8SKv3LuMQsaiAKAJOWIAMj45NBl/XYdeFrsfo+kWhJhhg92LQAAAfiYyb526LH9insPXfqXmTO5LQJZxwosIMOm3D1ke1Pxx5I+zQwf7FoAABCox6M4PpV3YwHZxgosIIPeXHUl97slDSGRgPYNEQAAALzbx93sq4ce26/Eaiwgu1iBBWTMTdN32K4URf/jbp8N7bMxEgEAAMC6Z7D+UNTuXz2zbsELhAFk7PQnAiA7rptRM8qlqZI2Iw0AAAAkVLPMzz/rS/N/ZMbfQIGsoMACMuDGewdvXSqVfuzSIaQBAACAlHjAi9HXz6lreJkogPSjwAJSbsqMQcdIfrOk/qQBAACAlFnmpm+cc3RjPVEA6UaBBaTU5PptuynfZbzJziANAAAApNw0WfG0s49+bjlRAOlEgQWk0HXTB+zhFv1CUi1pAAAAICOe9yg6+ZwvNfyJKID0ocACUqS+XrlX8jXnuXS5pGoSAQAAQMaUJE3qvqjPpaNHz2onDiA9KLCAlJg0fYftcpa7VdKnSAMAAAAZ979RHJ905sgF84gCSIeICIDku25Gzaic5f4pyisAAABAkvaMo2jWlLsHnkYUQDqwAgtIsPH1A/pU56ObTDqJNAAAAJA0Xp6fMqNaVaedfsycJSQOJBcFFpBQU6YP3E+R3SbXx0kDAAAgeZwIyukldz/l3BHzHyEKIJkosICkDXRcNuWeQWeY+0RJVSQCAAASNZYhAlTw8DPpmm2KjRfX1alEHECyUGABCTLpvtrN80X/mbsfRhoAACRw9kwEQAgebc/lThhz1NxXiAJIDgosICGumz7oU25+m6RtSAMAkDQUNwACs8jMv3z20fMfIAogGSiwgNAH/DwyCADJvo4TAQAEfIn2G3ss6nve6NGz2okDCBsFFhCwG+prtojzutWlQ0gDQAJnBQAAJOGG9TeL8sedffSc5wgDCBcFFhCoyTNqDjTpNklbkwaQxLEwAABIkMUex18+d+SC+4kCCBMFFhDapNdl199dc4FLV0nKkQgSeRwTAQAASOQQhkcKgVBRYAEBmXRf7ea5Yul2uX2WNBI54gEAAEDyPe6RH3/ul+a/SBRAOCiwgEBMmV6zm8ynS7Z9Ej8/5Q0AAABSZHEsO+G8Y+b9niiAMEREAFTetTMGnuKmx1y2vWttGZS0DQAAAEiRzSP5A9dOrym4s/ADCAEnIlBBN9xf06W42m6Q+WmkAQAAAAQ5af5VazE+5cK6BU2kAVT0XARQCTdMr9m2KN0l016kAQAAAAStQbGOOWdk42yiACqDRwiBCpg8o+bAoukflFcAAABAItQq0l+mTK8ZSRRAZbACCygjd9mUewadIfdJkvIkAgAAACRrSC/5jc2bfezcwsEzi8QBlA8FFlAmE+4d3KuqVPqJJP5qAwAAACTbo1GudOxZRz37OlEA5UGBBZTBpLtqh0RR6R7JBpMGAAAAkIrZ9AsqxSPOGbngH4QBdD7egQV0ssl313w+iuK/UF4BAAAAKeL6uEfRY9fOGHgKYQCdjxVYQCeacvfA09zte+J9VwAAAEgZJ4K3p3FDyxPzzy4UFJMF0DkosIBOUHjkoHyvZS9dZ9K3SAMAACBdKG7wAZPrB9qK8fEX1i1oIg2gU84xAB3pphlD+repeJekg0gDAACkCcUN8KGejPO5o84/cu6zRAF0LAosoANNvmfAzipF98q0A2kAAJAulDcAJ9V6/lpLTD7q3BHzH2EnAx2HAgvoINfeNeAwi6LbJfUmDQAAc0wAnFSZVjT3s88ZOf8mogA6BgUW0AEm3z3oTLlPFt/sCQDMMQFwUgFvTbjt5h6Le58+evSsdtIANvV8ArDRJtdv283zXX5ssuNJAwDzTACcVADeZ9b9u7bqtuPGHv7CMsIANuVUArBRbqiv2aKY172S9iENgPklAE4qAExn13ExbLCSf/GcuvmN7Dcg/Wc8EIxr7q4ZmHfdL6mWNMA8EwAnFQCmcVgPSy22L50zquFPRAFw5QM63bXTa/Y2068kbUEazDMBcFIBYAoDbIBWd5163sh5txMFwNUf6DTX3j1ohLn/XFI35pcAOKkAMHQHsHGjBbv83BENBaIAuAsCHW7S3YPONL5pEPjQ4RgAMGQFgPUaOP1PS79tv1k4eGaRLABGA8Amq69X7oWqmhvM9d+kgQ8efxABAIZqAIANvsz/rmqVjzrjpMZmwgAYFQEb7Xv1w3quybfeLulw0vgAFDcAGKYAALApd7sn2uVfHDOi8SXSABgZAhtsyvShW8XWfp+k4R/4D1HeAOAWDQAANt3LUaTDzz563r+IAmB0DKy3yXfVDHPTA5I+RhoAtyUAAIAyWB5bNOL8Y+b+gSgAZgrAh7p22sB9FdmvJW1GGuCSDAAAgDJqc9dXzhs573aiAJgtAR9oyvTaz8aK75bUkzS4HAEAAAAV4CY7/5wRDdcSBcCMEXiPSTNqTjTXLZKqOAUBAACA9Av5lbYmm3DuiIYL2UsAs2fgLZOmD/q2SddJikgDAAAAacd3ESXGT1f02+brhYNnFokCWZcjAmT6xu2y3rvUFkyaIApdAACA9I//iADJsmuXVSs+ccjIbvc+OK2ZEguZxoQdmVVfr9xLuUHfd+k00gAAAFlAeQMkduY+s1gsfenCugVNhIHsngZABt1wf02X9tXRzyUfRRoAAKQfxQ2A5F/I/MlSVe6QMUfNfYUwkEUUWMic79UP67km1zZD0udIAwCQ+vkOEQBAmjwbleLPn1M3v5EokDUUWMiUG+prtmjP2YOSPkkaAJB+lDcAgBR61T065PyRc58gCmQJBRYy45r67T+ay1X9XtJOpAEgzShtAABIveVuftj5xzT+hSiQFRRYyITr6wd8vJjLPSyphjSAdKO8AQAAGbHSLTry/GPm/oEokAUUWEi9ifWDd4hy8UOSBpAG0o7yBgAAIFMT+lWl2I++YFTj70gDGTjegfSadFftEDN/SNI2pJFelDYAAADIsDa5HXveyIZ7iAJpRoGF1Jpy96Bd41i/k7RFmn9PyhsAAAAg84rmfuq5Ixt/QRRIKwospNKkuwcOVxw9KKk/aQAAAADIgJJJXzt3xLyfEgXSKCICpM0102oPkEd/EOUVAAAAgOzIufSTSdMHfZsokEYUWEiVidNqDooiv1+u3qQBAAAAIGNM0vWTZtScTRRIGwospMa1MwYdbpH9VlJP0gAAAACQUSa3yROn144lCqRJjgiQBhOnD/qipOmSupAGAAAAgKwz6TOfr+vnv6tf+ihpIA0osJB410yr+XxkdrekrqQBAAAAAG8wO/gLx/aPf1e/9I+EgaSjwEKiTZox6HNm9itRXgEAAADIEF//f+7gLxzbv0SJhaQzIkBSTZox6HNy3SupG2kAAAAA2eFEsBGTf7v4vBEN40gCyT2GgQS6ZlrtAVHkD0jqQRoAAADIAkobdEAFcNH5IxquJgckEY8QInEmzajd38wfEN82CAAAkBmUN0CH+Mzn6vq1/r5+6WNEgaRhBRYSZdKM2v3llFcAACBbKG8AdPA1ZcwFI+ZdQxJIEgosJMY10wfvFyl+QFIv0gAAIBMTLABAJ11iXTrzghHzbiQKJAUFFhLhjfLqt2LlFQAgKzMLIgAAdPKtxuSnnzei8ftEgSSgwELwJt09cLg8+oNcvUkDADIyoiYCAADKcss12TfOG9FwM1EgdBRYCNq1M4bUupf+KOkjpAEg9SNIIgAAAOUXSzr5/BHzbiMKhIwCC8EaXz/g41W53J9c+jhpAOlHeQMAABiEVEzJpWMvGDlvOlEgVBRYCNKEewdvnSvGf5I0gDTAmAkAAIBBCDpdm8mPPG9k44NEgRBRYCE4k+6r3Vzt/qhcO5IGYyYAAAAGIkDZrLLYvnBeXcNjRIHQUGAhKDf8oqZ3azc9bLLdGTMBAAAwCAFQdk2R/OBzRzb+kygQEgosBGNy/bbdSrluD0g6kDQAAECHo7gBgPW10GQHnjeyYQ5RIBQUWAjC1KnDq5o3b75b0hdJAwCATkB5AwDYMC+aFQ84b8SzzxMFQkCBhYqrr1fuhVzNL112LGkAADocxQ0AABtrnsftn7qg7rnXiAKVFhEBKjqncNnzudqplFcA0BkXWTbKKwAANskgi6oemHL39n2JApWWIwJUUo9dBl1h0lkkAaDDUVwAAAB0hI/Gnttvv0N73z7z3uVF4kCl8AghKmbS9NrTXD6VJIAORnEDAACAjnffdvG8o+vqVCIKVAIrsFARE++qOUKmW8VjrOhIFDcAAABg2NpZBi+P+n/k9/VLf80eRCVQYKHsJt41aC+Z3SepC2lwFwQAAADDViTG7p+v61/8ff3SPxEFyo1HCFFWk+prdvSc/UlSP+5+AAAAyAqGrUjX4exfu2Bk40+IAuVEgYWymXDv4K2jdv+z5NuRBgAAQKZmuwDSpWTuI84f1XgvUaBcKLBQFjf8oqZ3a1d7VNKupAEAALKE8gZASq2y2D97fl3jX4gC5UCBhU53w/01XdpWRQ+4/GDSAAAkUFFmLXJf49JqyVeaRW2K4yaZxW/755rsnf+33OVm7x1veezdZW97F6Sph2TVcu8tKS+zvnKvktQzycFR3ABA6i2SSvtdMHLBPKJAZ6PAQqcqFBT13KnmNpcdSxoAgApqkfSa5AtdWmTSIlm0VFKTe7w8ki2PZU05Ly13t+WlLrnl8YrVq8ee+MKyit9Lb9m+a+8ePbq35tr7VpVKm5Us19fM+0rexxT1jc37Wqy+MttM7h+R+UelaAvJtxBf2AMA6HwL2quK+1581LOvEwU6EwUWOtU102ommdm5JAEA2VCBFTctkl406cVY9lJk8YvuelFuC91tYb669GrLstKiwqnPrcncvnDZpLsHblGKbQsz3zJStFUs28rcP2bSx9y0rbs+ZtJHGRMCADatWbBZnreDxxw1t4Uw0GmHGRGgs0yaXnuau08lCQCZKAuIoLOsktQo13yZ5rs0P+f2fNHiFxTHL11Yt6CJiDZNoX5YdQ8Vt3Hzbc3i7VwaYIpq3LxGroGStiQlAMCHjoVcv9nB5x1VV6cSaaAzUGChU0ycXvtZud8vqYo0gAwMWIgAm6Zd0jxzPR2b5pqpMS5ZY5dcbv7ZI555lXgqa8K9g3vl20s1RdNAxRoYRTbYpWFyDZHUm4QAAG8bE94wZuS8M0kCnYECCx0/0J0xaGgU68+S+pIGMnCTBrD+1rj0jElzTJrt0pxINrvXkl7zR4+e1U48yXPtPQM/Vmq3oRZpx9i1Y2Q21GXD5L4Z6QBAVtnpF4xs+B45oMOPLCJARxo3Y0j/qrj0V0k1pJFuFDcAPkST5E+5bJa5zYq8NLu6pz11xmGNrUSTfhPuHbx11F4aHns03CLtKPdhkoYy9gSATCjJ9aULRs37NVGgIzGIQIcp3LJ91x69qh+WfN+0/66UNwDwDovc9b9R5H+PpX96Kf7XhXULXiAWvN24GUP6V3n8ydj9k2a2h9z3lvQxkgGAVGq2KN7v/GPmP0UU6CgUWOgQ7rKJ02tvlfwk0gCAVGuXNE/SY3J7PLZ41pgRjU+b0e1jw11Tv/1HLcrvEXs03MyHy2w/Hj8EgLSw59ur2ve6+KhnXycLdMgRRQToCBOm1RbM/DskAQCpGyq8Zu6PyfQni+PHey3r+wTvq0Jnqa9XboGG7Jiz0r5u+pSkAyVtQzIAkFh/y8erDz6n7qXVRIFNHpUSATbVxLtq6lx2B8cTACSfS6+a2WNyfzyK48fOHTX//1hdhUqacO/gra2ttJ/MPitpf/EuLQBImumrnppXVygoJgpsCm7+2CTXTB+8nzx+WFIX0gCARHpJ0kMmfzg2zRwzovElIkHIJtw7eOuoGB/krs9J+qykbUkFAAJnPu6CEY0XEwQ26TAiAmysSdN32C72/N8lbUEaAJAYTZLNdOmhnPTQeSMb5hAJkmzCjEFDo1if87Vl1kGSepEKAITHZV8ZM7LhZySBjUWBhY1SuG/r7t1bezwuaVfSAICgxZL+bq7fyP2hlVts+/fCwTOLxII0mjp1eFVTv5a9Jf+8TIdJ+iTjXQDoHBvxfoHWKPaDz69r/AvpYWNwQ8eGX6hcds2MQbeZ6zjSAIAgrZT0iMzu87z9esxRc18hEmTRxBkDt/RS7hBFOlzuh4jVWQA6Yj5EBJvAXpPFe/DKAmzU0UME2FDXTB90gVwTSAIAgvK0Sb+R+/0rN9/2MVZZAe9UuGX7rj17Vh8cmx8h6YuSPk4qwIajvEEH+Gu37n7QGYc1thIFNgQFFjbIhBmDPmexHpCUIw0AqLin3W2acn7nmGPmPUMcwPobf1fNMPNolJnXae03GwLrRHEDdCT7+ZiRDaeQAzboqCECrK+J9YN38Cj+u6T+pAEAFVGS/K/uus/yuuuCoxvnEwmw6daWWTrcTEdIth+JvBPFDYDOYd8eM7LhJnLAeh8xRID1MeHewb2sPf6LpGGkAQBlVZL0sOR3Rm3Rr847oWExkQCd55q7Bgxyy480j4932c4kAgCdpj12//zYUY0ziQLrgwILH8pdNnFG7Z1yH0UaAFCuO7TNkvvPFbffeUHdc68RCFB+bz5mKPMTJdWQCAB06GBHkpbEpj3HjmhYQB5YryMGWJeJ02u+424FkgCATve0u02zfPxzHg8EwnJ1/cDhURSdItexMn2ERAAwDe8w/45Wdd3v/FOeWEkU4MzBRpswveZIc7tbUkQaANApXjL3n5tFt543smEOcQBhKzxyUL7r0pe/INepJh0hqZpUAKaf2GS3XzCi4UQzXrsHriDYCBPqBw+2KP5fSb1JA0CaVWCktNqku+X+s1WzGx8qFBSzF4DkmXRb7ealaj9B0qmSdiURMPUCNmlEdsGYkfMmkgO4imKDTLx1lx7effVfJe1EGkDKhwpEUM60H3dFP1NcrL+wbkETeQDpcfVdNZ80t1PNdIL4xmamHAA2RkmuL4wZ1fAwUYC7CdbbxLtqb3X5ySSBtKO8QRnutIvN9dNilPvRRcfMaSAQIN1uuL+my6qV0dEW+TfkOpDhNgBskIVVsXY7p67hZaLAe4fVwLtMuGvQN0z6AUmkF6UNUIYbrNksSTfnS6t+fk7dS6tJBMiecTOG1OY8/i+5vi6pH4kAwHr56+q46sBC3ew2osA7xtdEgLcbP6P2E1Hsf5HULa2/I+UNgE7UJOnOSNH3zh859wniACBJhVu279q9Z5cj3PxMSfuRCAB86ITt2jGjGs4jDLwdBRbecvUvP75Z1KXLPyQNIA0A2CD/Z6Yb86XVd7LaCsC6TKiv3dMifdulOvENhgDejr+0vyONyDXi/LqGu4kCb6LAwtqrg8sm3DVoupmOJg0AWC+xpPsjs+vPH9HwEHEA2BBX3bvDR/JtVd9UpG/JtTmJINuTESLA+2opmfa8aGTDHKKARIGFN4y/q+ZCk11NEgC4lXyo5ZLdmrNo8nkjnnme/Q9gU9xwf02XNSujY910nqSdSSSDKG+AdXlyddcVexeOeGUVUYACC7qmvuZAj+whSXnSALh84oMHUDK7fnVz6y8Lpz63hjgAdCR32aQZtZ+JXWdLOjQTNxqKGwDrN+z+8ZiRDV8jCDADy7i1y9fz/yfT1qQBLh3A+3rcFU8YM6Lx12ZMtwB0vvH1Q3a2KD5fruPFHxgBQJL/15hR824hB2ahyKj6euWeiwY95NJBpMFpA+AdSjLNiKWJY0c0/J04AFTCxPrBO8Tm50k6VSn+hmgA5ZfAv8itzpntzbc8MxNHRk2YVluQ+Xc4VADgP4Mjk/+0FMeTx9bNbyQOACGYOGPglqVS7kyT/ltSXxIBNh5LqRO99+ZZdTR8zFFzW8gim2glMuqaabUHuOkRSTnSAAC1yPT9yEqTzz9m/kLiABCiCfcO7qU2P13SuZL6kwg2aOpPBEiHX1w4quFkYsgmCqwMmnL39n3bStX/krQdaQDIuBbJbilWtY27+KhnXycOAEkw8dZdenjX1q+5+YWSPkoiH47yBkgPc50ypq7h5ySRwX1PBNkz4a7aOyQdSxIAsjpTcKnZpB/EbV0mjD3xyWXsMABJtD5FFsUNgBRaYW67j6mbO5cosoUCK2PGTxs02sx+SBJAJ2K2ELLFkiar2m7i/QkA0qJQP6xnFyt+y+TnSdqcRABkwD/WeNV+hbrZbUSRHRRYGTKpvmbHUpT7u+TdSQOdguIG4Voh6XvuxasvrFvQRBwA0uhtRdZYSX1IBECamdnEMSPnXkASGdrnRJANN9xf02X1quhvkj5BGp2A4gYI9Ta3StL/RLniVbycHUBWjJsxpH+uFJ/v0pmSupIIgNTOwtyPuLBu3m+IIiMjeyLIhmvuqr3JpW910mUDAELTLtMtarfvjjl+7ivEASCLrrx94MeqqnKXuOur4punAaTTwsirPnFB3ezXiCL9KLAyYEL94CNlfg/7G0Bava1HL8n087zlCueNeOZ5kgEAafxdNcPcbZzJjiQNAGlj0m8vGNlwmBlLKzKwr5Fmk+trt2k3/Uu80BNIJe7S7wjjIeV13oXHNPybMADgvSZMr9nbS9EUmfYmDQApGxOfN3ZUw7UkkW4UWClWKCjqPqz29y59mjSQwpsU8KZ/eaTzx45oeIgoAODDx4dddhx0ipldKWkbEgGQEm3u0b5j6+bMIor0osBKsQnTBp8l+RSSSBeKG+CNG5jpRUmXrn6q4eeFgmISAYD1N/HWXXoUu60536TzJPUgEQApMHdN1xW7FY54ZRVRpHT8TwTpNOGOQUOVs1mSuqXld6K4AfCGZrmurtaq68+pe2k1cQDAxruyvnabnOkqk05hbgAg8XNG001jRzZ8myTSiZtUChUeOSjfddErf5ZpD9IAkKYxiZt+kYurLuCbZgCgY11dP2S4Wfw9SXuRBoAkjxclffHCUQ0PEEX6RESQPl2XvHIp5RWAlJklRfuPHdlwCuUVAHS8sXVzZq2Z3bCvpC9LWkQiABLKJP1ocv2wfkSRPhRYKXPN9Jrd5BpLEgBSYonczlozu2HPC0fN+TNxAEDnKRQUXziq4VZv6zLYZTdIKpEKgATaps3aryeG9OERwjQNOm7ZvmvXntX/kDSMNAAkXLvLfmDeftmFdQuaiAMAyu+a6TW7eZy7yeX7kAaAxDE79sKRc+sJIkW7lAjSY/y02hsk8cI6AInm0p/M4m9eOLJxNmkAQIWvyS6bcFftyZKmSOKRHAChjBfXx+KcV+3M6yfSgwIrJSZMq/2MS79nnwJIsKXuGnvhqIYfmfHFowAQkmvqh320FLVfY66TSQOoHAZIG5iX+4NjR807lLFlOlB2pMD4+gF9ZFVPSP5x0gCQyLGF6RdVbTrnvBMaFhMHAIQ87hz0RTf7nknbkQbKOlggAmy8r48d1fA/xJB8FFgpcPVdtbfy1zAACR2MPmGKvskL2gEgOQr3bd2925qel7l0nqQciXT6vRLAplkpL+06tm5+I1EkGwVWwo2fNvgoye8hCQAJs1qywprNt5pcOHhmkTgAIHmunl67R1Tyn7jZTp31MyhvAHTQxeSPrU83HFwoKCaM5KLASrC1jw7mZ0vahjQAJObG43q8FOlrF41smEMaAJBsU6cOr1rab8U5kl8uqZpEAIQ7BrWzLqybez1JJHgfEkFyjZ826MeS/RdJAEjILWeVS5e3zp47kb9+AUC6XHXX4F1ysW5x891IA0CoY9FcqbTLBcc1zieLhO5BIkimq+sHf9rMH2IfAkgE9wfzufzo80Y88zxhAEA6sRoLQOjM9ciYUQ2f4VsJE7r/iCB5Jt66S49StzVPStqBNAAEbqmZzhkzsuFnRAEA2XDV9Jrdoji6RdIupAEgNO72tYvq5v6YJJInIoLkKXZrHSfKKwDhjw4eLLp2obwCgGy5eETj//Vb2mt3Sd+VVCIRACEx82snTK/ZliQSuO+IIFnG3TVor8jtcfGVxQDCvbWskuuiMaPm3sDybADItvHThuzrin8uaQBpAAjIb8aOajicGBI2yyCC5Ljh/pouq1ZGsyQNIw0g2dLb6thfchZ9+YKRz8xjLwMAJKnwi5reXbpGE+U6jTQABDNqlY6/cFTDHSSRqH2GpLj6rsFXmvvFJIEkYzlOaq2RrDDQ506qq+NxEQDA+4xlpw0e5fIfmtSPNAAEYHE+Vxp2/jHzFxJFMlBgJcT4GbWfUEl/l1RFGslEcYMU+6dZfPKFIxtnEwUAYF2uvH3gx3L56FbJDiINABWfo5nddtHIuSeSRDJQYCVA4ZGD8l0Xv/JXScMTe2FgNwKpvOdLdmOPHqULzjissZU4AADrdfNw2YRpg89w84nij7MAKn1NMh190ciGe0gifBRYCXB1/aDzZXYNSQAIyOty+8rYurm/JQoAwMYYV19zoFn0S0nbkAaACnrJvLjThXULmogibBERhO3K2wd+TGaXkQSAYLgeiqPcJymvAACb4qK6xker2rWrpN+QBoAK2taj/JXEED4KrMDl8rkbJfUkCQABaJf03danG75w8YhnXiUOAMCmOu+EhsUXjmw4wtzOktRGIgAqwvXf4+4atBdBhI1HCAM2/q6aI9yjX5EEgADuFg1SfNzYkY3/JAwAQGeYUF+7Z2yql7QdaQCogFkDvWEvvlE7XKzAClThvq27y6PrSQJApZnrntZc216UVwCAzjSmruF/PRcNl8Qj6kAleeduHu42fL5qv8kBEPC8hAjCdPW02vGSxpAEgAoqSnbJ2FFzJxAFAKBsc2eXjb9r8AWSjxN/cEfZD8BE/qvRcZpjacdL6hpeJorwcEMI0Lj6mh0lnUMSACrG9GIUxQdQXgEAyn4LMvnYUXMnuOkIl5aSSJlkd9XNO7dOjAGJ0DtyTSKGMFFghXbfcFmk6CZJVaQBoEJ+3SWu2nXMiMa/EgUAoFIuGtlwf+TFT7r0v507ABeljXd6fwUkh+m4cXfWHkYQIe4aBGXcXbVfNtdPSQJABZRcdtHYkXMnmjHWBACEYXL9tt3WWPcfyPVl0gBQDiaf17qyfZfCqc+tIY1wsAIrqJvzsH7muoYkAFTAksj90ItGzb2G8goAEJJz6l5afdGohq+YNFpSO4kA6GwuG1TVvfpCkggLBVZA2qx9vKQtSQJAme/Q/y667TGmbt7vCQMAEKqxdQ03m8WHS1pGGgA6m5kuvKJ+8GCSCAcFViAmTK/Z26WvkgSAcnKz21q7rdj30rq5z5IGACB0Y0c1/q4U5fZy6RnSANDJuuTkNxJDOHgHVgAKBUXVw2r/YtKepAGgTIqSLhw7quFaogAAJM34+gF9XPlfuvRF0gDQmcysbuyoudNIovJYgRWA6p1qT6a8AlBGS2LpEMorAEBSXVi3oKn16YYj5c77YwF0KnefOLl+224kUXk5IqisCfcO7qWS7pHUizQAdPwd9z3/xbxI0WfH1jX8nXAAAEk2c6b84buWPvTpUf2eN9kXmdsA6CR9i6pqe3jakkeJorJYgVVhcZtfLGkrkgA6kHfu5kna3vHR7XetVe17jqmbO5eDBACQFhfXzfupmw6VtJw0AHSSC6+cPnQ7YqgsCqwKuuaOmoGSziIJdCiKm87ur5J6WNzcf1nPwwtHP8fgHgCQOhePani4FOX2NPk80gDQCbpFxdJ4YqgsXuJeQVdPG3SvZEeSRMfN0BP4rwY6W9HNz7l41Dy+QQUAkHrjZgzp78X4HpP2Jw0AHS8+6KK6Rh4lrBAKrAq5alrtZyLpoQ75l1HcAHh/y9w06uJRDQ8TBQAgKwq3bN+1unv1LTIdRxoAOti/atSwe12dSkRRfrzosBI31UcOyudXttwraUvSANBJni3JDr6El7UDADJm5r3LiwfstOTu3JabbyZpLxIB0IE+utT7v/TwXUv+jyjKjxVYFTDuzkFnyOx6kgDQSZ6IpcMuqWt4mSgAAFl2Vf3gM00+hXkPgA60qK2qrZZ3y5YfL3Evs0L9sH4yu4wkAHSS37e1xQdQXgEAIF1cN/d6N31FUjtpAOggW3QpVjOnrwAKrDKr8vYrJPUnCQAdzV3/07bF1ocVTmpsJg0AANa6eFTDrS4/WrJVpAFgk8fckmLX6ePuqh1CGuXFUtoyGndX7RDFelJSnjQAdOR91Ny+M/bYuVcQBQAAHzAWr6/ZR4ruE39MBjZ+0EkEb/fAxXUNhxFD+bACq5wne6zxorwC0LGKLv8vyisAANbtorrGv+RiP0DSi6SBDZ7LsVFevdehV9xZ+1liKB9WYJXJuGm1B8j1R5IA0IFaZX7CRaPmzSAKAADWz/j6AR935R5y2SDS+HCUFsA6z49/F59u2K1QUEwanY8VWGVirvGkAKADrTDX4ZRXAABsmAvrFrwQF4sHSHriQyambBwuwLrn+dIn8sMGH08SZcsbne3qaYNHuXs9SQDoIK9bFB86dmTjP4kCAICNHKP/cufN4qrWByTtRRoA1t97apTnevUsDTnjsMZWsulcrMDqZFOnDq+Sx1eRBIAO8rzi6FOUVwAAbJqxJz65rF1VnzXpD6QBrA9je/81QNu3rMyfzvHR+SiwOtnSzVpG83w9gI7g0jO5XLz/RcfNaSANAAA2XaFu9oq2biuOcNnvSAPrRnGDdQ3U/eJC/bB+BNG5KLA60YR7B/dy6VKSANAB/mH56IAxIxpfIgoAADpO4YhXVvXuWTrSpV+TxvuhuKG8wXrYrErFC4mhc1FgdaLSGl0gaUuSALCJ/tGmqi9cdMycJUQBAEDHO+OwxtaiqkZIuvc//y2lDcUNsEG+feX0odsRQ+ehwOokV00fupXMzyYJAJvCpcfa2uLPFOpmLyUNAAA6T6Fudlu7quoku5fiBsBG6GpFv5wYOg8FViexuPRdST1IAsAmXEkebVfVoYWTGpvJAgCAzre2xMrX6R0rsQBgfYfvftJVdwzdjSA6BwVWJxh3V+0QuU4lCSA8npAtln7bVSsPLdTNXsFeAwCgfN5WYt1HGgA2UORRfDUxdFK4RNAJYhUk5QkCIXE2eWL2lt3Xu2f8pXPqXlrNkQsAQPm9UWKNFCUWgA0dyUufv6J+8KdJouNRYHWw8fVDdpY0iiTCQWmTpOIGku5tV37kGYc1thIFAACV87YS6wHSALAhIukKUuiUXNGRYsWXh5QrxQ2QHC79tlfP+NhC3ew20gAAoPIKdbPbumnlCEmPkAaADbDv1fWDDyGGjkWB1YGuuqNmN5eOorwBsKFc9rviyrajWXkFAEBYzql7aXV7t56HS3qMNACsr1i60p2vNO1IFFgdOQGNoivEd+4CAbNAN/2+u1Z+qXDqc2vYRwAAhKdwxKxVObUfLmkWaQBYT8OvumvwkcTQsbM5dICr76jdI470NzIFpzs20J+q13Q59PxTnlhJFAAAhG1cfc0WrvxMyXckDQDr4an2p+d+olBQTBSbjhVYHcQjjaMhCJGx/WeVD8LzWLvyh1FeAQCQDBfVNS5SMf9pSXNJA0jo3L28205VQwePJPWOm91jE11556BPmdmj7F4AG3B+/q1duc8W6mavIAsAAJLl6um1A+KSPSZpK9JAEvB+5Ip6plZzd66rU4koNg0rsDpiGmrR5ay4AbABnmpX7jDKKwAAkmnsiIYFJdkXJC0jjfDxzeyosKENqj2BGDYdLccmuqp+6Oek+HckAWA9zVcuOuDiEc+8ShQAACTbuPohB7r8t5K6hvj5KC6AcOYAWyzrOXT06FntRLHxWIG1yUqXkwGA9fRyLH2O8goAgHS4qG7Oo7F0rEtFVt0AWIeBi/u1fJkYNg0rsDbB1fWDD4mlB0gCwHpYbCodeFFd49NEAQBAulxVP+Q0l08lCaCDeap+l+eLUb62UDe7jR27cViBtQli6WJSALAemj3SoZRXAACk08V1c24212UkgQ7Di7vSt4zQtF3O21mFtUkRYqOs/ebB6FGSAPAhWmPpsEvr5v6BKAAASLer7hz8QzeNJolNwLOPSLf5xS23GlI4eGaRKDYcK7A2lkWsvgLwoUMwk3+d8goAgGwYZHO/Jem+jR85sAEpNzD/+qvHEsPGocDaCFffVfNJkz5HEgDWPQj1cy+qa/g5QQAAkA11dSpVddGJcv2L8gbA+zJdXCjQxWwMQtsIcZy7TDx+CWBd3K+9+NiGKQQBAEC2jDlqbksx1hclvUgaAN7H0NyQIV8ihg1HgbWBrrhj0FBJR5IEgA9i0p3tzzRcQBIAAGRT4fi5r5hHh0lqIg0A75kvmF/qzqKYDUWBtaGBRdEl5AZURkJe3TCzZ8/SlwsFxewxAACy6+LjnnnKTcdJ4mXNAN5t1yunDf4CMWwYipgNcHX9sBpJvHANZcf7PBPzWoin8mr/0hmHNbZy1AIAgEvr5v7WTWeQBIB3MxdfDLeBKLA2QOzFMZJyJFFeFDdIiMUel750Yd0CHhUAAABvubRu7g/M9QOSAPAu+19556BPEcP6o8BaTxOm12wr0ynl/JkUN5Q3SIw1kezIS49rnE8UAADg3TZv6nmmpD+QBIB3sIhVWBuAAms9tce5812qprgB8C4u09cuqpvzF6IAAADvZ/ToWe1Fy4+SvJE0ALxtJvH5y++o3YMg1g8F1noYN2NIf7m+RhLABl2MM7GZ6zuXjJr7S3Y4AABYl0Ld7KVxKf8lSS2kAeBNUWSswlrfrIhgPebh7f7fkrqTBNb/oGHLyG6uv6hu7pUc8AAAYH1cdsLTs91UJ6lEGgDemFQcecUdg4YSxIejwPoQN9xf08VN/00S6z+jZ+MwyMih/nifXqVTzNjjAABg/V1aN/e3Mr+EJACmm28+1CGLzmTvfjgKrA/R0pI7UdJHs3omUdwA72XSK6VYdWcc1thKGgAAYENdPKphgkzTSALri6lm6qebX7nqtp0+wpG+bhRYH3ahMJ1JcQPgbdaU3L9UOH7uK0QBAAA2hpm8qPx/SfY0aaxjLsbGdDM7usS5tm8Qw4dcO4ngg11155AvuPy3JAHgrYGU678uPW7uLSQBAAA21bg7htTG5n+X1Ps9Yw7iAbJmUQ9bud05dS+tJor3xwqsdU1UFZ9LCgDeZhLlFQAA6CgXHTenQa5TXHJW3ACZt8VK734SMXwwCqwPcNUdQ3eS7LMkAWAte6i45VZjyQEAAHSkS46be69ck0gCgGTnFgr0NB+EYD6Aq3SueMQSwFrPFUvx8YWDZxaJAgAAdLTB0dyxMv2OJAAuB7khQw4jhvdHgfU+CvXDPiqz40kCgKSVsdmRhRMaFhMFAADoDHV1KpXyxZMl8SUxQMaZ+Tmk8P4osN5HLi6eLqkLSQCQ7FuX1c15khwAAEBnKhwzf6GbnSCpRBpAdrl08JX1tXuSxHtRYL37xnHf8O5mGk0SACT98JJj5/yMGAAAQDlcVjfnUcmvIAkg2zy2M0nhvSiw3iW3cuXJkjYnCSDbTJpVXNV6NkkAAIByGmwNV0r6A0kAmZ6MjLry9oEfI4h3osB693ES+X+TApB5y6K81xVOfW4NUQAAgHKqq1MpKlWdIOlV0gAyq8qj3DeJ4Z34lr23GVc/5MDYfSZJAB3LE/dx/ZhLj224hz0HAAAq5bt3Dj44kn4vKUcaQCYtLq1q/Rh/VP8PVmC9TclZfYWO52xJ22PjKa8AAEClfefYuY/INZ4kgMzaPN+jehQx/AcF1huumj50K5OOJokOrgLYkCyPlbbc+jJiAAAAISh9ZKuCpL+QBJDV+XT0LVL4DwqsN8RFHy2pqmMOMjbKGyTQcstHJxUOnlkkCgAAEILCwTOLpbyfJKmFNIAMct/rytsH704Qa1FgSZo6dXiV5F+jtAGyy8y/ccmIZ54nCQAAEJLCiIYFLp1FEkA2eSRedfQGCixJizZrOUbSNiQBZJNJ37+kruFOkgAAACG67Ni5P5FUTxJAJh03bsaQ/sRAgSVJchnPlQJZZT67u608jyAAAEDI8sXqb0h6kSSAZNqEp7y6Fdt1KglSYOny23YcJtf+HApAJq2JinbCOXUvrSYKAAAQsrEnPrlM8v+SFJMGkob3Q29qgH56fb1yWT+OMl9gRbnS6ZKMSwqQyVvpGRefMPcJcgAAAElw6bEND0l2PUkkaLTJxnuiO4Jpu2c06JCsx5DpAmt8/YA+Lp3M2QBk0q8uPbbhR8QAAACSpE+v4liZzw79c1LaUNygY5lHmX+Ze6YLrPa4+hRJPTgVgMxZWKoqfp0YAABA0pxxWGOrl/yrLpUoboBMOeSKO2oGZjmAbD9CGPnXOAeA7DHXaYVj5i8kCQAAkESXHT/vby5NIgkgUyK33GmZDiCrv/iV9bV7yrUL5wCQMa4fX3Lc3HsJAgAAJNlmvUrfkfQkSQCZmsx8eerU4VVZ/e2zuwIr1lc5+IHMebZULJ1DDAAAIOnOOKyxVXHpy5LaSQPICvvIwr4tX8zqb5/JAmty/bbd3KyOgx/IlNjNTi2c1NhMFAAAIA0uO77xn+66hiSA7HDL7mKcTBZYq7xnnaS+HPpAlq70uvayujmPEgQAAEjVECfKXy4eJQQydNLboVfW126TxV89yub+dh4fBLJlbml162XEAAAA0qZQN7stMv+apBJpAJ0gvK/5zHlsX8nirshcgTXujiG1cu3PWQhkRmzmXyuc+twaogAAAGl0SV3D/7r8+ySBDudsge6WrxYK2etzMvcLF9euvjKuREBG7rlu111S1/AYSQAAgDTr3tp1rKRnSaLjGgI2DoOA7ZCrHXxQ1n7pTBVYhUcOypt0Msc6kJl797Pd2qp5dBAAAKTe+ac8sdLdv5X1wR/FDTIzT4uy9zL3TBVY+ddf/aKkrTjUwb07E/fuOFL8lfNPeWIlRzMAAMiC7xzX8IC5plHcAJkwonBb7eZZ+oUzVWDFGf66yQ1FcYPkH8P+vUuOnfdHkgAAAFlSivJnSFpGEkDqdclF0fFZ+oUzU2BdNX3oViYduu4JLxvlDVLiObeqi4gBAABkTaFu9muSX0ASQBb417L022amwIpL8Uku5SltgPQz+bcKdbNXkAQAAMiieE7DT+T6C0kA6ebSLlfePnj3rPy+WXqE8CQObyAT6i89tuF+YgAAAFlVKCiWSt+SVCININ1Klp2uIxMFVqG+Zkd37cKhDaRec2R+DjEAAICsu+z4xn+62Q9JAth0Qb/+x3R84ZGD8lnYD5kosMxzp3DKAVm4s/jYS+oaXiYIAAAAyduLF8n0Kklgo48htvBfN+Ta0l5/5XNZOB5TX2C5y0w6lksPkHp/HxI1TCUGAACAtQonNTYrNr7YZqN7ATYkhZ2Yid8y7b/gFbcPOcgjf4QDGki1ouLSnpcd3/hPogAAAPgPd9kVdwx+RKYD1/t/Q2xA0qzyKP+RtH+RVfpXYEV+Iscysjlayc7m7tdTXgEAALyXmTx2neFSkVU3yOhZkIWtu5Xio9O+J1NdYBVu2b6rpJGcsBnEet8sec2L8eUc9AAAAB8wLzph7hMu3UwSWWRsmdnV6V+8k+oCK9ejy+GS+mbmgKW04c9GWeR2buGkxmaCAAAAWNfML3+ppKUZmcmzZa28gSR9tlA/7KOpvoylel4b60RKGyDVHr/0uDm3EwMAAMC6FepmL5XZOEobILVyVoqPT/MvmNoC6+pf7ryZpEM5hoHUiiPXWWbUtwAAAOvDLXejpAaSAFIq5Y8RprbAKuba6yR14QgGUuuHlxw/9x/EAAAAsH4KdbPbJL+AJIDUGn75bTsOS+svl9oCK5ZO4NgFUsq1JF77HgcAAABsgO8cN/deyR8mCSClU6XIU/sYYSoLrKt+PnQrk+/PoQuk9sp1SaFu9lKCAAAA2IgJbqxzJJVIAkjlGU6BlSRxvnSMUv6CeiCrTHpiiM39EUkAAABsnMIJc5+Q/KckAaTSgMvrhwxP4y+WypLHZaM4ZpF1af2yzZLs/Lo6/mIIAACwSWNF12WSVpEEkD5xrJFp/L1SV2BdddtOH5GJxwezfkNmS6sHCsfN+R1HOAAAwKYpHD/3FZnfSBJA+phUl8bfK3UFVhy1HyMpl+WDlfIGKVVyRXxrDgAAQEfNG6q7jZdrCUkAqTPg8tt3/GTafqnUFVhuGkl5A6SFvX37n8JxzzxFJgAAAB2jcPS/lst8AkkA6RNHceoeI0xVgVW4rXZzd32KQxXpYGz/sSLfbt/lmAAAAOhYvrr1RkkvkASQstmkK3XvBk9VgRVF0TGS8hyqqTjd2PCfo8F8wsUnP/MqSQAAAHSswqnPrZG8QBJA6gy6/I7aT6TpF0rZI4Q+IuHTdDbKG7zXy3H3npOJAQAAoHMMjebeKulpkkAaZfn1QrHnUvUYYWoKrKt/ufNmLjuI0gZInSsKR8ziK54BAAA6SV2dSmbO6xpShi/34h3RMk/VtxGmpsBqi4rHSKrmMgWkyrMe5W4hBgAAgM51ad3caZL+nZbfh+IGkCTVXl4/ZOe0/DLpeYTQNIJjE0gZ08WFutltBAEAANDJwy6Ty3QF5Q2QLnGs1DxGmIoCa3z9gD6Sf4ZDE0iVf/szc+4kBgAAgPK4rG7ODMn/RRJAqlBghaS11OUQ8fggkC5uFxcKigkCAACgPNauwop4FxaQLjsW7hhSm4ZfJB2PEJofwTEJpMrj3zn+md8QAwAAQHkVjn3mHkl/JwkgRVxHpuHXSHyBVV+vnFyHcEQCKWJ+KSEAAABUzOVEAKRpfqVULPpJfIH1tA/dT6b+HJFAWq6teug7x859hCQAAAAqo3DcnF9LmkUSQGrsW6gf1i/pv0TiCyxzP5JjEUiP2OwKUgAAAKgw9/GEAKRG3uLioUn/JdLwDizefwWkxyOFY5/5IzEAAABU2Ny5MyTNJgggHTwF3UmiC6xC/bAaSbUcikBKLqrO+xYAAACCmGsVFJtpIkkAaWGHFOqHVSf5N0h0gWVeOoqDEEiNPxeOnzOTGAAAAMLw0eU9bpP0HEkAqdDHSn5Akn+BZD9CGPP4INLJM7jJo8vY8wAAAOEYPXpWu7lNIgkgJfNM80R3KIktsAr1w/rJtB+HYApPKrYs7vS/fOf4px/m6AcAAAhsmLZm9Y9lepUkgDRMlimwKvPBS6VDJOU5HilvkHwW6bukAAAAEJ7Cqc+tkew6kgCT5VRMlgdcftuOw5J6CCS2wIrNj+R4BFLh35fVzfkdMQAAAASqvf2HkpoIogIobZgsd3SXEsWJXYWVyAKr8MhBeck+z6EHJJ+5XW3GLQkAACDY+ddJjc2S31L2H0xpA3TGeUWBVVavvbanpM048oDEW+Af/ch0YgAAAAhbvhRdJ1eR8gYovw4+rfYq1A/rl8QckvoIIauvgDQwn1g4eGaRIAAAAMJ2yYnPPC/Z3SSBcmIRXsd3uS7lVCp+OonHQzILLNPnOJWBhDMt7G0rf0YQAAAACZk8WmkiKZQHpQ2L8Dr3+LJEdiqJK7AKv6jpLWkPDjkg4WJdf07dS6sJAgAAIBkuO67h75L+3PmTazagM5n0hSR+7sQVWJar+oykKg45INFWVnfRVGIAAABI3Mz3WsobINlc2q5wx5DapH3uxBVYzuODQBoGPjdfdMycJQQBAACQLLOjOfdKWkASQOIl7t3iESEDKLNYxfgmYgAAAEieaXUqufkPSQJINvfkLQ5KVIF1Rf3gHSQfyKEGJPpS+avCiQ381Q4AACCh2krV/yNpFUkAyWWug0+bOjxRr2dKVIEVxzqEwwxIOLfrCQEAACC5xp/45DJz3UkSQJKnZeq1dd9V+yTpM0fJCth4/xWQyKvjW9tT3zluzqMEAgAAkGwli24kBSDpJ3KyXtGUmAKrvl45uQ7iCEPi8D3Abw9jihlfLgMAAJB0Vxz/9D9N+htJAAlmToHVGZ4uDdlL0mYcYQlBacP3AL/X4t65lbcTAwAAQDrEsu+RApDoafvwsfU1WyTl8ybnEULTZ5N0FFDaAO9x8zl1L60mBgAAgHRY1qe93qRFJAEkVlRVqvp0Yj5sYmJ1HUh5AyTL206LokrFH5AIAABAetx4WGOru35MEkBymZwCqyMV6odVS9qbQwtJwAK893a5Jt1XOKnxJY4OAACAlE1+Pf6R8Wd8IMHnsA5MymdNxgqsYvuekrpzaIWP0gbvJ441lRQAAADSp3BiwwKX+JZpIKlzeNPgwu2Dt07CZ01EgWWRJaIRpLwB3teCaN6c3xMDAABAOpk7jxECSebaPwkfMxEFlrsdSHkDJPVaaDcXCopJAgAAIKVaW+8yaRlBAAmds0XJeIww+AKr8MhBeTnvvwISqi1qb7uFGAAAANKrcOpzayTdRhJAMpkbBVaHeP313d3Ui0MKSOCFUJpeOGX+QpIAAABIOfebCQF412mRkC2WdizcOnDL0PMMvsCKE/RGfADvVHJe3g4AAJAFhRPmPmGmWSQBiXdDJ/A1Q6bqquDfgxV8gWUWf4rTH0gec8294vg5fyQJAACAjIjtJ1mPgNKG90Mn9vSVDgr9MwZdYI2qV87c9uNQAhIo0k9l3L8AAAAyIx/d4VIrxQ2QQK7gFw8FXWANKw3+pEt9OJKAxInbPf9LYgAAAMiOQt3spZL9liSARNpl7M+G9A/5AwZdYMUJeRM+gHcy2YNXHf/UiyQBAACQLZHiX5ACkMxpXFUXD/o9WEEXWJHZARxDQPLE0s9IAQAAIHuW9CndJ2kZSQAJFPgioqALLJfvwxEEJItJy6I1q+8lCQAAgOy58bDGVpOmkQSQSEEvIgq2wLrkjpqBkrbk+AGSxc1vL5z63BqSAAAAyCaLjHehAsn0icJ9w7uH+uGicD9Ybm+OHSB5YvlPSQEAACC7CnXP/EnSsyQBJE6VWlp2C/XDBVtgmdueHDtAwrievuK4hr8TBAAAQIaZ3KTbCQJInpJFwS4mCrfAknj/FZAwHvltpAAAAIDY4npSABJpr1A/WJAFVuGW7bu69AmOGyBhA5VSxEAFAAAAuuK4hn9L9gxJAMli0r6hfrYwV2B17bqbpGoOHaD8fOO3v1154jPzSBAAAABvTISnkwKQOFtffPtOHwvxg4VZYJl4gTsqwtk24bx13nMAAACAtw0P42mkACRPztqD7GSCLLDcbS8OmTJnzrZp5Q3iUuR3EQMAAADeVDhh7hM8RggkUZidTKAvcfeytX2UNhQ36JAz6ZGr6hpeJgcAAAC8U8wfOYHETe/ECqz1cdHPh27l0scpboAkiXh8EAAAAO+dB5eMxwiB5BleqB8W3HvJgyuwqnPi8UEgWdra4vwMYgAAAMC7XXHSnCclzSEJIFG6luL2T4T2oYIrsGKLeYE7kCj28PgTn1xGDgAAAHjf0aLrHlJA0mT+NUNu+4S2T6LwDhLbg1MFSNCF3ZwBCQAAAD6QRXYvKSRofM/2wa8bylIAcXgvco8CO1PMpF25ZACJEeei3K+IAQAAAB9ozjP/K+nV0D8mpQ3FTVgv0bbKbhbtFto5aiF9mMLtQ7aPpWe5wgOJ8ejlx885iBgAAACwLpfePmSqpNMS98H55q8KMCIIQ5zLR30KdbNXhPKBosCO0904RoAk3Vv8bkIAAADAh/HY7mXFzfpNitkQiKhULO0c1AcK6qLm9kmOESA545AoylNgAQAA4EM1bdb+sKSWdf9TlDdAWMLqaMIqsOQUWEBy/KNQN/sFYgAAAMCHufGwxlYp+h3lDZAoFFjrsCvHB5AQLlZfAQAAYL2ZOd9GCCQLBdb7Kdw6cEtJ23B8AMkQ5XMMQAAAALD+40cvPSApJgkgMXYu1A+rDuYaEkws+TwvcAeS4/lC3eyniQEAAADrq3BCw2K5zyIJIDGqS7GGhvJhgimwYvECdyApTLqPFAAAALDhA8noAUIAEqRUCqarCWcFllFgAYkZd7j/hhQAAACwoWKLHyQFIFEosN6LbyAEEmKlWltnEgMAAAA2VENuzt8kLSUJICECWmwURIFV+EVNb0kDODKATePl2R4unPrcGtIGAADAhppWp5Kkh0gCSIxPFAphdEdhrMCKol0U1GowJJGzlSUcd93P0QYAAICNZbLfkgKQGL2Lg4YODOGD5EP4ECWznYyDYqM5ERBOGRPNx0XefwUAAICNFlnpwZJHLolpIJCMaeDOkuZV/NoRQhRmtuNGRcj2wf0MwVSgvLLUby57snBS40tcwAEAALCxCsfPfcWlJ0kCSAobFsKnCGIFlrs6LgxW3FTiYCaCjIhkvycFAAAAbPq4Uo+4tAtJAAmY8Zt2DOFzhPHeKdeOyVxxI2Vh1c2Hb8iKWMYLNwEAANABc0B7hBCATj7NOm6jwJKkC3+582aSfZTyBghe25pi7k/EAAAAgE3VWrVmpqQSSaCj8SadTlnfM7jwyEEVf4Kv4gVWzuJhnGJAIvx50ilPrCQGAAAAbKoJdQuaTPonSXQsSht0ki7Fl16t+DcRVrzAMjkFFpAEpocJAQAAAB3FpT904L+LjUMKnSmq/Ivco8p/AB/KkQAkAS9wBwAAQMdxRY9Q3AAJOV8jq/h7sCpeYIXyMjAA67R8Tu7pfxADAAAAOkq+V9c/SmojCSB85qLAEgUWkAQzp9Xxkk0AAAB0nMIRs1bJ7O8kASRCth8hHFM/oI+kbTgOgLC5ayYpAAAAoKOZi2+5BpKh4t9EWNECK1+q5gXuQALkcwwsAAAA0PE8jh8nBSARKv5NhBUtsCI3Hh8Ewtc8O3rm38QAAACAjla0qsclxSQBhM/zUUU7nIoWWCYbwiEABH+Z+jPvvwIAAEBnGH/ik8skzSUJIBEq+hRdRQssN69h/wNhc+mPpAAAAIBOHG/yGCGQAOaqaIdT2W8hrPAvD2A9LlKxU2ABAACg8yal7hRYQCImh5bRAstlkgZwBABBW5Nrb51FDAAAAOjEqSEFFpCIk7WyT9FZpX5w4Re7bFuK2l/kCADefvMOzqNXnvDMQewZIDmWXzN0N8/32ZkkEJrIvdS7ZUW9FWa3kQaAd7vktqGvSvooSQBha1sd977mq3NbKvGz85X6pUtR28AK9mcIiBNByB4jAiBZ4qZFx0e98udZ1z6EgeC09Ol9qhcO+qIVZq4hDQBvZ6a/uesokgDClu+aHyjpX5X42RV7hNDceP+V1pY3Wd8Q8kzY/0oIQNLO21hx86vy1cvJAuGNeyz36aa+a+5/cfI+3UgDwDuuD66/kwIQviiq3LvMK1ZgxWYDKW+AwOfBUZ6BBJDQWcDaEmsZWSA4pvzBvUyUWADeNTN1xp1AIoaZpewVWGbOCiwg5AuT9Ny4E556nSSA5IqbX5OvWkoQCI5Z7qA+Zg9QYgF4Uz7K/UP8jR9Iwl18YKV+csUKLHdRYAEhX5ZcfyMFIPniltcpsRAkt+jA3mYPvjbx8z1IA0ChbvZSlz1LEkDoT5FlsMCSNJDDEgh5YuH/SwpAOsQtr8tXLiYIhMeiA7rlWx5eNGG/XoQBwJzHCMFrhsJfhujZeoSwcOsuW0rqzakJhCuKnRVYQIrEKxYpXrmIIBDgjDW3V3V1/NCSG/ZibAhk/nqQ3QKL0ob3RCfItmfXb1uRVwBUpMBqr2rj8UEgbMXVcZd/EQOQssHxisWKVywkCAQ4ac3tmS9FlFhAxpWkf1DaAOHftXsWew+oxA+u0COExuODQNienHTKEyuJAUgfX7mEEguBDodze+Tj/MNLxw/vQxhANnXJ52ZJKpEEEPh40irT6VSmwHLfgV0OBHxBkmaRApDic5wSC8Gy3XNdu1JiARlVqJu9QlIjSQChi7NTYJnZx9nhQLgi6Z+kAKSbr1yiuPk1gkCAbHjUpcsflk3ZtS9ZABm8Akj/JgXgwwZyld3cVZFOpzIrsGJ9jCMOCFds/i9SADIw9lm9jBILYU5gLdrN1P2PzZOGb04aQMbuTaYnSQHrPkjYAjhRK9LpVKbAMgosIGBxVS73BDEAGRkDrl6muPlVgkBwzKKd43yXR1pu+OQWpAFk6NxXxDj0A2/abLzxPpiDMUMFlrQtOxwI1rw33j8AICtDkNXLFTe9zKgQIU5kd4pL3SixgAwpqvT+BRbFDRDQ4DEjjxAWbtm1r6Re7HEg2IvRvwgByOCpv6ZZcdMrjJARHouGxXH3mS0Td9mSMID0G3/cnOflWk55A4R8b9ZHvn1/TZdy/9iyF1ilqjU8PgiEPInl/VdAds//Nc2Kl7MSC0GOlHeM8z1nrrhqp4+QBZD6ibFLeooggLDP1D6Lc1uX+4eWvcByMwosIOgxQ+5fpABkl7e2KF7+kiixEN4NKhpa6tGbEgvIxM1IvAcLCP00zUVl73bKXmCZnPdfAQGLSzFfXQxkfUDSuoISC4GKhpR69Hl8yYS9GE8CKWaRUWABoY8Xzcr+HqwoC78k0OnHdXq2JeNOfoavIwOwtsRa9qLkMWEgtKntwHx1/tEl1+7Bqn4grfcg92dIAQhcHKd/BZYkBhtpu8GwpWdKID3NEQ3gret720rFyymxEOINywbko+qZS8cP5w+jQApVlarmkAIQ/L04/QWWKx3vwKK04QtB0iiWU2ABeOf9rm0VJRZCHTgPyFV3pcQCUqhwyhMLJS0lCSDg23AFFieVfwWW+ccobYAwRW4s1wbwHt62SvGyFyixEOCNy3bIdeny6Oqb9t2OMIDUTY7nkgIQ8knqKS+wXCbXNuxpIFA53jcA4ANu4e2rFS97XvISYSCwAXS0fWu7UWIBabvvyHmMEAj6JE35I4SFacM2k9SNPQ0Eeg3yPAUWgA++RrSvUbyUEgvhMbPtWtv1eNP1ew0iDSA1k2MKLCT38M3G1q8wdXj3cuZa1gKrGNtHOJTBFSzYrfmq4556iZ0FYJ2Xs2Lr2hIrLhIGgmIWbSPPz2y+ac9a0gBScVLzCCFTHl45FLg1vVduWc6fV+ZHCIsUWFzJuIKFuptcz8h4xRuA9bmdt6q0jBILQc54t/Zi1SPN1+03mCyAhJ/NcSlRK7CY8iCT56misnY8ZS2wPI62oLjhSoZALz6RWKYNYP0V29aWWKV2skBod7StXXqk+cZ9hpAFkFz5bbea71IbUx4gXJHH6V2BZaaPUtwAgXJrIAQAG6TYptKyFyixECDbSqXoD5RYQHIVDp5ZlPQCSQABTyFlKV6B5b4luxgI9erj8wkBwAYrvbkSq40sENqgeiuVoj+0TNl7KGkAyWTSAlIAgpbeAksyCiwgVLmYAgvAxim1v7ESixILYXHZVrHl/rjsmj12JQ0ggeew+7OkAAR9jqb4Je5yXuIOhDr/jKspsABswkWEEguhss2j6qqHKLGAJJ6+RoEFhH2SpnkFliiwgDAtG3/ik8uIAcAmKbWrtPR5ebGVLBCYqH9UXfXQsqt3/yRZAAmaGst4hBAI+xxN8wosHiEEQuTyRlIA0CHiouJlL8iLa8gCgYn6R92rf7980l7DyQJIhpJiCiwg7Jlkmldg8QghEOSQXsbjgwA6zpslVvtqskBg4+yov1XlHlw+Yc/dCQMIX9e2roxRgbClcwVWYerw7pJ6sH+BEAf0YnAAoGPFJcXLX6TEQoD3vKi/dck/2DRpjz0IAwhb4dR/LZe0nCSAYPU/berwqnL9sLIVWMVuK1h9BYQ6z+T9AgA65eLyZom1iiwQmKif56sfap6y935kAQSPcSoQLtu8+6rNy3b3LtcP8iiiwALC9TwRAOgUcUnxshflbZRYCGzELesdK/fA0kl77U8aQNBeJAIgXCVFZXuMsHwFVk792bUIkbMp8tJLHAkAOu9CG69diUWJhcCYWa8ol79/6eQ9DyANINjB+suEAIQrl4vTV2BZrH7s2tDuBWzOYSBJWuNdKLAAdPJN580SayVZIChm1iuyqt8sm7THp0gDCPD2YUaBBYR9J92sXD+pfAWWWd+gLoRswJuWTjrlCWaUAMpw832jxGpdQRYIa+ht1ivKV/962ZS9DyINILDzU84fWoGQz1GP+5brZ5WtwIrd+1LeACEO2p33CgAoH3fFTS/JW1vIAqHdEXtFlv/Vsmv3OpgsgJDuG6zAAkIWe/kWK5WtwJJZH3YtEOCYIDb+qgWgzBceV9z0MiUWQtTLcvnfNE3e5xCiAMLAu1qBMg/TNnCTedm6nvI9Qujel0MBCJDxzS4AKjE6eqPEWtNEFgjstmjdPIpmNE3Z+1DSACqPd7WibEMTto16Ws3SuALLFdY7sAC8NVJnUACgQiNFV9z8KiUWArw1WjdZbkbTtXsdRhpAZb3xrtblJNHZ83W2jrqDZG1zS2WB5TxCCIQ5geS9AgAqeQ1aW2KtZm6C0FhX5fLTm6/d53CyACperrzcif9uto65ZrLJsnp+pvBbCKW+XHqBIL1KBAAqO/J5s8RaRhYIjHX1XDRt6cS9jyALoKLn4kKKG4obBHp2Ko0vcafAAoIUR9FCUgAQxPWo+TX5qqUEgdCG5l3z1bn6ZdfufSRZABXiWkRxAwR6lyzj+84psICMy7UVKbAABCNueZ0SC+HNnd26RrnctOWT964jDaAiM+RFhAAEeo+08nU95SyweAcWEOD1pqpbFQMCAEGJW16Xr1xMEAhtBl1tUf4Xy6/d+1iyAMo8YJUxXgXCvT/2LddPKkuBVagf1lNSFTsWCM6yQt3sNmIAEJp4xSLFK5mvIDhVlsv/vGnSPscTBVDO+TErsIBwebdv31/TpRw/qSwF1qq2XF92KhDkaIDHBwGEOxxasVjxCi5TCE6V8rmfNU3e5wSiAMp1Q2AFFhCyXsu79i3HzylLgZVTqTe7FAgQf80CEPqcZeUSSiyEqEpR7mdNk/Y+kSiAMogjxqxAyOO1qFiWV0aVpcByqQe7FAjyUvM6GQAI/kpFiYUw5ZXP/7Tpun1PIgqgc5k5NwEg2IGaZKVc93L8qPKswLK4G3sVCPFiw3JsAAm5XK1corj5NYJAaPIu+1nzlP2+RhRA52mPc3yzBwIcnLDJ10ZhsaWnwCpZ1J2jGwiPSUtIAUBixomrl1FiIcB7qUWxaWrLlH1PIw2gczSvrlpGCqHdlNnwH6WolKIVWDErsIAQ7x2xrIkEASTqmrd6meLmVwkCQTFZVDL7Qcu1+4wmDaDj3Tx6VrukVYkffFPeIKVyFpWl8ylLgSUzVmCBe0eA9w43X86RBCBx1//VyxU3vcwIGkExWVTKRd9fPnnvb5AG0CmD/yaKGyBMpThOzwosN2cFVodfv9k6ariZ5c3iaDlnE4BE3gfXNCtueoXZBIJiskhR/ntNk/f9b9IAOvr8EuNWIFBRmlZgmXfMCixKm44qb4ztrS3jE0CLGQgASO41bE2z4uWsxEJwk+xIueimZZP3Opc0gI4TS7z6Agj1/PQUrcAqybux4obSBiHO/iIGAgCSfRlrbVG8/CVRYiGsA1MW5aomLp+45/mEAXTYLG45KQCBnp+Wom8hjGTdKG+A8ORZgQUgDV1B6wpKLAR4YMqsunpC82RKLKCDpsj84RX40FtPhbbY0vMIYey8xB0IUamqfTkpAEjFgK11heJlL0oeEwZCmkmY56onLL927zGEAWwac6fAwodcctkqeIKm6B1YvMQdCFIXdWEgACA9A9e2lYqXU2IhuBmVWT5/9fJr9xpLGMAmnEpmy0nh/S4xbHxBZBB6lOOHlOlbCMUKLCA8bYW62W3EACBVA/m2VYqXvUCJhdBmmGb5qquWT97zIsIANtrK955abEAg97mu5fgxifoWQgAdahURAEjlGKp9NSUWQhzcm0XVVzVdu/eVhAFsxCnk8WrKGyBQZVq0VJ4CSzxCCARoNREASO1Ep3214mXPS14iDIQll7+4efLeVxEEsMFTV8auQKjjLnl6CiyXqtilQDBXl7VbzAosACm/3LWvUbyUEgsBHptR/qLma/caRxLA+rMopsACQj0/3crS+URl+n1y7FJUfrTI9o611sYKLAAZuPQXW9eWWHGRMBDWsZmrGts8Ze/xJAGsn9hZgQUErCydDwVWZkZJbHgPVmAByMYtsNiq0jJKLAR4bFp+TPOUvSeQBPDhTKzAAsI9QT1fjh8TpemXee+ogI3yBusYNTMIAJAdxba1JVapnSwQ2O04f0HT5L1vJAngw04WVmABwZ6eshStwIotR2kDhDZgdlZgAciWYptKy16gxEJ4ovzplFjAulmuRIEFhHp+ytNTYHmZfhkAG3SRYRAAIHtKb67EaiMLhCXKn940ZZ+bCAL4gMu35xi7AuHOLtP0DiyL2KFAcFqJAEA2Z0Htb6zEosRCcOP/bzVN2fv7BAG8V95sDSkAwd7A0vMOLKvUO7AArOv0523GALKLEgvhzgG+2TR57x8QBPCuy7biEikAgd660vQIoWLjEULgfVT23f7OIABAxmdD7SotfV5eZEEqAhPlv9E8ed+pBAG8feKaY+wKBDuvTdUjhLwDC+93kLNVNH83BgEAEBcVL3tBXuTJFAQ2Toqi05qm7HOrS0YagFT0ImNXINi5fZpWYBkrsP6zY9n4ksgwGCuwAGCtN0usdt4PjNBu1rmTmyfvTYkFSMopz9gVCHZuqfS8A0tSTqKwobRBWBcZVmABwFvikuLlL1JiITxR/qTmyfv8wgviS5GQaTmxAgsI+hQtxy2xHD/EpTzlDRAWj1iBBQDv8FaJtYosEJYod0Jzn30psZBp7V7F2BUIlaWqwOIRQiDAqwyDAAB4t7ikeNmL8jZKLIR2246OX0GJhQzLeztjV6Raop82i5Wml7gDCG+SFseEAADvN4KM167EosRCaLdui45v7r3vLymxkMlLc5f2IimkdN+yJf91Q2ZluS+V5YfwsmggxBsFK7AA4IMvkm+WWCvJAmGJouOa++w7wwsH5QkDmbI6n7o/vlLa8J7oFB3NZSmYy/QthGKlBxDcAJi/3gLAusdib5RYrSvIAmGx6KjmPm3TferwKsJAVrRbdY7iBgj3FC3PFLYsA0Cx0gMIbezLu+kAYD3GMK646SV5awtZILAbeXRk86qulFjIjKiqlVWHQKi3JE/TCixRYAEBzsoosABgvS6XrrjpZUosBDhjsCOaV3aZQYmFTBzu7XkKLCDUoZIZBRaAThwExKzAAoD1H5m9UWKtaSILhCWKDm9e2eUeLwyrJgykeuyaiyiwgHClp8ByCiwgvLkYK7AAYAMvnK64+VVKLIQnig5r7tObEgupZsV2Ciwg3EFSegqsqExtHIANuMTwDiwA2IiL5xsl1urlZIHAZve5Q1v69H7ACwd1JQykUi5HgQWEexNK0wosYwUWENolxliBBQAbN7B5s8RaRhYI69C03Keb+q65nxILadQeGQUWEPApWo4fUqZvIXQKLCA4rMACgE0RN78mX7WUIBDW3V35g5v6tD7w4uR9upEGUnVsl0oUWEC4UvQSd3MeIQSCG+CyAgsANlXc8jolFsK7x1vuoD5mlFhI13Ed8RJ3IFTu5XnveZkKLIvZpUBgky6JF70CQEdcT1tel69cTBAIazJh0YG9zH772sTP9yANpEHOVUUKQJjMUvQIofEOLCC8i4yrOykAQMeIVyxSvHIRQSCwCUX0qW75FQ9QYiENihGPEALh3nBS9AihO48QIn086Zs5BRYAdOR9YcVixSsWEgQCm1REB3TLt/xhyQ179SYMJFmumOP1F0C4k+MUPUIoXuKermOTzdMxoqXAAoCOvkeuXEKJhQBv+bk986XoIUosJFkpYuwKBCxNL3G31lQMStlSUtzgjROTF7sCQGeMFyixEORtP7dHPs4/vHT88D6EgSTKufciBSDMosLc0/MOLLmtorgBgrvSUWABQGddYVcuUdz8GkEgMLZ7rmvXhyixkMjrqqknKeCdBwVbKEVFrCg9BVbsvpqzCwgOy7ABoDPH1auXUWIhQLZ7rmvXh5dN2bUvWSBRRy4F1rtuMmwI6QT19DxCaGar2KNAcCiwAKCz5xerlylufpUgENpMY3ikng8v//7+m5EFEnM9VdyD0kaUN8Een1nfPD0vcTexAgsI8CrLI4QAUI7L7erlipteZsaBsJh2U1v8x5YbPrkFYSAR19KYFVhhTinYuLtL5lpRjp9TlgLLzVmBBYQ3cO1y2tThVQQBAGUYC61pVtz0CsNcBDYUiHaKS90eocRCIo7XAB8hpLgB3hStLMtPKcvFxo0VWECA+m/W1JcUAKBME501zYqXsxILobUC0bA47j6zZeIuWxIGgr6GunpS3gDBnp/pWYEV8wghEKRie1VfUgCAMg7wWlsUL3+JqQ8CYzvG+Z6UWAj7KJXxCCEQqChKUYEVWcQjhECAch71JQUAKC9vXUGJhQDbgWhonO85c8VVO32EMBDktZNvIQTCFcct5fgxZSmw5DErsIAQrzMe9yUFAKjARKx1heJlL0oeEwbCYdHQUs8+M1dOOWArwkB4F04KLCDYeWWUS9FL3CNWYAEhiiLrSwoAUKG5WNtKxcspsRDagWlDihb/acm1e3yMMBAYCiwgULk0vQPLWIEFhDlGdQosAKjodbhtleJlL1BiITA2MB9Vz6TEQlgXTPUjBCBMcZoKLI9zrMACQhye8gghAFR+Tta+mhILAQ4SbEDeqh9dOn74xwkDgRyTmxMCEOr52Z6ed2BZnhVYQJgXmqgPIQBA5a0tsZ6XvEQYCEdkO+S6dHl09U37bkcYqKTzbt2lh+TdSAIIU3vs6VmBVSrTLwMkY5YS1LYZOwQAArk9tK9RvJQSC4GxaPvWdqPEQkXlVOpPCkDAY5i4+8py/JyyFFj5qvbl7FIEVtxUbgtql/iWHJgAENB1udi6tsSKi4SBYJjZdq3terzp+r0GkQYqcgzmSluQAhCuvtv3Tc8KrCXL+ixnRMqGIA/Lj5ACAAR2bS62qrSMEguBFQgWbeOef6T5pj1rSQNlvy6Wcrz/Cgj3DrG6cPDMsgxaylJg3Tx6VrtcKylvEMQNkO1th6WxAgsAQlRsW1tildrJAuFMUWTbeLGKEgvlH7+bU2AB4SrbK6OiMv5STezXAC7+bHjnEcEKLAAIVbFNpWUvUGIhMLa1F6tmNl+332CyQPnmMBRYQMBnaEu5flI5C6zllb/wsQHv0vfbN9R0IQYACFTpzZVYbWSBgNhWLj3SfOM+Q8gCZTniJF7iDgTL07cCy+XLKW+A8FRt0ZXHCAEgZKX2N1ZiUWIhqEphK5WiP7RM2XsoWaDz55IRK7CAcKXxEUJbzn4FwlMdFymwACB0pXaVlj4vL7aSBYLhsq1iy/1x2fg9P0Ea6NRJK+/AAjqRyTdpi1K4Assr/wghgPc7NyMKLABIgrioeNkLlFgIbeKzedS16qFl1+yxK1mg08arsSiw0FnXsE0sb9KwbeoJqmXl2ltlK7DMWIEFBDkgcH2UFAAgId4qsdaQBUKaAG4eVVc9tOzq3T9JFuikyeTWhNDhoYryxnjVUEeItLh8P6psp4cvZ88CQd68tiUDAEiQN0us9tVkgZBmMP2j7tW/Xz5pr+FkgY7nHThepbR5s7ihvEGHnJ3ui8p2pynjb9XErgXSPiAAAJRFXFK8/EVKLAQ2pIj6W1XuweUT9tydMNBRzq4f1s9lPVhxA4QpMktfgeUWLWfXAkH6GBEAQAK9VWKtIguEw6P+1iX/YNOkPfYgDHSE6rZoG1IAAh6OuKXvEUK3mBVYQJgosAAgsaPGkuJlL8rbKLEQkqif56sfap6y935kgU1VVImnBYCQr/hRGh8hVG4ZuxYIEoMCAEgyj9euxKLEQkBM1ju23P1LJ+21P2lgkyasbqzAAgIWF21J2a4H5buL+UJ2LRCkvhf8eHAvYgCABHurxFpJFgiGyXpHufz9SyfveQBpYBOOI/7YCoR8jsbl63rK9y2EUZECCwhVVRUDAwBIujdLrNYVZIFwJjZmvSKr+g0lFjbh4sY4FQj4BG1q65q+FVjdP7rVQkkx+xcI8KoT8R4sAEjHBd0VN70kb20hCwTDzHrloqrfLJu8z4GkgQ0VG6+7AALWdPPoWe3l+mFlK7AKB88sSuI9WECIA8u4RIEFAGnhrrjpZUoshDba6BVF0X3Lpux9EFlgg44c19akAAQ65JAWl/PnRWX+/XiMEAhxYGA2gBQAIE0jyjdKrDV8CTSCGnH0Msvd33TdPl8gC2wA/tAKBDuP1KJy/rwyF1hGgQWEOM+RakgBANJ2cXfFza9SYiGsyY6smyu6u2nyPoeQBj5MoX5YT0l9SQIIdiKZ5hVY/jp7GNj0oZ938CbZQHIFgDQOLN8osVYvJwsENJKxbh5FM5qm7H0oaWBdVrbzR1Yg8HFGeldgmYsCC5s85PHMb51w3ZEosAAgvYPLN0osXkWKkEZ01k2Wm9E0Zd8vkgbWMX+kwAJCHmKYpbfAKvcvl7bbPMVN55Q3kCT1HfuzIf2JAQDSK25+Tb5qKUEgpPFtV5ndtXTi3keQBd53/shrLoDAWwpL9UvcX9/YWChugM5VyudYhQUAKRe3vE6JhdCmP13z1bn6ZdfufSRZ4D1HByuwgLC5l7XAypd52LTQy96ZAVivs3PtAOF/SQIAUn69b3ldkVzW/Z0Lb23AFs8oNgJCReQiXb7yH6NKPXaf9hvSwFtzY1ZgAWGfo2V+yq6sBVYc51+3KGYvA2GOEFiBBQAZEbcslHmsqMcWb/13ts/WA+RxF9JBxY5L093LX/36SX23+lE9aeANFFjAOqdwlWUqvVrOn1fml7j7Qg4xIFCmQYQAABka9K5YrHgFQzMENROryuXzv2h67RvHEQYKU4d3l7Q1SeCDLxlsldaWy71czp9X1gKrR3fnWwiBQJlrCCkAQMYG/yuXUGIhtBlpVZSzW5teO+0Ewsi2Fd1WDZDEc80feKqwoeJarz/+qbIOIspaYBXqZq+Q1MR+BoK8CQ6VM0gAgMxd/ymxEN6gpCrK5X7a9Po3TiSMDItyg95nvMomypsQJ1IZ3V4q9/fNVeCN6vYiRzgQHpN6jvn5sI+RBABkcOy9coni4mKCQEgTwiqz6KcrFlFiZfgYqKG0ScR+Ysuusnc7FSiw/CXOciBMsWlHUgCAjM5BvMXjeAlBIBgmz8dut65cdNrXSCOT+z/8F7hT3iDb0l9gmYsVWEC492AKLADI8n0gXiFKLIRVYigqeW7qykWjTyONjF2PXIMpb4Cgr9BlX5xU9gIrNgosIOBB4lBSAICMTxrjFYpLPE6IoMYnUcmjH7QsOm00aWTKMCIAAr42GyuwAFRy0sIKLACAJPeVlFgIa6IkRe657y9f9PVvkEb6nfXzoVtJ2pwkgJDHCp7+FVgWOQUWEO7gkAILAPDGwHSl4tIigkBI45Qo8vz3li8+7ZukkW455XYiBSDwa3IpCy9x9zwvcQfC1ffsn31iG2IAAEiS+yrFpYUEgXAmTFKU89xNLQu/cTpppHg/u/P4IBC4uEt7+ldgdV9VxQosIGC5qLQrKQAA3uS+mhILgR2UiiS7ofn1084njNRiBRYQtlXXntBQ9ncNlL3AKoyetUqupexvIFCmXQkBAPB2b5ZYztduIaARi1luwopFlFgpRYEFhK0iT9ZFlfihzjcRAuGOBt0/SQoAgPeM33y1nBILwQ1bchOaF44eQxRputjIxHtZgdBlp8DimwiR3ftxIrZd2VMAgPe9j/kaeel1SiyExEzR1c0Lv3EhUaTDeT/fZXtJvUgCCPnKW5lOJ8rSL4sKD3rZkmLAmPrhfThiAQDvez/3VkosBDeVMtm45QtPu4go0qDE44NA6Bddz1CBZe6ZKrAobsQQN1kHpxVXrfoE4QAAPvD24a3y0mtyxYSBYOZTOeWualk4+gqiSPiOlPgGQiBwsezlSvzcyrwDK4oWUNygsiNvtnUdnBblduUgAQCs81bqbYpLr1NiITDRJS0LT7uKHBI9TN+ZFICwWZYeIYzlC9jllbsjsHEYfPhhwovcAQDrc8N4s8QqkQUCkruoeeHoceSQWLsTARD47b9o8yvxcytSYFVZ1FiBGTkbxQ3Wk0m7kQIAYP3GWJRYCHEsE41dsXD0eJJIljfewzqIJJCZW2gyt1Jby+pnK5FXRQqs8Sc+uUyupRQ3QLCG/Xf9sJ7EAABYvxF4OyUWApwYRmNWLPrGBJJIjva21btLMpLIwvnJluCa4vkbz2hsrcQPjir4S8/ntAWCleuxJhpODACA9Z+NtCsuvSZXkSwQzmHpdkHTwq/fSBLJELml/vFBShvWl6TAvIpdIyr1g83VyH4HQhbvRQYAgA2bmRUVF1+nxEJQIuVPp8RKyCVE2p3iBgj8PPUMFlgyVmABgQ8gKLAAABuBEgvhiZQ/vWXh6JtIIvgBKC9wB0K/npplsMDiEUIg9AHE3oQAANg4RcXF1+RqJwqENO36Vsvrp32fHMJ07m21m0vaniSAwKeJHmdxBZZTYAEhM2199s8+sQ1BAEkbVUTzCAFhKL2xEosSCyGNb3LfbHl99A8IIjxxqYrVV0ACRB41VOxnV+oHt8t5BxYQ+sXJSjxGCCRMv/GLb3az75IEwkCJhQBZ9I2W10dPJYjAdkusPUgBCF57U2uXFyo2P63UD77upGdek7SS/Q+EzCmwgATqP25xQa4LSQJhKK19nNDbiALhsOi05te/cau7jDBC2SfiG7CB8D178+hZFfurVCVf4u7iPVhA4OMI7UsKQDL1G79kAiUWwhErLr1OiYWwxjlmJzcvHE2JFc64k0cIgfBV9FUVlXyJu0y2gP0PBG2Ps+v36UYMQDJRYiEsb5ZYrUSBYEQWnbRi4Td+4V6ISKNyLvjFLttK4t2rQPgaKvnDK3qhdnNeNAuErUuutYXHCIEE6zd+yQRJY0gCYXizxFpDFAiH2QkrFr5KiVXJK0Nc+hQpAAngqui7zCt7kXabyxEAhD6i8AMIAUi2flcvuUaUWAho9BuXFlJiISwWHb9iMSVWBe1PBEACLpWKs7sCS25PcwgAgV+kTBRYQAr0u3rJNTK7gCQQBkoshHhYRsevWPzaLymxKnFFMMabQBLO1XyG34HVmls9W5JzGCAZN9ZsbrG072lTh1dxBADJ12/c4omUWAjpzrq2xFpNFAjosLTjWha/NsP9NMY+ZXLhL3feTPIdSQIIXusLVTu9VMkPUNEC68aTGpslvcJxkIQhJluG9ejdbfVunAVAOlBiIbQRRlxaJPdVRIFgmNtRLYujuyixyqOt6PtVel4KYL00TqubVqrkB6j8hcI0O+xhFRtL5CCPeLEmkCL9xi2e6LLzSQKhjLbi0mJKLATF3I5sWWSsxCpH1ub7kQKQgLu1VfYbCKUACqzY9TTFDRD6xcopsICU6X/14kmUWAjoTvNGibWSKBAMU3R4yyLdTYnV6XiBO5CEa6LryUp/hooXWGZ6hkMBCN6BvAcLSJ/+Vy+e5GbnkQTC4IpLSyixENaETbkvtiyK7nEfVU0aHe/bN9R0kbQ7SQAJuEubnqj0Z6j8I4QuvokQCF+vPl3W7EkMQPr0H7f4WkosBDQ8fqPEWkEUCIbJDmtZtDklVifouln1npK6kgSSecfK2GuF4hIrsKpy0WwOfSABF2izz5ECkE6UWAhtSrC2xGohCgTDpENbFvZ/wJ/9CmVLB4oVHUAKSbxKs2XwdUOrX+y28/xKf4iKF1jjT3xymaTXuAwAgd+ozCmwgBTrP27xtS4/lyQQzMS2tFRxTImFcJjZp1t6dLvfXxzVjTQ6aDJa8kclJeZEp7ThPdEZNrvS30AohfN1pTxGCIRvzzH1w/sQA5Be/a9eOpkSC0FNFmNKLITFpINbuvSnxOogE78y+3E3O8SlFoobIGj/DuFDBFFgOe/BApIg39665kBiANKt/9VLJ7v5OSSBUKwtsZoIAsEw2UEtXfo/QInVMSaf/NSfZXaIErQSC8jcdc/syRA+RxAFlolvIgQSIRaPEQIZ0H/c0imUWAiJx8spsRDWZE52YEuX/g++9tp5PUhj01FiAaHfh/2JED5HFEgaT3FIAAkYrBkFFpAV/cctnWLys0kC4QyelyuOlxMEwhkXyQ7omVv58KJF/9WLNDbd5JOf+nMc61BRYgHBaS9VB9HZBFFg5bt3/7d4rBhIgsFn3TJke2IAsmGzq5deR4mFkHjcpDheRhAI55h07dUlrn5oyZITe5PGprvuK7Mfp8QCNvaC1Gnbqzf+1z8XhfArBlFgTaib1STpWY44IHxRLvdFUgCy420lFn9oQhjj87iZEgtBMbM9q0q9KLE6yHVfmf04jxNiw28ObJ3oiVB2cyjfQiiT/slZByRhkCYKLCBjNrt66XVy+29RYiGUeUrcrDheShAIZ3wk26Mq7vXw0qWn8Y3NHYB3Ym3IBZGN0UlnX98osN7vvPsXhwaQiJvkp/+7flhPggCypd/4xT+U7JsMExHM7ShuURwvIQiEM8lz2z1XjCixOsiHlliUNtyRUaaLWxjfQCiFtALLjBVYQDJ06dqqTxMDkD39rl48lRILIfF4BSUWghLJhueK9odly77SlzQ23VsllquF4gao0L3WnBVY7/kg+XYKLCAhzHmMEMiqflcvniq3bzB9QDAD63iF4tJigkAwIkW75du7/qn5ldM2J41NN/nkp/6siMcJgQopti9rnRPO9TUQ1xw/9xVJr3N8AJ080O+IzXW4XEaaQDb1G7/4ZkosBHVv85WUWAiM7WT56JGWV0/dgiw2HSUWULFr2Zwbz2hsDeXTRIGl8y8OEHTKwJatY1dbm7Y+66fDPsGRBWQXJRaCu9f7SsWlRQSBkCZ+Oylf/UjLa9/Ykiw23eSTn/pz7DpUlFhA+a5i7k+F9HmCKrDcKbA6JVc2dMbFLKfDSQHItn7jF9/sstFcahHOWHKV4tJCgkBAB2U0TDmjxOog131l9uOUWPj/9u47zor63v/4+zPnbGMBgcWGJpaYqKFLcnPT1WjsJSrEGJG+iz3em15+d1UENLnRYGXpYDQBKfYSC8YWC8IukKjxJiZKZxfYvqfM9/cH2BIL7Nlzzsyc1/PxmMfv8buPe/Gc98x85/t978wc5LJLsBVB+jwBuwOra1/kTnHDigJZPFtl3yIFABVTts7YVWL5pIFATLZdGyUWgrYC/KyL2fLmTeP3JYzM3TB67TO7HidsJA0gy8NXzH8+SJ8nYAVWaiXFDRCa4eyoK3478FByALCrxJooSiwE5Qq1q8RyzAgREOZ0pG9xSqwusuudWCeJEguFPbJke0vHXPzlIH3jQBVYPf/+yuvidlAgPENmyj+TFABIu0os57gTC4HhXJscJRYCtdS0I3yLP9NaP/5A0sgcJVZhn01smf+e1m7cFLTmVxfUtQRpzweA0BwNAAB4OklEQVSqwKquli9THSckEBKeziIEAG+rmNowkxILQeJcu1x6EyUWArTstk+l0vEnW+vHfII0MleYJRbFTZdcH9h251h7IXjLz+DNNFYwFANhWRnoi99bcOT+BAHgbZRYCN7UsoMSCwGrH+zQVLpkecP6yk+SRuZ2/TrhyZI1Ud5Q3PC6oS4cq8x/MWifyQteSPYnDhUUxow6EpvnpWNnsjMBvFfF1IaZTq5SlFgIyiXXdcilN8pxSCIoax7ZofF4jBKri+x8sbs+8sXulDYUN9gzaWfPB+0zBa7A8j3veQ6VqM8i2aJ09TDjMUIA/65iSsMsSiwEavrhEvLTmyixEJw5lHRILO492bbt4oNII3M7HyfUSU5qpLgBMtbS+5N9/xy0DxW4Auv6767+m6Qt0Z09sSFqh7Q7+uJ5R1SQBIB/VTGlYZZzboIosRCYi9bbJVaaLBCQxZgdnEj5T27bNvFg0sjcr0euedY5d7L4YTAgIyatqD5meSp4Y2YwV8TPU94AoREvsRh3YQH4QBVTG2ZTYiFY80xKLARsQeZ0UDypp3dsrvo0aWTuhtFrn7GPeZwQwMdcKqVAPhkXyALLOfEYIRCuEe47hADgw1BiIXjXrSQlFgLGDvDkLW/ccvFnyCJzvx655lnzVGC/Tgh05fLOvRDEzxXMO7DM50XuQLh8/Yp5gw8gBgAfpmJqw2yTGy9KLARmdp6Un94opxRZICj6mUsvb9xy4eFEkTlKLCCDS6SJAmt3pWLJF5jgAqHieS41ghgAfJTeUxrmUGIhWDP0lPzUJkosBIjtb8490bi18giyyBwlFtApG39zwdp/BnLRGcQPdeP5rzfK6RWOGyBEawCPxwgBfDxKLAQPJRaCxvY3F3u8af34I8kic5RYwB6u62QvBPWzWVA/2H/PGzDbyY3h8AHCJH34r0e98ho5APg4DT/u+x2ZWyApRhrB4F36hXZJpYWbQFxefF+Z4trREa998c3GYo4K5FNzMtm6vn7HyB+ddf9fSCNz/7VgwJecrwcl9SQN4MOZ6ee/vmDNNcG8UgeUk/+8ZBRYQIg4i50r6SqSAPBx+kzdemfDT/s6OXe7KLEQCCn5qY3y4vuqqcNLvrZlx2AyQd7nVrGiP16z9OTjf/atB1aRRmZ+PXLNs/+1YMBJlFjAR7OAvv9KCupL3CXJM17kjqgNBZHfzBmPEQLYbX0mb/2dzM6XeHYLQZGWn9ok32/nEVcEZfbYN2bFj15110lDSSNzPE4IfCxX5NlLQf1wgS2w3iz57BpJLRw/Ebr8FvzWBaNJ8Lcj/nvuwGEc7wB2164Sa6QosRAYabW3v9GeTHcQBYIxizZVFMdL/nDV0jOZY3WBX49c86xz7mRJTaQB/NuC8y9Tv7t6W1A/XmALrEUjFqWd6cWQX27YuqC8cWzvbGHgmz+akR/AnqDEQgCvZq6heZ0osRCYVYWpotjTw5PuOv1zpJG5G0avfcY5d5IosYD3r709PRnkz+cF+cOZ01PcccOG0E2xzrt02mEl5ABgT/SZvPV3zjkeJ0Rg+M5XQ/M6JdLthIFgzLCkiqJijxKri9wweu0z5ulE8Tgh8A7PUWB1mpP3R8obIHzr0NheJacRA4A9VTG14feUWAiSnSXWeiVSbYSBoCyQ+sSL7LFJy874EmFkjndiAe8XTyWfCvLnC3SB1dJe/KykBIcREC5mNpoUAHRGxdSG3ztz3xUlFoLSFzhfDS0bKLEQnHmWrGfc9ODku0//MmlkjhILeOeK99p1415dH+RPGOgCq6ZqRauklzmQgLCNfTrhh7MO70cQADqjYnLDQkosBOqytqvE6ki1EgYCwWQ9PdmDk5ac9hXSyBwlFsK11MrW01/ek0H/7l4Ids+THKJA6MQTRfHziQFAZ1FiIXAzUudrW/MGtScpsVglBmMzZz3invfA5GWnfJWdlTlKLE7JQn/NkAv4+6+kEBRYztlTnKpA+JizsaQAIBMVkxsWOufOEyUWArN4ctreskHtyRZWiqwSgzHfkvXwLH7/pLtP/hpnaOaCXGJxSiLrx5jnB757CXyBVdJR8rSkNIcTEDqHf2/ewC8SA4BMVExtWESJhSCtFp1z2t68Ue2JFlaKCARz1iOuovumLD3zaNLI3K9HrnnWOXeyk5o4JVE4A4n+9psL1v4z6B8z8AXWtVUrdsipliMKCOM4qCpSAJApSiwEzc47sTaqLdFEGAjGnMtZDzM9MHXZGSeQRuZuGL32GclOEI8TolCuayF4fFAKxTuwJCf7I4cUEMqhcMQVM/v3IQcAmaqY2rDIyX1HlFgIzPzUaUfrZkosBIZJZZItnbLk9BNJI3M3jFr9nGQnihILBcALybvHQ1FgmTkKLCCcyhTXKGIA0BUqpjTctavESpIGguDtEqs1wfoWAVk3SWXmeUumLj3tJNLIHCUWCuZ65hdRYHWZpHtSks9hBYRxJmVVcjKCANAVdpVY54kSC0GZ9FNi4Z1jITDvSipznrdk8l2nnsxeyRwlFgrAmzeMWfVGGD5oKAqs68evbTDpzxxXQCgd/l/z+x9NDAC6SsWUhruc404sBMuO1s1q6dhRsN+fX0gLFnNWakWxxZOXnHYqZ2fmKLEQccvD8kG90ETq7EmOKyCsk1qbSAoAulLF1IbFlFgIxjXu3W1H2xY1d+ygvEEgmLNSi3mLpi479TTSyNwNo1Y/53s6SRIvvkO0rmOm0HQt4Smw5D/BoQWE1re+t+DI/YkBQFeixEJWJ/TqXHHT2LZFzR3bCBCBYM5KZUV3Tbr7lOGkkblpI9c8y68TImo8cxRYXa24yHtcUprDCwilIs/FxhIDgK5WMbVhsUnnihILAdLUVq+m9gaCQDA4VxxX8e3XLD15BGFkjjuxEC22/vqRa18Py6cNTYE19burt0l6kQMMCOvcSRdWTh9WRBIAulrvKfVLKLEQNM3tDWpqrycIBGUiVhyzktsnLTvp24SRuWkj1zzrezpRlFgI/+DwWJg+rReqbM0e5QADQjo0SgeUl7WfTRIAsqH3lPolMvuWpA7SQFA0t29TYxslFgIzGyuKq3TBpKWnfYcsMsfjhPiwRU+YNvPtoTDFG6oCy/f1B84IMI6F9+Wuztl/czQAyJY+k7feL7OzRYmFAGnpoMRCoGalRXGLz7tm8WnnkUXm+HVCFj0h/0ULPxYL101CoSqweh9U8SyDA+MX41iofe7y+Z/9AjEAyBZKLARRS8c27WjbQhAIyiy9KBaPzZuy5NTvkkXm3imxnBpZ9CBkXvrVBXWbw/SBQ1VgVR+zPCXpj5Q3jF8IL3Oxy0kBQDb1mbz1fsk7S5RYCJDWjh3a0bqZIBCUxUpcFp8/ZfEZ4wkjczeMWv2cjDuxELJ1mdxDYfvMXtg+sO/0B8obINQzpnMuvX3QgeQAIJv6TNnyACUWgqY10UiJheAsXk2ePJs+ecnpE0gjc5RYCJu0bw+H7TOHrsCKO3uEQw0ItaJYyp9IDACyrc+ULQ/IfF7sjkBpTTRqW+tG/uCJQDCTZ+bdds3S0ytJI3OUWAjNuS9t63NI3xfC9rlDV2D975jVr0h6k0MOCPWIWVU5fVg3ggCQbX0mb3twV4nVThoIivZEs7ZTYiEo0zKT58m7ddKSU/kDYxe4YdTq53xfJ0lqIg38q6A8MeabHt31iqZQ8UK63/k1QiDc+paVJsYSA4Bc2FVinSVKLARIe6JZ21sosRAMZvJiFr/56qWnXEgamZs2ds2zMjtB3In1Dt4RHaxXDZmvh8J4HIWywDJzFFhAyHly/1X9xNFxkgCQC30mb3vQOcedWAiU9mSztrVsoMRCQNZY8oq84puuWXLGxaSRufc+Tkhxg4Bx5sUeDuMHD2WB5cWTj0ryOe6AEI+a0iHb/7FlOEkAyJWKqQ0PUWIhaDqSLZRYCNAEzXnxmN04eclp3yeMzPFOLATU6utH1a4L4wcPZYH1v+e9tlWmFRx3QMiZ/VBORhAAcoUSC0HUkWzRtub1ctRYCADnZLFY7Lprlpz6A9LI3A2jVj/ndr4TixILAVmD6eGwfvSwvgNLTnYfRx4QekMuX9D/m8QAIJcosRBEHalWNVBiIShrLSeLx+LXXrPsjB+RRuamjV3zrHEnFgLC0u6hsH720BZYZhRYQCQGUOf9kBQA5FrF1IaHnLkzRYmFAEmk2tTQvI4SC4HgnCxuNmXSkjN+TBqZu2HU6ucosRAALenmjmfC+uFDW2DdcH7dSklvcfwBXTFDyefmjv2vOYP+k50AINcqJjc8TImFoEmk2imxmDYFZvOdLB6zyZOWnfZT9nwXrGEpsZB39tiNl73eEdZP74U3dzmZe4ADEMxAFPqfBUmbz11YAPKiYnLDw865M0SJhQBJpNpV3/SWfBes3yxiylSYv6a2806s2KSrl5z2M87OzPFOLOS3R/EfDvPH98L84Z2zezkCmYEwA4nAOCqdefm8AYNIAkA+VExteIQSC0GbNiXSHapvXqe085k2IQDrLlnci026Ztlpk0gjc9PGrnmWEgv54KW9h0L9+UP94ct6PCaplfKGGQhCzzzp58QAIF/eU2K1kQYUkGlTMt2h+ua35Ls0OwQBWTzGfnbN0lMnk0TmeLE78mD19WNX/y3cY1CIXT/iuTZzepzyBojAQsHpnCvmDBxIEgDyZVeJdaYosRAgqXRC9c3rKLEQnAWkxX8yadmpU0gic7wTCzlecS0N/fgT9i/g82uEQFSYb44XhALIq4qpDY84404sBMvbJVbapQgDgRBT/MeTlp5+LUlkjhILOVtsOVFg5Vs6lbhX3FcFZFUOn2wdcdn8QQNIHEA+VUxu+AMlFoImlU6ovmmd0n6SMBAIMfN+eM2y068jicxRYiEHK7o3bhi9tjbs3yL0BdZN415d72SrOCCRldOcLdftsCff/zFHHoB8q5jc8AfzvRMltZAGgiLtJ3feiUWJhcAsJr0fTF586o0kkTlKLGT5bF0qC/+NP14UdoWZz2OEWUBxg7ycz9K5l88adDhJAMi33tdu+aP53smixEKApP0UJRaCNXeLxS+5ZtkZN5FE5m4Ytfo5fp0QWbIsCl8iGgWW1GUFFqUN5Q3yLqaYX00MAILgPSVWM2kgKNJ+Slub3lKKEguBWVTaxdcsO+Nmksgcv06ILNi8vtsRz0RjrImAvf6+9iUnraO0ASJjxPfm9B9CDACCYFeJdYoosRAgvkurvuktJdMJwkBAFpZ20aRlp99KEpnjTix0JSfds2jEokj8lG0kCqzqavlR+ElIAO+OTc7samIAEBS9r93yR4k7sRAsvkuroXkdJRYCIyZv4jVLTruNJDLHnVjosoWV2ZLIfJeofBFztphDE4iUUy+dP/DrxAAgKPpM2fIUJRaCZmeJ9ZaS6Q7CQDAWmF6satLS0+bLyUgjM7zYPXhC+Gqgpu1+0xORGV+i8kV6/WPNHyVt5JQCIjQB8t0kUgAQJJRYCCLf+bvuxKLEQjDELDbyGkqsLhGEEov3Q4f6lUP3zx3zRntk1odR+SLV1fLldDdDHBApX7l8fv8TiAFAkPSZsuUp+f5JosRCgLxdYiXS7YSBYCw0vdj51yw7bX51dXTWnPnydonlpEZKG+yhSL1qKWqDCY8RApGbkds1/PUOQND0uXbb05RYCNwl0/lqaF6vRKqNMBCMxabFzi8acsYCSqzM3TBq9XMejxNiz3S4ePtDkRpTovRl2hIlyyXVc5wCkTLs8rkDzyEGAEHznhKriTQQFM75amjZQIkVahapzZN3XvHQM2+nxMocJRb2cCh57MbzX4/UsRKpQaSmakVS0j0cqUDUBl937aXTDishCABBs6vEOlmUWAiQt0usjlRr6FZbbNG86dycfad4yBm/pcTKHCUWdv+805KofafIDSDGY4RAFB3i9Sy5iBgABFGfa7c9LXEnFrpoJttFm3NO25o3qiPVJoobdFbXvkfJO7do8JlLqp+ojpNsZiixsBvSHZ53b9S+VOQKrHRj+6OSdnC8ApGb1P/8ipn9+5ADgCDqM2XbM5RYkbvuKOwFjpPTtuYNak+2sDv3ODu2bLy828zOKNq2cvH06ZVFHGWZocTCx4xhT912Qd3mqH2vyBVYN172eoekezlkgeitD9Mx/YwYAAR2kKLEosEI4Oac0/bmjWpPtBTS1+ZX1wLMPO/0rftspsTqApRY+DCec3dE8ntFclB0xmOEQBTPbbNLLptz5KdJAkBQ9Zmy7RnnuRNFiRV6USpjfDlta9mo1kQTxQ2CMqc7bcvem5dQYmWOEgsfIJHy0kui+MUiWWBtV9NDTByBSCo2L3YNMQAIsoprGp6lxELQODntaNmstgSHJQKyEPXs1K17b1pavXB4MWlkhhIL7x/w3YM3j3qlPpLjRhS/1Nwxb7TLHI8RAtGcgZ9z2ewBXyIIAEH2nhKLxQQCdAndWWK1dnBYIhjM806JFyUosboAJRbePa/szqh+t8j+jKk5u4NDF4jm6W2epvEzzACCbleJdRKLCQSJk9OO1s1q7eA3jxCQBal5JxcXJR+onnN0KWlkhhILkpra2ksiezNPZBeAvQ7q+7CkzRy/KOxJamS3YfUHDRjNHgYQdBXXNDzrxJ1YCJ4drVvU0k6JhYAw+0bxXr3up8TKHCVWwa//ltZUrWiN6veLbIFVfczylJzu4hAu6JOXX9CJMM805XtzhvTiSAcQdBVTGp6jxEIQNbZRYiFQk7tji/fa68ErFn6xjDAyQ4lVwKeR5yL9JFqkH8FxTr8t1AOX8gYFcIzv4yz9PyQBIAwqpjQ85zk7VtI20kCQNLZtUXM7hyUCs/o+um/RvpRYXYASqyBt6f2JvR+L9BAR5S83bcya55z0N8obIJqc3CWXzBk4kCQAhEGvqVtXeM6OFyUWAqaprV7NbQ0EgUAws6/3Ld7noV8+PLKcNDJDiRXIIzx7m9nvqo9Znopyel7Ejw0n6U5OEiCy4jFPNxADgLCgxEJQNbU3qKmtniAQkGWc97VEa9ODlFiZC0aJZWzvbNnj/Oj/kF3kf8XLd3Y7wxYQXc65Yy+f2/9skgAQFu8psbjlBYHS3L5NjW1bCQKBYGZfTbQ2PVZ9+0k9SSMz75ZY1hi10uaDFwgFuf3fjaPrno/6sRz5AuumMatfkWwlwxYQXU726+/PH8Rf6ACERq+pW1d4RomF4Glp306JhcAwsy/Eu5X8gRIrcztLLJ0op8ZCfJ9O5Psr0527nkCLNK8wTld3B0MWEGmfTPh+NTEACJNek7e+TImFIGpp364drVsIAsFYsHr2H0XdSh6duvC4vUgjMzeMWv1c2tOJTmrkHdHR4sv7XUGMB4XwJf108g5JaYYsINK+d+m8zw4lBgBhQomFoGrt2KEdLZsJAoFgnn0+XVxOidUFbh61+jnfEy92jxKnlTePrl1bCF+1IAqsm8a9ul7SHzmygUiLm/OmV1cXyp2lAKKCEgtB1ZpopMRCYJi8z/lF3R+rXnp0L9LIzM2jVj9npmPFD4pE5NwonCfOCmah55x4mTsQfZ+vP3hAFTEACJtek7e+bM47TpRYCJjWRKO2t2yUnCMMBGClbsOK1IsSqwtMG716he/pFHEnVtilXbowHh+UCqjASpe7hZKaOb6BiM9rpKmXzDq8H0kACJveU7es3FVi1ZMGgqQt0aztrZsosRCMuZ7ZUUXq9dTkhSftTRqZ4U6s8HPSwzdOqHurUL5vwRRYt4xY2yxniznEgcjrGYsV/4oYAITRrhLreFFiIWDaEs3a1kKJFdEFcPheyG02wI8XP0GJlblpo1evMNPxosQKJZObVUjft6DeFWOm2RziQCFMxNx3LpvT/0SSABBGvaduWWnGnVgInvZksxoi9DihYwv1r7OZ5/V3RSXLq5d8cx/OzszwOGFoba4od/cV0hcuqALrN6NX/1HSKxznQAEwm/7DWYf3IAgAYdR78pZVlFjIlkzKjvZki+pbNso5R3GDIMz3Pltk5ZRYXYDHCUM5ms+rHrE2UUjfuOB+rctMCzjQgYLwyXavaCoxAAgrSqz88cUdNx+lI9mihpYNcjxOiEAs8HRkkZUv/+kdp+9LGJnhccJwicU0p9C+s1d4Xzg2T1Kawx3YvRlBqDezCy+dN/A49iOAsKLEQlB1JFvV0LyeEgtBmbIeWd4tRonVBSixwnLMu6dvuGDNXwrtaxdcgXX9qNp1Mj3MEY/duRKy5VjX/5nZzFfN9+cPKud4BhBW75RYZltJA0GSSLWpoXkdJRaC4ojyMu+Z6sUnHUgUmaHECgFnswrxa3uF+KXNOV7m/vEpseV8EGLLUjSHdKR0Jec0gDDrPXnLKkunKLEQOIlUu+qb3pLzfcJAAJYw9qkir+TJScu++QnCyAwlVqA1lsRsUSF+8YIssHp3072StlDcBKS8obj50PKGWLroJavmrrhkbv8vc60DEOr5y7XbaymxEETJdIfqm9dRYiEYzA6VK3uyeuFpnySMzFBiBfQQl93xqwvqWgrxuxdkgVU9Ym1CzhZw142ifNcNxQ3eN9aZ82pGzzm4lCgAhBklFoKKEguBWuCbd0i8yFtOiZW5aaNXr/A9nSKpkTQCcnwrXbBPlHmF+sVj5s0OYkNBaUN5g6z5bA/XcxIxAAi73tdur5XS36DEQtAk0x3a2vyWfJ/fS0IAFvnmHVIU956cdP9ZB5FGZm4etfo5Mx0r7sQKgtW/GbP2xUL98gVbYF0/unatk3uB0gYopJmMu+KSOQOOJggAYddn8rY6P+W+JmkjaSBIUumE6pvXUWIhIKtd72Al/CenLD3zYMLIDI8TBmQ5IzejoE/pAt/9MzkFgMIa80w259LbD+tJFADCru919X/x0zpWlFgImLdLrLSfIgzkf8VndlDauacn3/+tz5BGZnicMO/aY2n324JezBXyl+9IFP9WNMhAoTlYybLriQFAFFBiIahS6YTqm9YpnU4SBvLOPO8Al9QTlFiZ43HC/PGlxdePX9tQyBkUdIFVU7WidefL3AEUmLGXzB10NjEAiIK+19X/xZeOESUWAibtJ3feiUWJhWDo5ye0/Oq7Tz+cKDKT68cJeT/0zi3m+bMK/djzCj0AZ+5W8fopoOCYc7dcOnvo3iQBIAr6Tql/ZVeJtYE0ECRpP0WJheDM/0z7mx97YvJdpx1BGpl5+3FCJzXynuhcHLx6fdoFa5cXegwFX2DdNGb1K5Ke4IwACs4+slQNMQCIil0l1rGixELApP2Utja/pVQ6QRjIfw9g2t/F4o9f/btTjiSNzNw8avVzztOJ4p1YWeec3Syjz/M4FCRndgspAAXpzEvmDJhIDACighILQeX7adU3r6PEQjCY9vdKiv941ZJTBxNGZm4etfo5j3diZft4bU4miuYQBAXWzsneG33uluktkgAK8Xpg118+b8AgkgAQmXkNJRYCihILAZsE9o1Z0aPXLDx5CGFkZtro1Su8HL4TqwDNralasYMYKLAkSdXVy1POuZkkARSkUt+3O65Y+MUyogAQFX2n1L+SjhnvxELg+H5a9U1vKZnqIAzkn6mvKyp59Kq7Th9KGJmhxMoaJ6ebiWEnCqxd4vF0jSTeLgkUpv7plqZfEQOAKNl70tZXd5VY60kDQeI7Xw3N6yixEAhmqojFYn/4xcIzh5FGZiixssE9suu93RAF1jtuGPmXDSYtIwmgQC8NsosumztgBEkAiJJdJdaxosRCwLxbYrUTBvLPVFFaZA9X33X65wgjM5RYXXxomm4khXdRYL0vDf9WQgAKl3N228UzjzyIJABECSVWgV7TQrClna+tzevVkWxjhyEATYEq4rHYw79YfNrnCSMzlFhddky+XvHGmgcJ4l0UWO890S5Yu1zSn0kCKFi9vVh8QXX10XGiABAle0/a+mpaPE64J1zIt9Dk7Hw1tGygxEIgTmiT+pRY7NGrFp/+ZULLcG09evUKk50sqZE0Ojs+2s3V1fJJ4l0UWO9lcnLiLiygsH21/qD6ScQAIGr2nrL1NUosBHOR9naJ1UoYWQmYbY+WhGY9PfMeqF5y2lc4eDJz45i6P5nsBFFidaabaE4miuYQxPtRYP2LMpeYJ2k7SQAF7YeXzRvwLWIAEDWUWAgq53w1NG9Qe1eWWBQ34bodL0jdgVnPuGKUWF3gxjF1f/JMx4rHCffU3JqqFTuI4f0osP7FdeNebZLcDJIACnruaL5vsy+cPfBQ9iCAqHlPibWONLj4Bmlzzmlb0wa1dbRQ3CDvzKxHXLEHrlp0xldJIzO8E6sTo7jTzcTw7yiwPkDci/1GUpIkUIBzR/7o965eMdOSKxZ+sYyjGUDU7D1l62uxmEeJFdULechXbdtbNqot0cIxiLwzsx6xuN1fvfj0r5FGZiix9mgkfOSmMatfIYd/R4H1Aa4fVbvOyS0micKb7zF3xL8YnGpt+l9iABBFe03a8ldKLARzLrmzxGpNNBEGAsB6FHnefdVLzzyaLDJDibWbR5zpRlL4YBRYH8ZXpxatFDdAxCbRzi68dO6gC0gCQBRRYiGw11857WjZTImFoFQKPeLOHrjyrjNOIIvMUGJ93KGm1yveWPMgQXwwCqwPcdO4NS852TOUNwCc3M2XzBk4kCQARNF7SqxNpIGAXX93llgd/IAZAtArmMpinrf06iWnn0gamZk2evUKk50sfp3w38c9ZzdXV8sniQ9GgfVRg5T8X5MCADl1l7T0ipn9+xAGgCjaa9KWv1raO17SW6SBYF2Cnba3blZLBz/GhQCsD01lptiSKxeddhJpZObGMXV/MtkJosR6rx3JRNEcYvhwFFgfYWP5kXdL+j+SACDpU8m49/vhC4fHiAJAFO31ifv+6sz/qqQ3SAOBW9W1bqHEQiCYqSwWiy+5+q5TTyaNzNw4pu5PnulYRfxxwj14muvWmqoVDHQfgQLrIywasSgtGS9QA/D21ee4fZtfmUwQAKKq9/4PveHMP0aUWAggSiwEhZlKzStaPOmuU08jjcxMG716Rdp0vJO2Ffg7ojsS8dQ0joiPRoH1Mbr5HbMlbScJADtnLPrBxXMGnUsQAKKq9/4PveGko0WJhQDa0bpFTe28+xkBmBKaSuUVLbx68Smnk0Zmbh29eoXPi93n1oz8ywaOho9GgfUxrhv3apPMZpIEgHfnK272ZXMHDiMKAFHVu98D/6DEQlA1tdWrqa2BIBCESWGpeSWLrlxyynDSyEyBl1jpmGL/y1Hw8SiwdkPMS98oU4okAOxS5jstunjeERVEASCq3lNi/Z00EDRN7Q1qbKsnCOSdyRXHVPLb6qWnjSCNzNw6evUKf+evE0bjWeHdf85w8bQxq/7KEfDxKLB2w28uWPtP5/R7kgDwHoeYX7T00mmHlRAFgKjaVWIdI0osBFBz+zY1tm0lCOSdmSuKu6Lbr1x86rdJIzO3jqn7k2/6hpy2FcrLr3xP17Hndw8F1m5yMXeNJJ8kALzHV/0eZbcRA4Aoo8RCkDW3b6fEwvvXbXnaZK4oZsULqhefdh57ITO3jl69wvcK43FCMz1y6+jVK9jru4cCazfdcsGav8jpPpIA8L6LjjT6ktkDvk8SAKKsd78H/uErdrQosRBAze3btb11S8Hn4Nj25KaXLE0MXVHciuZeuejU73JmZqZgSixn17K3dx8F1p6MRzHvGlIA8O+Dg1178eyBZxAEgCjr0+/ef1JiIZDrP0ktHTu0rWUzxQ0CMC90RV68aO6VSyixMlUAJdaLN42te5w9vfsosPbAjaNqX5DEAQbg38ZS83T7pbP6DyYKAFH2nhLrb6SRf9xt8/7ipjXRqO0tmzkwkHcmxT0Vzb9q8RnjSSMzUS6xjLuv9nzRRQR7epBpCikA+IBVRHfneQ9MnDf4AMIAEGW7SqxjFPESiztuwqk10ahtLRvlHAkhz+tGk2fmTb9q8emVpJGZiJZY/7epx+HL2Lt7hgJrD904dvWjknuBJAB8gH5Fvr/0+/MHlRMFgCgrlBIL4dSWaNb21k2UWMi7nSVW7NarF59WRRqZuXX06hW+2cmSdkTh+zjTtYtGLEqzZ/cMBVZnDjZPU0kBKIBzvRObL32+Le0WVlcfHSdBAFH2nhLr/0gDQdOWaNa2Fkos5J+ZPFn8lqvuOn0iaWTm1jF1f/I9fUPhvxNrY6uaFrBH9xwFVifcfMGaZTKtIQlEFe/TyPjRjJM3H9RwG0cSgKjr0+/ef6ZdihILgdSebOZxQgSCmTzzYjdfedfpF5JGZiLxOKGzX88d80Y7e3PPUWB1agSSc85dRxDRRHGDLhomxl00Z+AvSAJA1FUc8MiblFgIqvZkCyUWgjE3NHmxWPymK+8642LSyEzIHyfc7pW0Tmcvdg4FVift/Y++dypiPyNNcUN5gy6eqEhXXjJ74BiSABB1lFgIsvZkixpaNlBiIQgrLi8e8268atEZ3yeLzIT4ccLrbzz/9Ub2YOdQYHVSdfXylC/7FcUNELV5RZdu5qTpF80ZdCLBAog6SiwEWUeyVfXN6ymxEISppsXi3nVX3nX6D0gjMyF8nHB7kcWmsec6jwIrA61qnC1pHUkgSldUbsHrckXm3MIL5w4cxgEGIOreKbHMXicNBE0i1ab65nWUWAjClNvisdi1Vy8540ekkZlQPU5o9ssbxqzazl7rPAqsDMwd80a7TFNIIjpXEsobZEkPz3cPXTRjwJFEASDqKg545M102qfEQiAlUu3a2vSWfOcTBvK99DDPvClXLTnjx6SRmZA8Tljf5nfcyN7KDAVWhvbu5s+Q9EbYR082jmVkm/W1mD0ycc6Qg8kCQNRVHPjgW5RYCKpkukP1TesosRCEZZjFzJt81eIzfkoamcnW44RduNy8bva4V5vYU5mhwMpQ9Yi1CfPdtRQ3AHbDgTGX/sPlMwbsSxQAoo4SC0FGiYWgcJLFPG/SlXed8TPSyMzbJZaTtgVrqey2qs2/hT2UOQqsLpBIlcySResXCQFkzWGpmD38vTlDehEFgKirOPDBt+Ix91VJfyENBE0y3aGtTW8p7acJo2BYIDcns1gsNumqJWdcwz7KzK2jV69wAXuxuzObcsvFa5vZO5mjwOoCNVUrknI2mSQA7KbBSZe+v3L6sG5EASDquu/zwMZ4XMeKEgsBlEonVN+8rgBKLGOTBX9xbrGfXrn4dNaVGQpYibUxnSi+jb3SRecIEXSNZLJonqS/kQSA3fSloqLEnZXThxURBYCoo8RCfn10qZFKJ1XfvH5XiUVxg/yKefGfXL34W1NJIjO3jl69wmQnKc+/TmhyU2qqVrSyR7oGBVYXqalakTRpEkkA2AOnFxV33FldfXScKABE3dsllpP+TBq5XT6xfbxUOqH6pnVKpZMcMsj/WevZj65afOa1JJGZm8fWPe/y++uE64u795jBnug6FFhdaFP3I+ZLepUkAOw2Z2dv+WT9b4cvHB4jDABR132fBzYWxeIhKLG486YQpfyk6pspsUIxfSqAzTzvh9V3nXkjezsz+Xyc0GSTrh/xXBt7oetQYHWhRSMWpWWOF+8B2FMj9ml5ZWZ1NWMygOjrvu89m8JRYqEQpf1UoEssx1ZQP6Iei3mXUGJlLh8llkn/9JpbZ5N+12Kx1MU2lx95h6RXSALAHs5IR28+aFCNHH8uBxB9lFjY88tk7raUn9KW5reUTCcobpB3sZh3yZVLvnUTSWQm1yWWM0268bLXO0i+a1FgdbFFIxalnewqkgCwp8y5cRfPHfhrkgBQCCixdnMRxJaX4sb309ravE7JdIKDEPlftJtdfOXiM28hiczk7MXupr+nEsVzSTwL5wIRdL19/ln3e0m1JAGgEyuV7100eyAv7QRQEN4usUy2NnjDMXfcFDrfT6ueEgtBWbh73oVXLTnjVpLIzM1j65432QnKYonlnK6uqVrBy/SycR4QQderrpZvTj8hCQCdYdIPL5496FckAaAQdN/3nk2xWOwbQSyxAN9Pq77pLSVTPAmEAMwRLTaxevGZ00kiM1n+dcJX9v1nxQJSzg4KrCy5adzqB+X0GEkA+RH+xyXcf184e8AtvBMLQCHovu89mzwveSwlFoLId/7OO7EosRAAMc+rvHLxGfOZI2YmW+/Ecr77fnX18hQJZwcFVhaZ3I/F3d/IA96VEZUxxC68aM7AW/l1QgCFoMd+j2z2vOSxktaQBoLm7RIrkWonDOR/Ee/FRl61+HRKrAy9XWKZ1NBF/+STt45fcz/JZvHYJ4LsuWncmpckLSKJ3KC04X0ZEVW16ZMDplNiASgEPfZ7ZHPMS31DlFgIoJ0l1np1pNoIA3lnsfj51UvOvJ05YmZuHb16hWRdUWI5z7nvk2h2cbBn+0In/URS1t/8SGkDRHiCIhu/+ZMDZzBBAVAIKLEQZM75amjeoI5kK2EEcgcV1hYz7zwNPHMBc8TM3Dy27uUPL7FstzaT3bnrBhZkEQd6lt06dvXfnHMzKW8AZGjs5k8OmDN84fAYUQCIOkosBLojcb4aWjYGq8Tir9kFuyiKmXeeDeJOrEztKrFOlmzH+8up3dJhaf2cFLOPgzwH/CLvSklNJAEgM3bBPs2vLBk95+BSsgAQde8psVaTBj5UnooS5/tqaNqg9kQLxQ0CsKj3vuMNOuO3lFiZuXls3fMmHduJxwlvumlC3d9JMBfHOrLutgvqNpt0PUkA6IJ5+undXM8Hxs46vAdpAIi6Hvs9sjlmjhLrQy4IbPneBU7bmjeqPdnC8Yi8M8XOtQHfWlL9RHWcNDpv551Ye/Ri9+0WS0whudygwMrVBa7N/6WkTSQBoAtGlGNKrfixi+cdUUEWAKKux/4Pbsl5iUVxg90+VCixEKDFvWdneA21i6dPrywijc57u8RyUsNuDMXX3DzqlXpSy9ExTgS5ccvFa5uduWtIAkAX+bzSRX+cOG/wAUQBIOryUmIBu+ntEqs1wRtDkH9mdvrGis2UWBm6eWzdy550vD76Tqw3Wq3xJtLKHQqsHNpa7qY76f9IAkDXTJj1WS/tL79kxqBDSANA1FFiIdjXZKcdLZspsRCMRb7nnbapYvMSSqzM7CqxTpa044P/N+wXc8e80U5SOTy2iSB3Fo1Ym/Cc+wFJAOhCh/kx99QlcwYOJAoAUfdOiWWqIw0EzTslVkcjYSDvzPNO3dR387LqhcOLSaPzbh5b97wnnaB/KbGc9PK+/6y9g4RyiwIr1yfAuDVLJf2BJAB0oQN8p2cumjXgm0QBIOp67P/gFiXsaEkrSANB4+S0vXWzWjp2EAbyzsw72YsnKbEyXcPvLLGO1XseJzS5H1VXyyed3KLAysdA4nlXSEqRBICuXNOZ2b0XzR70HaIAEHW9Drp/m5J2vCixEFA7WreopWM7QSBjmf/eg3eS4skHq+ccXUqanffed2KZ9MCtY1c/Siq5R4GVj4N/dO1ak2aTBIAunuAUS+72i2YPvII0AEQdJRaCbkfrVkqszOY1bF226PeOtZ69H6DEynAdv+udWL6vH5FGfhgR5Mels4funVbqNUm9SANAFob3afv8s+4Kbm0GEHXb/3FKbxW5RyR9rqv+zb9uaX9y9ktbv0666Ao9yyrUvbT3bv/vOyJDlvi+v3yHv+nk60c810YaCCPuwMqTG8eu3CK5a0gCyCYr4E2Xbf7koDsunXZYCccBgCjbdSfWNyW9RBrhFtU7aHa01auxrSGnd9wAH7j497yje8f3e/CKhV8sIw2E8hgmgvzZ0t1Nk9NrJAFKm6yVOIXu2+nu5Y9PnD9oH6IAEGW9Drp/m+soPl4hLrF4VCramtob1NhWz8mKIKwVvt4rtt9Dv3x4ZDlZIGwosPJo0Yi1CSf7AUlQ3lDaIItLoi95KT130YwBR5IFgCjrfciy7V1VYlHeIBua27epsW0rQSD/Kyazr7W2ND1IiYWwocDKs1vH1d0j0yNdMAyxUd4gYrpwYXSoi3nPTJw96FhSBRBl7ymxXiQNBFFz+3ZKLASCyftqa0vT49W3n9STNBAWFFgBkHbxKyRLUdwA7+JRiq5f15n08EVzBl3E0QUgynaVWN8UJRYCqrl9u3a0biEI5J3J+w8rK3mUEgthQYEVANPHrvyzk2aQBChteJQiy+LO6eaLZg/6TXU14z+A6KLEQtC1dOzQ9tbNBIG8M/M+b2Ulj/1o4XF7kQaCjgVMQKSTRf9PUkG/2ZHSBsjZuXbZxk8OWjJ21uE9SANAVL2nxHqBNBBErR2NlFgIBDPvc93i3SmxEHgUWAFRU7Viq5P7KeUNgJxMVKQzSlTyUuWcgUeQBoCo2lVinSBKLARUa0ejtrVslGM2jLzPDb1hZbEej1cvPbMXaSCoKLACZN9/rp5p0nMkASBHM5XPxJyev2jOoNMIA0BUUWIh6NoSzdresokSC/kvB8yOkm+PUWIhsMcoEQRHdbV8F/MnSkqRBoDcsJ7OaemFcwb+SI5fhAAQTb0PWbbdL03wOCECqy3RrG3N3ImFABQEZkeZs6d+svCkvUkDgTs+iSBYbh21ps5kt5EEgByKydnUC+cMurNy+rBuxAEgivr0eXTHrhLredJAELUnWyixEAgmG1AaK32CEgtBQ4EVQKlk/OeSNpIEgBz7tleUfOrimUMPIgoAUbSrxDpBlFgIqPZkixqaN1BiIe/MrH9pvHR59ZJv7kMaCAoKrACqqVqxw5n9kCQA5PrXFMzpKN/SKy6cNfAkwgcQRZRYCLqOZKsamtbLOZ8wkFcm+6y5ckosBAYFVkDdNqZ2gaQnSAIFy7Hl8Y+vFZLdf+HswVOHLxwe42AEEDWUWAi6jlTbzjuxKLGQZ2Z2pLny5T+94/R9SQP5RoEVYL5il0hKkkSBobQRd80HY74i537Ut/mVR8fPGMCEBUDkvFNiOf2JNBBEHak21TdzJxYCMCk0O7KkNPZM9eKTDiQN5BMFVoBNH7vyzzLdUDBfmNKG4gYBPC/t6LjnvXTR7AFfIgwAUdOnz6M7/LLEiZRYCKpEql1bm9bJp8RCnpnsU2aly3925xmfIA3kCwVW0AeK1vRVcnqT4gZA/iYsOtA574mJswddRhoAoqZPn0d3pEsdd2IhsJLpDtVTYkVWuJZr9qmiYo8SC3lDgRVwt1y8ttl8+x5JAMizYnP6zYWzBi8dN7N/H+IAECUVFQ82UmIhyKJYYvHgRTj/hm9mhxYV25PVC0/7JGcmco0CKwRumVC7xOSWkgSAAEw3zyy22KqLZw78GlkAiJKKigcb22Op4yT9kTSQ1StpJ7dEukNbmt5S2k9T3CCvzLxDFI89Oen+sw4iDeQSBVZIpFLFF8u0jSQABMAnfLPHL5o1qJpfKQQQJfvt90hLusSdtq4p+QZpdD3utsm8uEmlE9ravE6+n+aAQl6ZvIPTHW45JRZye9whNC6cPbBSzqaTBIDgXEXcchfzzr9tVO06wgAQFSPnDyovT+p+SV/vyn+Xu07QVeKxYlV076eYFycM5Jdz67xi75hfnLb4r4SBrC89iCBMg4PswjkDH5ezowkDQIBsdWZjbhtbex9RAIiKkfMHlXdLufuYdyGo4l6RKnr0U8wrIgzkeZnq1ks6pvqspa+RBrKJAitkquYM+bTn+7WSykgDCPKFvCAt8NrTF91y8dpmjgAAUUCJhaCLeXH17XEAJRYCMPd162Ox9LG/OOOeV0kD2UKBFUITZw3+sclNIQkE8+KFAr+o/D0tu6BmXO3TpAEgCiixEHSUWAiQDc5PHlt9zr2vEAWygZe4h9B+b/b+lUwrSCJYeCkp5RUkJx3iyT1RNXvw1OEL+xeTCICwW3BBXUtr3E6VueWkgSBK+yltaXpLqXSCMJBv+5tX9Hj1XacdQRTIBu7ACqmqWf0He4q9KCkQf2qhuADwAV7yPTeyZsxq/goHIPRGzh9U3i2peyUdQxoIIs+LqaL7ASqK8fcj5N0GL9HxjV+ce/9fiAJdiQIrxCbOHHytzP2QJAAEWKuT/Xj/N2tvrq6WTxwAwqxy+rBuFk/eJ0osBBQlFoLCyW1Vyh1fPWLZKtJAl41xRBBeZT27VUv2OkkACLBuJjdt4ycGP3XhrEGHEweAMKupWtHqUkWnSnqCNBBEvp9WfdNbSqY6CAN5ZbK+FrdHqxeeOYQ00HXHFULtolmDj/HlHmNfAgiBVpn7+X7/XP0b7sYCEGa77sS6V9KxpIEg8szbeSdWvIQwkGeuPtWRPv7q79yzkiyQKUqPCLhw1sBpTnYpSQAIyZXnT17aH3vLhDW8FwFAaFFiIeg889Snez8Vx0sJA3nm6lMpd8LVI5bxQ2TIcBmBSEygYvHkSid9hjQAhES7OVe9tecRv1o0YlGaOACEdQ5GiYVAL/bMU0X3/VUcLyOMqAjrr2eZq0/46ROvOeeel9iJ6PRhRATRcNHsAV/ynfdHSTHSABCiWdiLcl7VbeNrua0cQChRYiHwCz7z1Kd8P5UUdQv5lIF9GYF5X0MqmTrx6nPvfZEs0KnxjAiig18lBBBSKUm3JNTx89njXm0iDgBhs6vEukfSN0gD2Vn3Z7joi0qJhfAz15hy6ZOvPvueZwgDe4pfIYyQotaW/ydpNUkACJm4pMuKVfKXqhmDzyIOAGGz69cJT5f0GGl0McfWFXceOeeroXmD2pMtHFPI8zltPeMWe+BnC7/1FcLAnuIOrIiZOHPwUJl7XlIRaQAIqfs88y+6ZeyaN4kCQJhUTh/WzYsn73bScZkv8sgT2Vj8mXp330+lReWEgZxz7zsWXVPK90+5evjdT5EMdn8MQ+RMnDXofyRVkwSAENvhnH7a0PPw6bzkHUCYXLHwi2VtO1rucdYFJRaQlQUgJVau0Ud/2LHomhJKn3rN2ff8kTSwO3iEMIL2e7PPNZLjxXgAwmwvM93cp/HVlypnDeYWcwChcf2I59rK9io/3ZweJQ0EkZPTtuaNaks05ei/x4YPOzasR7Fi9/180ZlHkwZ2B3dgRdRFMwYc6Xvey5JKSQNA6Oc30u2el/7hLWPWbiQOAGFwxcIvlrU2tt4tueNJo3AvXsFeCJp6le+jsuIe7Czk+Vh0TWmlz7jq7HueIA189LGCyJo4e+AP5exakgAQkQtWi5N+Vd8jPXnRiLUJEgEQdJdOO6wk0a1ssWSnFNL35o6TcOnVbR91K+lJEMjvPM+pzfmps6pH3PMQaeDD8AhhhNV3P+J/JfHzpACisiAql/Q/fZpjL0+cPehYEgEQdDde9npHcWvb2U7ufh6XQlBtb92s1o4dBIH8zvNMZebFl/y/RaedRBr4MNyBFXEXzR7wCV9erZx6kwaA3Z5EhOMC9mg6bd+bUVm7lj0GIMgunXZYSaK8213O6VTSQFDt1a2vykt6EQTyPQltT6UTZ0/69n0PEAY+YP6PqLtw5sDhzmwhSQC7c81EyCQlm5Mw7+dzxq7cQhwAgooSC2FAiYWATMjb5ZLDq4ffex9h4L0osArExFmD5ksaSRL48OsEEOqr2Tb57tri1rYbbrzs9Q4CARBEwxf2L+7TFFtMiYUg61lWoe6lPLyBvC9O2n0lRlx1zn33EgbexjuwCmVHt6cvMuk1kvigsZGN8goROJF7y2xqorzb6sqZA4cTCIAgWjRibaKhR/psSSzIEFiNbfVqam8gCOSXqdRT8cLqhaecThh497BAwaiaNeBzJu9ZSUXvrvkAIJJXtz9Z2vvJbRNWLScMAEEzfGH/4t6NsbsknUYaCKoepb3Vo6yCIJBvibRLjrz6nHt5JQ4osApN1cyBP5fZ1SQBoEAuco/K2Q9vG1+7kjQABMmuEmuRJO4uQGB1L+2lnmV9CQL5nc85JROWGHnN2ff9njQKfm6PQlJdLW/DJwY9KukY0gBQIJyZ3eX5qZ/eMn7t68QBICgosRAGlFgIAnNKptPJUVd9+947SaOAjwMiKDwXzR7wibS8WjnxdkYAhSQpaUbMS199y5i1G4kDQBBQYiEMykv20l7d9iYI5JU5JVN+cvTVI+69gzQK9BgggsJUNWPwWfLcYpIAUIA6JJtXJO/Km8atXE8cAPKNEgth0K2kp3p124cg8BFyUS+4VNJPjb5m+D2/JW+OMBSQytkDZ5mzsSQBoEBRZAEIjOEL+xf3aowtNOkM0kBQUWKxrA4Gl/L91OirKLE401A4Lrq5f/d0aexFSUeQBoAC1uqcTY/HUtfxaCGAfKLEQhiUFXdX7/J9JXmEgfxxzpepqvrsJTMJo3BQYBW4iTMHDXCm5yV1Iw0ABa7VOZuudPyXNVUrNhAHgHzY+Thh/PeSO5M0WEYF1bslFstJ5JFzvnz/wuoRy2oIg5EXBaJy5sDzzIzbLwFgp4STfi/PTa4Zs/oV4gCQa8EusVg+YKfSonL16b4fxwTyyznfd+mLrhp+93TCiD5GG0iSqmYNni25MSQBAO/wJT1gzq6+bXztC8QBIJcqpw8rUiy1UNKZpIGgosRCEDjnfF+pi68+557bSCPaGGkgSRo95+DSknTP52QaQhoA/n1mUPAJPCPp2unj6+7lYACQK5RYCIOSom6q6L4/S0vkd6rqnO98/5KrRiy7lTSii1EG706S5gw8wnx7UVJ30gDee0UkArzjBTn79f7rei+url6eIg4AWZ+fTR9WZF7q9870LdJAUBXHy9Sn+/7yjBe7I39Mckk//YNJw5f9L2lEdh8D76qaPfjbcu53JAFJFDfAh58cG8xZTdLS02aNX9tAHgCyiRKLqVIYlFBiIQBMcsm0/6NJI5b+kjQiuX+Bf5kkzR54mzmrYjYCAB+r3UmLzItNnT525Z+JA0DW5mc7Hyf8naSzmC4hqIrjparo3o8SC3lFiRXpfQu83673YT0raShpAAijPCyqfEn3O89NmzFm9WMy1nUAut7whcNjvZr+ukDOfYc0EFRFsRL17dFPnsUIA3ljkkv7/k+uGr70WtKI1H4F/l3l9AGfspi3QtJepAGEC81J3i+tr5v8mS5dPKumasVW8gDQlSixEAaUWAjEjExyaT/9s6uGL5tCGpHZp8AHmzhr0NnOaRHHCcKC4gYBOyDb5NnvPKfbbhtf+wKBAOgqwxcOj+3V+Op8k51HGggqSiwEgUku5ad+fvXwuyeTRiT2J/DhqmYMuk6mH5BE0NfJAAJ+sV3hpNvainXnggvqWkgEQKYosRAG8Vix+vY4QDFKLOSZ71LXXHXO3T8nidDPqYEPV10tb8OBg+6XdGIQPx/FDYCQaZK0zHluPu/KApApSiyEASUWgiKt1OSrz777ZyQRXhRY+FjjZvbvE1PsRUmHkgYAdJlXTW5OLObPu2XM2o3EAaAzhi8cHuu147V5Mn2XNBBU8Vix+nbvp5gXJwzkVdqlpl59zt0/IYlwosDCbplQM2SIef4zkrqRBgB0qZSkB5xplqWKHqypWpEkEgB7ghILYRD3ilTRo5/iXhFhIL98/9rq4Ut/TBDhQ4GF3VY5c+B5kv2WJAAga7ZJuo9HDAHsqeELh8d6N74210nnkwaCKubF1bfHAZRYyDvfpX551Tl3/5AkwoUCC3ukcubgX0vuCpIAgKx7U6alMs2rGVv3MnEA+DiUWAgDSiwERdqlb7r6nGWXkkR4UGBhj1RXHx1ff2DDI5KOIQ0AyNnlulbmfpt2sYWzxq/8B3kA+DCUWAgDz4upb/cDVBQrJgzkFSVWyGbERIA9dfG8IyqSyeIXJR1CGgCQa+7PcrYo5unOW8fVvUoeAP7V8IXDY70aX5sjaSRpIKh2llj9VBQrIQzkd2blp2+5cviyi0ki+Ciw0Cm81B0AAjHl+rOcLfLl/37mhDV/IQ8Ab6PEQhhQYiEofOduveqcJReRRLBRYKHTqmYNusA5zSMJAAiENU62LCbdu99btS9VV8snEqCwUWIhDDzzVNHjABVTYiHP0s6/7epzll5IEsFFgYWMVM4YdL1M3yMJAAjUJXqTc7pPnu5vL3KPLLigroU8gcI0fOHwWK8df50tcxeQBoKKEgtB4Vy65spzllWRRARnx8DOv+y9eo9JJ5MGAC5PgdQuabmT3euc/+DMCXV/JxKgAOdrlFgIOM88VXTvp+J4KWGEgAvtP/7x0kovmHT2slGyfH8SsEJAlxs76/Aecb/kGZkGkgbAsIzA+5tMj8rZo4mY/jB3zKrtRAJE3/CFw2N7Nb46y2SjSAOBnQWZp4ru+6skXhbozxnl8gY7+S59+9XnLLuAEouVEiJo4pwhB/u+/7yc9iENMCQBoZE22Spf7lF53qOW9J6sqVqRJBYgmqqr5b114KDZlFjoDJej/4CZpz7d91NpnN+KQn75St8RW7NsJO8VZbWICJpQM+BL5nmPS+LhdU5FAOHULOf+ZGaPOtMz23qkXlg0Ym2CWIDooMTacy70/4EQzowpsRCU89/5d3prl55PicWqGRE0YebgkSY3n8MPACKxnmmRc8+ZvGdczJ4ubW566sbLXu9g7wDhticlFuUN8rdQtZ0lVlE5YSDPczL/Tm8NJVYwxgWgi1XNHDLZyf2EJACwlomcVid7yeT+ZLLn4rHkn24Zs3YjsSATldOH7eV76f8wc1+Q3OfM05SasXXPk0zWB1ubMGPwrc7Er20hwItVU+/u+6qsqDthIK985/8utnbpdymx8j0mAF2sulre+gMHL5J0FmkAe7qeAELnHzJ7Vs5/3jz9qaS5dRV3aeHD5whHx988cNvAmHP/6Zu+YNJ/SHbEv8xJd5jnTqDEyslFx8bPHHyLpImEgeAuWCmxEJQh07/7gPq9h1dV1fC+0LyNB0AWjJw/qLysw/4o01Gkgd27IACIiKSkP0taac6tlGcvp9ReO3vcq01EU1hGzzm4tMTvPcCXG2pyg500VE5DJO3OS212OOdOnDmh7k8kmfULMCUWQrBoNfUq30fdinsQBvLKd/49BzbsfQ4lVr7GAiBLxs8YdKBn9rykfqTxcXNHAIj2fE/S6yatlNOqtLm1znNrP/nP1W9wK340jJk9dO+4NNg5N9R8N1imIZIOlxTP4J9t9Mw7cfq4lc+RcNYnIjZ+5pCbJXchYSC4C1dKLARD2qXv+0TDPmdRYuVjHACyqGrW0M855y+XVP7vcyUAQIFrlewvclprprXOd3925tYeuK7uHxRbAeRkE+cOOcil/SOc7EiZjvCdHWFyn5XUN0v/1Ub5dtKMylXPsgOyv38psRAGvcr3UXlxT4JAXvl+6v4Dt+37LUqs3KLAQtZVzhxyipNbpsz+CgsAKBwdkvubyV530l8l+z8z93rK/Nebuh/xj0UjFqWJKDuqq+W9dcCgfjFzhzrFDpHTIc7c4SYd7nbeUZWP37Rv8mUnzRq/6hn2UJY52bhZg24yZxcRBoKsV7e9VV6yF0Egr3y5B2J+7FvVIxYlSCM3KLCQExNmDZkg52pIAgCQoYSkfzjpnya9ac7+4Xv+m57sTd+Pven59o+aqhWtxPTBLp12WElrtx77eb47wJnfT553iJwOMXOHyukQSQdJKgngR28y08k142qfZi9mGSUWQmKvbn3VvaQXQSCvfPkPxvz4mZRYuUGBhZwZP2vwVeb0C5IAAGR3/e3qPdkGX9pkThtl2ixpk8k2+k5bvJi/0YvZphZz2xdcUNcS9u9bOX1YN99L9pH8Pp4Xq/B9V+GZ7efL7WeyA5y0nycd6KT9lL1H/XKh2UwnUWLl5CSixEIoUGIhCHznPx5r3nZK9Zjl7aSRXRRYyOlkaPysQXNMNoowAAABkZBpuzltc9J2mbbLaZuctsu0w5xanCkh0w4nl/Sc1+jM75DFWl063Sy5d9594ce07V//8ZJ2besoiZfJUqVv/8/iSWe+Z+9bcXmeV+bMK3XpdC/JSiXrJk97eb4rdaZyJ+tpciWS9pJUIVkfOVchqY9MZQW0v5qdcyfPnFD3FIdu9udtlFgIg55lFepR2psgkFe+/Cea/Y2nXD/iuTbSyB4KLORU5fRhRS6euldOJ5AGAADohFYznVozrvYJosgyJxs/c/CNki4mDARZj7I+6lnahyCQV2n5y1v8jSdTYmUPBRZybuysw3vEXemTThpKGgAAoBNanXOnzZxQ9zhRZBklFkKiR2lv9SyrIAjkd8h07skmt+EkSqzs8IgAuTZ73KtNSsdPkfQP0gAAAJ3QzczuHT9j0LFEkWUmN3N87aXmdBNhIMia2rdpR9tWgkB+h0yzr/ew/R7+5fyR5aSRjUsSkCfjZxx1pFn6aUnc7wsAADqj1ZM7ffr4useIIsucbMKMwdOc6RLCQJB1L+2lvcr6EgTyO2Q6/6kebd1P+sEFC1pIo+tQYCGvxs8Y9FUze0RSKWkAAIBOaJXnnTFj7MpHiSLbKzLZ+JmDfyPpUsJAkJWX7KVe3fYmCHTR0Nc5vvNfiHe0H199/oONpNg1KLCQd+NnDDrHzH4nKUYaAACgE7gTK3crOUoshEK3kp7q3W0fgsjodEemfPkvxtvbj6PE6hoUWAiEyplDRjm5ORyTAACwCOrkP95mzjt9RiV3YuVgh1JiIRQyKbEob9CFg+ZLHX7jcdeOeHQHWWSGsgCBUTlj0GXO7DckAQCIzjo/7P+B0OlwZmfPGr/qfqLI+rFn42cOvkHSZYTBuBVkZcXd1bt8XxlLX+TzvHL+ioRr+gYlVmY4ixEo42cNnmJOPyYJAGARVFArLHSlDnM6Z0Zl7X1EkfWTPFIlFsNKdFFiIQh8+S83x9w3bvjWsu2k0TmcwQjcRKhy9uDbnFMlYQBgEcQqC+gkSqwczt3GzRpyvZy7nDAQZKVF5erTfT9KLOR3yHT+6lgydWz1efduJY095xEBAsXk+r1Ze6FJvycMIKxrmSxuLhybsr0B+DglzrR43MxBpxFF9udus8atukK8BgIB155sUUPzRjkupMjnkGnewFRx0RM/WXgSP5PZqUsOEECV04cVuVj6bsmdRBoIAx6VAoBASjhz58waX3cvUWTf2BmDp5h4FQSCraSomyq678+dWMjz2sGtTfltx0wZ8eAW0th9nLUIrMrpw7q5WOohSV8ljaAPwGH9xwEABSBhzg2fUVl3D1FkHyUWwqAkXrazxDIeSEJeF1F/bo35x/zqrKWbCWP3UGAh0CqnD9tLsdQTThoazDEnrP84AAAFhRIrhyixEAaUWAjGetL9JZ1IHTP5vHs2kcbHo8BC4FVOH7a/76WfktynSAMAAHRShzM7e9b4VfcTRfaNqxkyWeZ+QhIIsuJ4qfp270eJhfxy7pVUMnU0JdbHo8BCKIyZPeATsXTsSUmHkAYAAOikhGQjZk5YdTdRZB8lFsKgOF6iiu795FmMMJA3Tv7/dVj70ded/eBbpPHhqJoRCnPGrnnTmXeMpH+QBgAA6OxaVXILx80cciZRZN+sylU/NdlkkkCQJVIdqm9eL9+lCQN5Y/I+VeLKnvzZnWd8gjQ+HAUWwjMJGr/yH7G0HS9pPWkAAIBOKjbnfk+JlRszJ6z6GSUWgi6R6tDWJkos5JfJDvWKYst/tPC0T5LGh2UEhMyEmsGfcablkvYnDQAA0ElJZzZi1vhVy4gi+8bNGDRJsp+RBIIsHitW3x4HKMbjhMgj59zfEy559LUj7v0nabwfBRZCqXL6wCN8z1suaV/SAAAAnZQ0p2/PqKxdShTZR4mFMKDEQhA4+W/4Zkdfc/YSXqHzHjxCiFCqqVr9iu95J0iunjQAAEAnFTnT78fPGHwWUWTfrAl1P5fcNSSBIEulE9ratE5pP0UYyBuTd7Dn9GT10jMPJo13UWAhtGaPW1lrzjtOUgNpAACATiqStHD8jEHfIYrsmzWh7ucyTSIJBNnbJVbKTxIG8sZkB6XT3tM/v+vsT5PGThRYCLUZlatWSe4Uc2okDQAA0EkxyRZQYuXGrPG1v6DEQtCl/CQlFvLOZAd4zi2vXvKtz5AG78BCREyoGfIlZ+4hST1IAwAAdFLamV0wa/yqO4gi+8bOGHyVSb8gCQRZzIurb48DFPeKCCOiXCg+pFvvilPHTjrjnlcLeV9RYCEyxs8YcrTk7pXUnTQAAEAnpZzZebPGr1pEFNlHiYUw8LyY9u5xgOJecaS+l2PXhmx/uQ1pJY+dcs69rxRqBhRYiJRxM4d82fPdA87UkzQAAGCB00lp52zU7MpVv+UIyMH8rWbwlTL9P5JAkMc2z4upb/d+KoqVEB7yaUNKiYItsSiwEDnjZwwcJnmPSOpDGgCAXC5wEClpk0bPnFB7O1FkHyUW41oYUGIhIDa4lP+NSecu/UuhfXEKLERzEjRz8FBzekRSX9IAABY3QCdRYuVy/pblEouxDV3BM099exxAiYU8T9bc1rTzj588YtmqQvraFFiIrDGzh342lvYflbQ/aQBggQOgk9IyjZk1vnYBUWTf2BlDqiX3PySBIKPEQhAmnk6u3k/4x03+buGUWBRYiLTK6QOP8D3vMUn9SAPI2vUTAKKOEiuHKLEQBp55qujeT8XxUsJg4pnHGF29pVLHX/2de1YWwvelwELkTagZ/BlnekzSgaQBrqEAgE5KO7mxsyfUzSeK7BtXM/hHzjSVJBDoxbR5qui+v0riZUw6kccD0dUnff+EqSOWrYj8V2VvoxBMvHXIwam4e1zSIaTBNRQAgE5Ky2zcrPGr5hFF9lFiMfEMxYLaPFV0308l8W7sX+TxQHT1HcnUidd9556XIv012dMoFJXTh33S99KPS+5TEb6GAgCA7PJlNpYSKzciUWIx4Yw8SiwEZLBpSKaTJ049994XI3uusZNRSMbMHvAJLx17VNJnSAMAAHQSJVYu52/Th/zQzF1LEgj2wtrUp/t+Ki0qJwzkjZMa0747ecq3lzwTxe/nsYtRSOaMXfNmUcp9VdJK0gAAAJ2eQzs3Z2zN4IlEkYP5W9Wq65yzH5EEgszJqaF5o9qSzYSBvDGpZ8zTgz9a+K2vRPT7AYXnopv7d08Ux5Y62XGkAQAAOrtmdU4Xza6svY0oso87sRCOBbapd/d9VVbUnTDQZUfVHl+c5JrSSp0yZfjdTxV2EkBEXDrtsJLWsvI7JJ1FGgAAoJOcyV08c0LdrUSRfWNnDPmBnLuOJBDsRbapV/k+6lbcgzAyTBKZXJxcUzKdPPXab9/zR44IIAKGLxwe67n9tRqZxpIGAADo9DqBEitnKLEQjoV2piUWS3V0xcXJNcnZ6ZOG37U8GucVUPBntWzcrMG/ktN/EQYAAOj0jMLZJbMqV91CFNk3rmbQ953slyQRRdFaovYu30fdinuyW5G/M8rUnEr7p0/+9pInGB2AyEyEBv9IYf+ZZgAAkE+UWDmdu0WtxGJpFlW9uu2t8pK9CAL5vDy1OZc8a9KIex5ilAQiMxEacpHM3Sh+oRMAAHRylWCyS2dOWHUzUWTf2OlD/1vmfkUSCLq9uvVV95JeBIF8Xp7a0unE2ZPPvffBsH4DCizgX4ybOeQ8OTdXUhFpAACAzqwSKLFyhxILYUGJhbxfnOTa037H2VO+fd8DYfz8FFjAB5hQM/hU3/R7Sd1IAwAAdGadwIvdc2dszeD/kux/SQJB17OsQj1KexNErgdkInhvGu3ptD98yrlL7wvbJ6fAAj7EhJohn0+bu8+kfUgDAAAWLZ36zztdPruy9kb2RPZRYiEsepb1UY/SPoUyDiKYV8d256dGXPPtu+8N06emwAI+aiI0e+ChlvYekHQ4aQAAQjU1JYLg7ApKrNzN3SixEJJxsEdpb/Usq2AnIW9Mrj3lkt+eMuKee8LzmQF8pHEz+/eR4nfL6SukAQAsWIDOHJZO7ntzJtRNI4rsGzN98BVm9mvGQQRd99Je2qusL0Egf0wJXx0jJ59z78IwfNwYewz4aCvv2dI2+Ftld3p+6eGS+pMIABYtAPZ0iWCyE486bd/tK+/d9DxxZNeq+zb9acip+zbK7ATSQJAlUu1y8lVaxGt3kTcxU/zMLw3/9GtPL3p1beA/LPsL2I2J0N3bU4eN/NqS4o76CpP+g0SA4KG4ARBwJrMTKLFyNHe7b9Ofjjp9vx2STiQNBFki1S7fpVVaVE4YyJeYZ7EzvnTOZ15/+q5X1gT7Qgpgj4yrGXS5dt6W7pEGgoDiBgBCNiA7/WR2Ve1UAsu+sTOGfM85/Zp1D4KuvKSnenXjt6OQV8lkKjn62u/cfUdQPyB3YAF7aOW9m54fdvq+f5bsdElxEgnHWgEAwIAcGKbjjjpt38TKezc9TRjZnrdtfPtOrBNEiYUgNwfpDqX9pMqKyzlUkS+xWMw740tnffpvT9/16upgXj4BdMrYWYOPMV9LJPVijQAABYoBGRlNxN1PZ1XWTSGJHMzbaoZOdHK3sP5B0JUVd1ef8n05VJHHuY3z00pXThmxbFbQPhqPQAGdNHtc7RMy91Un/cPtWsPkagOAYExw2IDMTiGbPHb64P8miRzM2ypX3ibnLuTMRdC1JZrV0LKJQxX5Y+bFFLs0iB+NAgvIwKzxdWtSxSXDJPsjaQAFtepkY14NdNFCQb8aO2PQTwki++ZU1U6nxEIYtCWaVd+8kUMV+BcUWECG5o96ob68rfmbTm4eaaAgUNwAQBePq3bNmOlDfkYQ2Tenqna6mSYymiPo2pMtlFjAv6DAArrAjZe93jFnQt1oc+57knwSieoCg405FABkh5mbNK5m8M9JIvtmT1hVQ4mFMGhPtmhr8wYOVWAXCiygC82qrPuNJw2X1BKpL0Zpw7wBAJAB263Nya6mxMqN2RNW1Tipiis8gq4j2aqtTevl+Bs5QIEFdLWZE2qXeEp/yTn3T4obAEDhMrZ3tt3nZFePnT70Fxw/2Te3ctWMXSUWzQACrSPVpvqmDZRYKHgUWEAWzJywpq7IFf2npBdIAwAKEaUNMjl83FVjaob+P4LIvl0l1kRRYiHgOlJt3ImFgkeBBWRJTdWKDX7Rjq9L+i1pACiglTcb5Q265ExyV1Ji5QYlFsIikWrX1qZ18l2aMFCQKLCAbE6IxrzRPntC7UiTrhIP4wEFseRkA9B1I4q7kscJczRnq1w1Q47HCRF8iVSH6pvXU2KhIFFgATmYfc6qrP0f89wZknYQCKJ6oLNR3gDIxvDqrhpbM3QqQWTfnKpVMymxEAaJVAd3YuEjRfU1yBRYQI7MGl93r2LuC5L7C2lEbnXBBgDI4kLE/YgSKzfmVK2aaWaVosRCwCXTCW1pWiffpQjjfeMlW5Qf+6HAAnJo9ri6Vzvay/5T0jJKG8obAACLkN1diFBi5XC+NmHlLEoshEEqndCWpvXvlFiMl4g6Vl5AfmblNm7G4B862WRRJAMAPqC8AT7EdXMqV/2IGLJvdM3gsSabwVyN8TLo4rFi9e3eTzEvThjoohPL1V4zYvGQoH0sBmMgH3a+F+taJ3eGpO0EAgDvLkTYgI/0wzE1Q64lhuybW1k728lNUEDvxGKsZLx8Wyqd0NamdUr7ScJApFFgAXk0p7L2vpjcFyT9mTQAsBABsJt+OHr6kOuIIfveLrGc5DNeIshSflJbKLEQcRRYQJ7NqKx9TbG2/3TOlpAGChXFDYsRAHvGTD8YUzPklySRfXMra2crwHdiAW9L+ylKLEQaBRYQALPHvdo0p3LlOSb3YyZHhYfiBgDQSd+nxMqNuZW1s83ceOZpCLq0n9LmpreU8hOEgcihwAKC4v3vxWoohK9McUN5AwDI2Pd5J1ZuzJlQO4cSC2Hg+2ltaVqnZLqDMBApFFhA0CZHlbX3uXhqiDM9R3EDAAB2ww/H1gz9X2LIwTxtQu0cMztfUpo0EGS+n9bW5vWUWIgUCiwgiJOjsWvePGhdr6+Z7FrR9QAAgI/h5P6LEitH87QJK++UKLEQfL6f1tamdUqm2wkDkUCBBQRUdfXy1OzKlT+W6VsmbSMRAADwUZzcf42pGfJrksi+uZUrfyfZ+U5KkQaCzHe+tjatp8RCJFBgAQE3Z8Kqu82zoU56gTQAAMDHuGL09CHXE0P2za1c+TuTjaTEQtC9XWIlUpRYCDcKLCAEZo1f+Y8e7c1fk7lppAEAAD6Kmb43evqQ6+VkpJFdlFh4nwC/fNb3d5VYyTb2E0KLAgsIiRsve71jzoTay525syXtIBEAAPBhzPS90TMG30KJlX1zK1f+zjPH44T8tHTwd5HztbV5gzqSrZy4CCUKLCBsk6QJtUvScv9hUh1pAACAD2OyiWNmDL2VEiv75kyo/b3nu/OdU4ryBkHmnK/65o2UWAglCiwghOZX1r4Wd7EvyjSTNAAAwEcsV6vGzhj8G0qs7Jszsfb3MvddHidE4EcF56u+aYPaEy2EgVChwAJCqqZqReucCasmmNxZkhpIBAAAfOBiVXbpmJoht1FiZd+8ytqFlFgIx7jg1NC8Ue2JZsJAaFBgASE3u7J2qeKpIZKeJA0AAPCBTJVjZwyZTomVfZRYCIudJdYmSiyEBgUWEAFzxq55c86EVcc46XuSkiQCAAD+fbGqCWNnDJleXc0aINvmVdYuNOk8SiwEf1zYWWK1djQRBgKPixcQFSY3t3LVb5z0ZUmvEwgAAEFYHAZr86UJfz+AEisX5latWkSJhXCMU07bWzZTYiHwuHABUZssVa560WJtR5ncAtIAAORvQcQW1B9mM6fxlFg5mpdRYiEkY6svp4aWTWrpaCRkBBYXLSCCZo97tWl2Ze0FzmmEpO0kAgDhX1xQ3KArmdP4N/oNrqHEyr65VasWec6+Q4nF2BqGsXVby2Y1t+/ggEMgccECoj5h8myISc+QBgAWFxQ3wPvZuDf6DZ1BiZV9cyauvMtz9h114l2ljKuMrbm2vXWLmtu3EwQCh4sVEHGzxq/8R9zFjjGnK8Vf/gCKGxYXAN4/go3lccLcmDNx5V2+s/OclGRsRdBtb91KiYXA4UIFFICaqhXJ2VWrqtPmDZNUSyLo0qUPGwCE2s7HCbkTKxfmT1x5l6xzd2IBuba9dasa27YRBAKDixRQSJOmCS/XuaJe/2myayWlSSQzFDeUNwAQoava2L/vP2QmJVb2zatcuZgSC2HR2FavxrYGgkAgGBEAhWnsbUO/6Dw3T9KnOzXNJUIAACLHSXe29vr0yEUjFvGHriwbVTP0bDl3p6Qi0kDQ9Sjtrb26VRBEwVwMXO01IxYPCdrH4i8sQIGaPXHlc0UuNkTmpjnJcdcNAAAw6Tvl21+7ffjC4THSyK55lSsXm3PnijuxEAJN7du0o3UrQSCvKLCAAlZTtaJ1zoTay51zJzrpLRIBAACSnVu+/bXbq6uPjpNFds2dWLtE0rckdZAGgq6pfbu2tWwhCOQNBRYAzauqfaTExQaYUw1pAAAQYl32kkM79439ty2gxMrFPGzV/ZLOFiUWQqClYwclFvKGAguAJKmmasWOOVWrqpzsHElclQAA4cMva3QxO/fv+2+fw+OE2UeJhTDZWWJtJgjkHAUWgPdPoCpXLk6k0odzNxYAhAjFDS9ozBKTzu/e8Nc7uBMrB3OwqlX3m9NZosRCCLR0NKqheZOcY/BF7lBgAfg3d1y0etucqlVVvuxkSf8kEQCBRWlDcYPsn2amEf/Yb/tvKbGyb+7EVQ9QYiEsWhNNamihxELuUGAB+FDzK1c+WOxiR0p2rSSfRICgrSrZAORouDGNeGP/7dyJlQNzJ656wJnxYneEQluimRILOUOBBeAj1VStaJ1bufLHJn3VpL+QCIKxkmKjvAGQB8MpsXJjfuXKBymxEBZtiWbVN2+kxELWUWAB2C1zKlc964p6HSWnKyUlSCSPKG4AAPkz/O/9tt9JiZV975ZYrp00EHTtyRZKLGSdEQGAPXXBjKMGec6fKenzOfuPci0EACAwnOmuEhc7r6ZqRZI0sjzvqhl6kjl/iWSlpIGgKy3qpj7d95Nn3CsT7kHe1V4zYvGQoH0sjioAe2z+hJfrDl7f60uSvienFu64AQAgomuYD7ssO53TodSdldOHFZFSluddlSsfNBfjTiyEQnuyVfVNG+Q7Xp+brfE3F1tQ9x53YAHIyOjbhnxappskfZM0AABRWjhgt1YT3ImVsznXUSc6Sy/lTiyEQUm8TBU99u/0nViMwXm+BjpXO4U7sABEzdyJq/46t2rVCXL+6ZK9SSIAEIGJKxt2/2A5p13+77gTKxdzrpcf4k4sxt+wbO2pNm1pWi/f+YzB6DIUWAC6aFJVd2+6LH2kzK51UopEALBwoLxBYTC5szqUXnrptMNKSCPb862XH/JNZ0axxGLsjd74m0i1a0vTOvl+mpMXXYICC0CXWXBBXcvcypU/jjn7nEnPkQjA4oGFA1AwTmks6b6YEisH863K2od905lOrp3xF0GXSHVoa/N6Six0CQosAF1u9sSVtXMqV33ZORvlpK0kgqCjuGHxAKBLnLKjtPsSSqzsW1BZ+7CL6J1YiJ5EqoM7sdAlKLAAZIfJzZu4cn48ljzcpBrWx8FEacOBCQBdevl3OpkSKzcWVNY+bNIZlFgIg2Q6oc1N65T2edMIOo8CC0BWzRq/tmFO1aoqef7XnbQmKJ+L0obiBgCQHeZ0cmNJ96Wj5xzNr+Vl2byq2kd2llhqIw0EXSqd0Jam9ZRY6DQKLAA5MXdC3VMlih3lZN930g6KGwAAIu0kl9ixcPjC/sVEkV07Syx3piixEAKUWMgEBRaAnKmpWpGcV7Xyf12y+FOSmyaJB+EBAIgsd1q3bfG7uRMr++ZV1T7iO+7EQjik0gltaVynVDpJGNgjFFgAcm7+JS/Uz6uqvdz57vNy9hSJAAAQVXaiS2zjccIcuH3iqj9QYiEsUn5SW5oosbBnKLAA5M38C2tXzpu48mvm/NMlvUEiAABEkZ2ojh3LKLGy7/aJq/5gzk6U1EIaCLq0n6LEyt+4/DFbMFFgAci7uRPr7i1RrL9z7seSmkkEAIBoceZOoMTKjXkTV/7RnJ0sSiyEwM4S6y0l04kc/ReNLcAF1cehwAIQCDVVK1rnT6y9NuX5Rzq5BeJd6wAARIozd4JLbL97+K+/WEYa2fWeEos/DGKX4JYpad/X1qb1SqYSorjBR6HAAhAov51Q99b8qtoLzNexkupIBACASPlmebd23omVA7tKrFNEiSXutgl+cZP209ravF7JVAeHKz4UBRaAQJp74arlh2xYNdSkEeL9WAAARIYzd4JLbr+HO7Gyb97ElX/0Pe9kyZopbxB0aT+tLU3rlEi1EwY+EAUWgMCqrpY/t2rVove8H2sHqQAAEAFOx5eXtz04cv6gcsLIrtsnvPyU7/E4IcLBdzsfJwxFieUivgUQBRaAwHv7/VguWfwpM7tWEvcWAwAQck76utfmPUCJlX2UWMjGCZytzfd9bW1cr45kGwUP3ocCC0BozL/khfq5lSt/HI/Z4bzoHQCASPia1+Y9MPzm/t2JIrtun/DyU5J3kiixMuPYcjED33kn1oadJRawCw8EAwitC24d/B/m2S8lfY00AAB4/xo7VIsSZ0+1phMnL7p4LeVKtudP04d9RfIflNQ90gcVIsHMU0X3/VRa1I2xOpefy/m1U7+9eEjgjgdOCQChn4jVDD3OnLte0gDSAIDCxho7xAtVSqzczZ2mD/uKnHtAcj1IA0Efr6NeYgVy3wS0wOIRQgChN79y5aMlih0l2UWS1pMIgEJeDPBUC0J7/Jr7alm86B7eiZWDuVPViqdldrJkTaTBWB308do5X/VNG9SebOHgKXDcgQUgUoYv7F/cbVvRaMldKdl+JAIUzmIAQGQ8HY+3nTx73KuUK1k26tYhX3bmPZirO7EYq5EJk6lP931VVswr87J+rnIHFgBk36IRaxPzqlbV+GXuMOfcjyVtIxVEfpLBBiBavpJKlT0wdtbhPN6WZfMuXPWMOf8kJ2tirEbw5ztODc2b1JbgKeNCRYEFIJIWXFDXMn9i7bWxeNtBu4qsRlKJ4kSGjQUBgIj6Sipd9iAlVvbNu3DVM57zT+JxQoRj7rezxGrt4HAtRBRYACJt9rhXm+ZPrL02odinzOxaSZH4LV5KG4obACiAleqXKbFyY96Fq55xnn8iJRbCMTQ4bWvZTIlVgCiwABSEO6tWbJ1bufLHKc//jC83zUkdFDcAAAR+pfrlVKrsIUqs7Lu9ctWzlFgIz9Dg1NCySS0dPGRRSCiwABSU306oe2tBVe3lzvOPlDRPUopUAAAItC9xJ1ZuvFti8eoFhMO2ls1qbt9OEAWCAgtAQVowoe7v86tWjfZ8fdrJTZNcO6kAABBQu+7E+u60L/QkjOzaWWK5k0SJhZDY3rqVEqtAUGABKGhzL1z1xoKq2stjqfRndhZZ0XhHFgAAEfSlWEkHJVYO3F656lmTuBMLoUGJVRgosABA0pyL17y5oKr2cuf7B0u6kgkbAKCwWVC3L8ZKEo+fd8vA3uyj7Jo/ceVzlFgIk+2tW9XY1kAQEUaBBQDvseDCus3zq1ZVJxX7lHYWWdtJBQAKjbEF27B4LP4HSqzsmz9x5XOeb8dK2kYaCIPGtgZKrAijwAKAD3Bn1Yqt86tWVac7Sg6Scz+WxJUQQAGguAlBeYOdhsVj8T+Mm9m/D1Fk17yLXl7h+Xa8KLEQEo1tDdrRWk8QEUSBBQAf4beXPd84f2LttemOkkPM9FNJm0kFiCqKGyBkhiX94gdHzxnSiyiyixILYdPUvk07WrcSRMRQYAHAbvjtZc83zqtcNWWvjuZPmrNRkv5CKogOihvKGyALXA42X//hOuwx7sTKvveUWNyVjlBoat+ubS1bCCJiM1YAwB6qrpb3f/sNOsXM+7GkL5EIl0EAeB9HBDkez1cWxTuOmzV+LeVKlp0/fdhR5vw/SKI0RCiUl+yl3uV7E8SeXMKcXzv124uHMHMHgIgZNeOoYc5PXy7ZeZJiIZrss/MAZGHWSwTI23VtpVLx4+df8gIvv8kySiyETXlJT/Uu34cgdvdSToEFABGfzM086jBLu0tNmiCpjESAQpvtEQGQ71PKSau8VNFxlFg5mPdQYiFkuhX3UO/yfWRGDfKxYykFFgAUhpG3DtrHvPhFkruUSR1YaQLglMp5dpRYOXLBrYOHOvMeZb6DsOhW3F29y/fNeYkVtjHdOb/2WgosACgcY2cd3iOZKh9ncpdI+hSJsMoEwCmFnC1zVhbzTqyc2FVi/UFSBWkgDON6vkqsUO0zCiwAKEzV1fL+1m/osfLd5TI7JTJjL6tMgFMKCPY5tSpt3vF3Vq3YShrZRYnFuB42pUXlqui+HyXWhx27FFgAgNG3Dfl02tklZhorqTuJgMk9AGRVbcq84yixsu+9JRZjO8KAEusj5mcBLbA8dg0A5M7ciav+uuDClZenE8UHmFmVpFdIpYAnB2wAkG2D485/9DvTh/Uliuyaf2HtyrTnjnMS7x5DKLQnW1TfvEHO+YQREhRYAJAHv73s+cZ5VS/XHLpxZX95Ol5y9xXSep7ihvIGAHJocFz+H0ff/Pn9iCK77qhctcr33HGixEJItCdbtbWJEissuFcOAAJiVM3g/r7vXSJppKRyEgEAoEtXPnXxIh03Z+zKLYSRXefVDBni+faoeCcWQqIkXqa+PfaXGff4SDxCCAD4GPMqa9cumLjyQj9R3E9mVZKtJBUAALpqRaZBqYS4EysH3nMnFu8eQyh0pNq0pWk9d2IFHHdgAUCAjbrlqGG+51dK9l1xVxYAAF3hFWfesbdXrdhAFNl1/m1DB0t6VBLvIEMoFMdL1LdHP3kWK+gcuAMLALDH5l308ooFE1dVtZt3gMwukamOVAAAyMjh5tI/I4bsu33iylpJ3ImF0EikOrS1ab18lyaMAOIOLAAIGe7KAgCgEwsf03o5LfDTNvP2i19+nURyhzuxEDZFsWLt3fOAgr0TK6h3YFFgAUBIfXfaF3p6JclznXMXmjSERAAA+DcJyT0i0/w3N/Raurx6eYpI8oMSC2ETjxVrnx795HnxgvvuFFgAgKwZOX3YF8z3RznTuZJ6kwgAoMCtlbNZ8RJ3O786GBwX3HLUIN9zj4kSCyFRqCUWBRYAIOsunXZYyfbint+UNFJyZ0oqIhUAQIFolOluM82fX7nyUeIIppE3H3Wki7nHJfFrkAiFeKxYe/fop1gBlVgUWACAnDp/+rD95dLfNdloSf1JBAAQQb6cnnKm2d3Mu6umakUrkQQfJRbCJu4VqW+PforHCuNvwxRYAIC8GVUzuL/zvZFOGiNpHxIBAITcn83ZopSLzb/johf/Rhzh853pw46IOf8JUWIhJGJeXHv3OKAgSiwKLABA3g1f2L+4tKHkVMmNlnSieMQQABAe60x2py93++0TV9YSR/jtKrEel7Q/aSAMCqXEosACAATKebcM7O158dNMbrhkJ0qKkwoAIGAaZbpbzha9ubHng/yKYPRQYiFsYl5sV4lVHNnvSIEFAAisC24dfIBvdo5kw036EtcHAEBGi5/M/s/TzukJMy2wbunFCy6oayHRaKPEQtjEvJj69uinolhJNMdwCiwAQBicf/NRh1nMnSvpO5I+SyIAsAeTfiLoLF9OT8nT771k0cL5l7xQTySFhRILYfOvJVaUxn/n/NrrKLAAAGEyqmZwf5eODZe585z0aRIB8KGTXSLAnvMlPSe5RamkLfrdpSvXE0lhO/+WQYfLiz0hSiyuASHhmae9e/RTUbw0WvuTAgsAEOJZiX331qO+4Hn+tyU7S9InCQVg4g50QlrScpPukksvWXBh3WYiwXudf8ugwxWLPS6nfoz/CMMOjmKJ5Zxfe925FFgAgAh4+84sZ264eMyQeR0AfLS0pD9JblE8XfT7uRe/uJFI8FHOv2XQ4S5EJRYXeHjmqW+P/VUcL4vG7qfAAgBE0Xm3fP5Qz0ueVmgvgGdeBwAf6Z3SKh1L/e7OCWs2EQn2RF5LLC7y6AQzT32776+SovCXWBRYAIDIGzlj0CEuHfuWpLMkfVGSRyoAUDAaJXvYSfck4h0PLBq/toFIkIkLagZ/Jp32npC4EwvhsLPE2k8lRd1C/T0osAAABWX0zZ/fLx1Lnel2lllfl1RMKgAQOf90cvfK3D2J3qnli0asTRAJuhIlFsImCiUWBRYAoGBVTh/Wrc25bzj5p0p2iqQDSAUAQuvPku71zLtvfuWKZ2Q8cIXsosRC2JhMFT32U2lReSg/PwUWAAC7jKoZ3D/te6dKOk0F9N4sAAipduf0tJm7z8X8xb+dUPcWkSDXdpVYj4s/giEkTKY+3fdVWXH30H12CiwAAD7AuTcO7RcvdifLeadI7nhJ5aQCAHn3T5M9LOmh9nTHI4suXttMJMi3824b8mlz9oQosRASYS2xKLAAAPgYl047rGR7Uc+jZe4UJ50s6VOkAgA50SqnJ51nj/iyh+6sWvEKkSCIKLEQNiZT7/J91K2kR2g+MwUWAAB7Okm95fOHxmLp45zTcSb3DSf1IRUA6LIlyt8kPWry7ouV9PzD3DHL28kEoZgfUGIhZMJWYlFgAQCQgepqea/tc9RQz3M7Cy3TVyWVkAwA7LZ6yR4306PJVOzB31384ptEgrDaVWI9LulA0kBY9C7fR+UlPQP/OSmwAADoQiPnDypXq/d1ZzpOzjtecgNIBQDep0WyZ0z+8rRzj31mU+1L1dXyiQVRce6tQw6OyZ6QdDBpICx6deur7qW9Av0ZKbAAAMii86cP2998/zgnfUOmr0k6hFQAFJhWSc85Z09I/vJyL/ZCTdWKJLEgyiixEEZBL7EosAAAyKHzpw/b35T+iu/bVzxPX3ZOR3HdAxAxKTPVOqdHPU+PekV7Pc17rFCIKLEQRkEusSiwAADIo9E3f36/lJf+mjP/aybv65Lrz3UQQMh0SHpeu+6wipf2+hOFFbDTeTcNPchiWi5KLIRIz7I+6lkWvN8oosACACBALrjpPyoUT3zFSUc72dckDZYUIxkAAbJRcs85s2fM3HO925tX3HjZ6x3EAnyw824aepB5ekLGawQQHj3LeqtnWUWgPhMFFgAAATZy/qByaysa6rv0MMn7suS+JmlfkgGQI2lJrzrTCk/2tGfpZ+ZNqP2zTI5ogN1HiYUwClqJRYEFAEDInHvj0H5FRTbMyX1Z0lckfU5SCckA0ZTbpsiaJFdn0tNp2TPmJ5++46LV29gLQOYosRDG60SP0l7aq1vfgHxRCiwAAEJt+K+/WFZWnhjmu/R/OtkXTfqCpANIBkzK8THaJVcr6SXn9FJM/kuf2lT35+pq+UQDZMcF04d9Mp32l1NicZ0Ik+4le6lX+d4B2NkUWAAARG+CfOvgA5zFjnLmHyXZUdr5a4cHkgwTchTszk04qc6cXnKeXlLarVi/pdea5dXLU+wQIMfX6C4qsbhOIJcCUWJRYAEAUBhGzxnSy0/EBvguPcyZDTOnYZKODNp1lwl5RLFjcykl6TVJK8zcirTFVpQU93iJXwYEguOC6cM+mfLTT0h2KGkgLMpLeqp3+T55nEtQYAEAULDOu2Vgb/PiR5m5oyQ7yjkbKrnDxC8fdvGEiwiQNZslrTa5Oidb45nqtiaaVj/IrwICgUeJhTDqVtJDfcr3UV5qGwosAADwXpXThxU1Weoz5uyznu/1l+mzTq6/pCMkeXs20SBPoIskJL0uaYVzWus8+7P5sbV3XPTi34gGCC9KLIRRt+Lu6tN9X+W8uqHAAgAAu+O7077QU/HkZ2X+QCevv8kNkDRA0r6kA3SZpHP6u0lrJK2Rp9Uxz69r6/WZ/1s0YlGaeIDo2Vli+Y9L+hRpICzyUmJRYAEAgIwm3jf9R0XKOgZ5XuwzvnOfMXOfcc4+YztfTltEQsAH2mrOvSLZq5J71ff0Wtxzfyl18b/XVK1IEg9QWM69+fOf8LzUE6LEQoiUFpWrb4/9lLMKhwILAABkw9HVR8f77dPySSl1qGSHmrn+kj4ruUMlO1h7+jgiED5Jyb0p2d8k/dk5Wyu5v3kxb+3tVSs2EA+A96LEQhjltMSiwAIAALk2cv6g8nST92mZPu1Jn3bmHSzTQc53B3umg5xUQkoIiQ2S/m6yvztzf3fSGzFnf1c89fc31/V5c3n18hQRAdhdlFgIo9Kibqrovp/Msvy3SQosAAAQNOfdMrC3VHSo5O+6e0v9zGx/59yhkg6X1J2UkCPbtLOkWm/m/ub79jfJ/U3y/pZ0Ha8uunhtMxEB6EqUWOg6uatWSuJl6ttjf5ll8b/pVHvduYuGFG7KAAAgXJzs/Jph+ymVPkSed6DM39/JO0Dy95e8A+TcfpI+IUoufLSUpE2S3pTcBjl7S6b1Tlon33/LxeMb4mXJNxdcUNdCVABybVeJ9bikw0iDSiEssl5iUWABAIAoGjl/UHmqregTSvv7erJPOM/fz6QD5Nv+JneAM+srqa+kCuYekdIsuc2SbZbcVsnbKvnr5LwNJvemc25D2rd1R9Sv3FhdLZ+4AATVd2cMOtClYk9oj0osLmfIr+J4qfbu0S87JRYFFgAAKGTV1fLW9hlaURqzvs7UV/IrtLPY2seXVUjqa55VyPf7yrS3ZH0l9SS5nGiV1Kidj/Ft3VlI2WaZtpjcVt9pq/lui5NttmJ/a1G8z9a5Y5a3ExuAqNhZYsX3sMQC8qs4XrKrxOrid2JRYAEAAOy5824Z2Ft+vKcVeT3lp3vKWU951tP52stMvWSuh5x6StZTzvWUqaek3pLKJFcqWZmk0p3/f5VGJJa0pEaTUk6uSbKEpBZJHXJqlLlGM2138nbIaYfMNZq0Q75r9J3bIYs1SrFtcd92lBalG2uqViQ50gAUuuE3f36/Yi/9uJOOJA2ERVZKLAosAACAACxQfv3FsqLS5lI/HS/zYvFS5yfKzIuVelI3X67k7f/3vf83nrzuvlT0r/+WJ38vXx8/YzTPNTnfe/+v5HkuLd81fsD/cqOcS5tzO5x5fjpm24u9pJ9Ouu3JWLG/qGrFDvYiAGTpGkGJhRAqihVrn54HdF2JRYEFAAAAAECwUWIhjIpixdq7Rz95XizzfyygBZbHbgYAAAAAYKdFF7+4MeHHjpX0Z9JAWCTTCW1pWi/fT0f2O1JgAQAAAADwHosufnGjixdRYiFU3i6x0n4qkt+PAgsAAAAAgH9x54TnN1FiFR4X8i2RTmhz43ql0p0vsfyA7hsKLAAAAAAAPkChlViOLRJSflKbm9ZlVGIFEQUWAAAAAAAf4u0Sy5mtpbxBWKT9VORKLAosAAAAAAA+wp0Tnt+kWPwbMltLGgiLnSXWW0qmk5H4PhRYAAAAAAB8jDsnPL8p7pLHUmIhTNJ+Wlua1imRToT+u1BgAQAAAACwGxZcWLeZEgthk/bT2tq0PvQlFgUWAAAAAAC76Z0SS1pDGgiLtJ/WlsZ1SqQ63v0fhuxlaBRYAAAAAADsgQUX1m2OK/UNUWKFVwH+xKLv+9rSuF6JZEco39pPgQUAAAAAwB4KbYnl2Ar5Jxd952tL03p1pNpD99kpsAAAAAAA6IT3lFirKW4QFjtLrA1qD1mJRYEFAAAAAEAnLbiwbnMq6b4h02rSQFg452tr0wa1J9tC85kpsAAAAAAAyMCiy1ZuocRC2Djna2vzxtCUWBRYAAAAAABkiBILYfT2nVhtydbAf1YKLAAAAAAAugAlFsLIyam+aaPaEi2B/pwUWAAAAAAAdJF3SiypjjQQFk5O9c2bAl1iGbsJAAAAAICuNXza0L2L4na/kw4jDYSFybRXeUXdraMeOZo0AAAAAAAAAAAAAAAAAAAAAAAAAAAAAAAAAAAAAAAAAAAAAAAAAAAAAAAAAAAAAAAAAAAAAAAAAAAAAAAAAAAAAAAAAAAAAAAAAAAAAAAAAAAAAAAAAAAAAAAAAAAAAAAAAAAAAAAAAAAAAAAAAAAAAAAAAAAAAAAAAAAAAAAAAAAAAAAAAAAAAAAAAAAAAAAAAAAAAAAAAAAAAAAAAAAAAAAAAAAAAAAAAAAAAAAAAAAAAAAAAAAAAAAAAAAAAAAAAAAAAAAAAAAAAAAAAAAAAAAAAAAAAAAAAAAAAAAAAAAAAAAAAAAAAAAAAAAAAAAAAAAAAAAAAAAAAAAAAAAAAAAAAAAAAAAAAAAAAAAAAAAAAAAAAAAAAAAAAAAAAAAAAAAAAAAAAAAAAAAAAAAAAAAAAAAAAAAAAAAAAAAAAAAAAAAAAAAAAAAAAAAAACAa/j+AnHnnI3H+CAAAACV0RVh0ZGF0ZTpjcmVhdGUAMjAxOC0wNi0wMlQwOTowNToxNyswMDowMLH3qAMAAAAldEVYdGRhdGU6bW9kaWZ5ADIwMTgtMDYtMDJUMDk6MDU6MTcrMDA6MDDAqhC/AAAAAElFTkSuQmCC;" parent="tFHFQbnFNSWmSSy7VT7S-6" vertex="1">
          <mxGeometry x="43" y="10" width="86" height="86" as="geometry" />
        </mxCell>
        <mxCell id="tFHFQbnFNSWmSSy7VT7S-11" value="" style="group" parent="1" vertex="1" connectable="0">
          <mxGeometry x="750" y="540" width="140" height="142" as="geometry" />
        </mxCell>
        <UserObject label="" id="tFHFQbnFNSWmSSy7VT7S-3">
          <mxCell style="shape=image;verticalLabelPosition=bottom;labelBackgroundColor=#ffffff;verticalAlign=top;aspect=fixed;imageAspect=0;image=data:image/png,iVBORw0KGgoAAAANSUhEUgAAAgAAAAIACAYAAAD0eNT6AAAACXBIWXMAAByEAAAchAGF6bGLAAASOElEQVR4nO3de8z393zH8U8dWkMR1CFhWqqpTmOOiQmCoXXmj4YsxibYEhQtmzh01P4Qh/UPfyBl8weabqIltFaUSsUqIosGQ1qE0BRxmNI6dO+v72X37vW+796H6/d7f3/X6/FIXpGJpO907XU97+v6/X7fmw12msNqx9RO2PrPaXev3al2h9rta7esHVE7vHaTnjOBBfhd7bratbVraj+u/bB2de07tW/Vrqh9tXZl7fqWK1mJm3UfwCG7W+1hW3tQ7cTarVsvAjbF9AeAW2zttrW77uN/+/Pa5bUv1C7d2vdWfSCrIwA2z/Qn90fXTq6dVLt37zlAiCNrD93aS7b+u6/XLqhdWLt4zD9JYEMIgM1w8zF/wz+l9pQx/4sI0O24rZ1a+1nt/Nq5tY/Xft14F/tBACzb9C/W82vPqR3VfAvAvtym9uytXVV7b+3s2jc6j2LvBMAyPbZ2Wu3x3YcAHIQ7115Ze8WYfxrwltonWy/iBgTAckyv3n967XW1+zXfArAdpq9rJ23tS7U31M7rPIhdBMAyPKH2xtr9uw8BWJHp69uHal+svXrMPxmgkQDo9Se1fxrzj/wBEjxwzO8amN498PLa13rPySUAetyqdmbtxcP/D4BM0zubpj/8nFU7Y8wfRMQa+eazfo+rvbN2dPMdAN2m70Gn155Re2HtE73nZBEA6/NHtbfV/qb7EICFuWftotrbx/zOgV/1npNBAKzH9Kr+c2rHdx8CsGAvqj2q9qzal5tv2fEEwOr9Ze0dY/4JAAD7Nr04+vNj/hC09zffsqMJgNW56Zhf3PKi5jsANs30xNL31R485tcI/Lb3nJ1JAKzG9DS+6fOwT+4+BGCDvbR2bO2ZtV/0nrLzCIDtNz1O82O1P22+A2AneFLtkjF/YNpVzbfsKAJge/3xmD/v+tjuQwB2kAeMOQIeU/tu8y07hgDYPveqfWrMEQDA9pqejvrZMUfAFc237AgCYHtM3/R98wdYraPH/FPWhw8/CThkAuDQTb/zn/6B9M0fYPWOHvPX3EcMrwk4JALg0Bw55gda+J0/wPpMvw74aO2Rw7sDDpoAOHjT37vprX736z4EIND0VMHpE1afNnxOwEERAAdveozvSd1HAASb3iL45jE/VpgDJAAOzvTxvj7hD6Dfy2qXjfmnARwAAXDgph/5v6P7CAD+17trl2+N/SQADsz0QJ9zhgf7ACzJ9OyAD4z52QEeJbyfBMCBeevwSF+AJbpv7U21U7sP2RQCYP89rva33UcAsFcvrp0/5g9m40YIgP1zq9o7u48AYJ8Oq72rdmLtl823LJ4A2D9njvnTpwBYtum5LGfU/r77kKUTADfuhDH/WAmAzTB9LsB7al/vPmTJBMCNmz7wx98ngM1x89rbxvxBQeyFb2z79oQxv/gPgM3yxNpjaxd1H7JUAmDvpheTvLH7CAAO2j8OAbBXAmDvnl67f/cRABy06YOBnlz7SPchSyQA9u513QcAcMimdwQIgD0QAHs2/d7IY34BNt/02OBH1S7uPmRpBMCendZ9AADb5vQhAG5AANzQcbXHdx8BwLY5uXZs7ZvdhyyJALih53cfAMC2mt7V9bzaq7oPWRIBsLvpwyOe030EANvuubXX1n7TfMdiCIDdTT8mOqr7CAC23V3G/MFuH+s+ZCkEwO5O6T4AgJWZvsYLgC0CYJdb1J7SfQQAK/PU2uG167oPWQIBsMv0PtEju48AYGVuV3vk8PHAvycAdjm5+wAAVm76Wi8AhgD4v07qPgCAlZsC4OXdRyyBAJjdrXbv7iMAWLnjx/yOgB90H9JNAMwe1n0AAGszfc3/YPcR3QTATAAA5BAAQwD8wYO6DwBgbR7SfcASCID5M6JP7D4CgLW5b/cBSyAAxjimduvuIwBYm9vW7lH7dvchnQTAGCd0HwDA2t1nCIB4x3QfAMDaxX/tFwD+IQBIFP+1XwCMcffuAwBYu3t0H9BNAIxxp+4DAFi7o7oP6CYAxrhD9wEArN0duw/oJgDGuH33AQCsXfwf/gTAGLfsPgCAtYv/2i8Axjii+wAA1u7w7gO6CQD/EAAkiv/DnwAY4ybNf/3Dmv/6AF2ub/xr37Txr70IAgAAAgkAAAgkAAAgkAAAgEACAAACCQAACCQAACCQAACAQAIAAAIJAAAIJAAAIJAAAIBAAgAAAgkAAAgkAAAgkAAAgEACAAACCQAACCQAACCQAACAQAIAAAIJAAAIJAAAIJAAAIBAAgAAAgkAAAgkAAAgkAAAgEACAAACCQAACCQAACCQAACAQAIAAAIJAAAIJAAAIJAAAIBAAgAAAgkAAAgkAAAgkAAAgEACAAACCQAACCQAACCQAACAQAIAAAIJAAAIJAAAIJAAAIBAAgAAAgkAAAgkAAAgkAAAgEACAAACCQAACCQAACCQAACAQAIAAAIJAAAIJAAAIJAAAIBAAgAAAgkAAAgkAAAgkAAAgEACAAACCQAACCQAACCQAACAQAIAAAIJAAAIJAAAIJAAAIBAAgAAAgkAAAgkAAAgkAAAgEACAAACCQAACCQAACCQAACAQAIAAAIJAAAIJAAAIJAAAIBAAgAAAgkAAAgkAAAgkAAAgEACAAACCQAACCQAACCQAACAQAIAAAIJAAAIJAAAIJAAAIBAAgAAAgkAAAgkAAAgkAAAgEACAAACCQAACCQAACCQAACAQAIAAAIJAAAIJAAAIJAAAIBAAgAAAgkAAAgkAAAgkAAAgEACAAACCQAACCQAACCQAACAQAIAAAIJAAAIJAAAIJAAAIBAAgAAAgkAAAgkAAAgkAAAgEACAAACCQAACCQAACCQAACAQAIAAAIJAAAIJAAAIJAAAIBAAgAAAgkAAAgkAAAgkAAAgEACAAACCQAACCQAACCQAACAQAIAAAIJAAAIJAAAIJAAAIBAAgAAAgkAAAgkAAAgkAAAgEACAAACCQAACCQAACCQAACAQAIAAAIJAAAIJAAAIJAAAIBAAgAAAgkAAAgkAAAgkAAAgEACAAACCQAACCQAACCQAACAQAIAAAIJAAAIJAAAIJAAAIBAAgAAAgkAAAgkAAAgkAAAgEACAAACCQAACCQAACCQAACAQAIAAAIJAAAIJAAAIJAAAIBAAgAAAgkAAAgkAAAgkAAAgEACAAACCQAACCQAACCQAACAQAIAAAIJAAAIJAAAIJAAAIBAAgAAAgkAAAgkAAAgkAAAgEACAAACCQAACCQAACCQAACAQAIAAAIJAAAIJAAAIJAAAIBAAgAAAgkAAAgkAAAgkAAAgEACAAACCQAACCQAACCQAACAQAIAAAIJAAAIJAAAIJAAAIBAAgAAAgkAAAgkAAAgkAAAgEACAAACCQAACCQAACCQAACAQAIAAAIJAAAIJAAAIJAAAIBAAgAAAgkAAAgkAAAgkAAAgEACAAACCQAACCQAACCQAACAQAIAAAIJAAAIJAAAIJAAAIBAAgAAAgkAAAgkAAAgkAAAgEACAAACCQAACCQAACCQAACAQAIAAAIJAAAIJAAAIJAAAIBAAgAAAgkAAAgkAAAgkAAAgEACAAACCQAACCQAACCQAACAQAIAAAIJAAAIJAAAIJAAAIBAAgAAAgkAAAgkAAAgkAAAgEACAAACCQAACCQAACCQAACAQAIAAAIJAAAIJAAAIJAAAIBAAgAAAgkAAAgkAAAgkAAAgEACAAACCQAACCQAACCQAACAQAIAAAIJAAAIJAAAIJAAAIBAAgAAAgkAAAgkAAAgkAAAgEACAAACCQAACCQAACCQAACAQAIAAAIJAAAIJAAAIJAAAIBAAgAAAgkAAAgkAAAgkAAAgEACAAACCQAACCQAACCQAACAQAIAAAIJAAAIJAAAIJAAAIBAAgAAAgkAAAgkAAAgkAAAgEACAAACCQAACCQAACCQAACAQAIAAAIJAAAIJAAAIJAAAIBAAgAAAgkAAAgkAAAgkAAAgEACAAACCQAACCQAACCQAACAQAIAAAIJAAAIJAAAIJAAAIBAAgAAAgkAAAgkAAAgkAAAgEACAAACCQAACCQAACCQAACAQAIAAAIJAAAIJAAAIJAAAIBAAgAAAgkAAAgkAAAgkADod333AQDkEQAAEEgAAEAgAQAAgQQAAAQSAAAQSAAAQCABAACBBAAABBIAABBIAABAIAEAAIEEAAAEEgAAEEgAAEAgAQAAgQQAAAQSAAAQSAAAQCABAACBBAAABBIAABBIAABAIAEAAIEEAAAEEgAAEEgAAEAgAQAAgQQAAAQSAAAQSAAAQCABAACBBMAYv6vdpPsIANbqt90HdBMAY1xXu0X3EQCs1bXdB3QTAPM/BAIAIIsA6D5gAa6p3bb7CADW6pfdB3QTAGP8uHbX7iMAWKsfdR/QTQCM8cPuAwBYu/iv/QJgjKu7DwBg7eK/9guAMb7TfQAAa/ft7gO6CYAxvtV9AABrd2X3Ad0EwBhXdB8AwNoJgO4DFuCr3QcAsHZf6T6gmwCYK/DntSO7DwFgLX46vP5LAJTra5fXHtp9CABr8eXuA5ZAAMy+MAQAQIrLug9YAgEwu7T2ku4jAFiLS7sPWAIBMPMPA0COz3UfsAQCYPa92tdrx3UfAsBKTa/+/0H3EUsgAHa5YAgAgJ3ugu4DlkIA7HJh7dTuIwBYqQu7D1gKAbDLxbWf1W7TfQgAK/GT2iXdRyyFANjl2tr5tWd3HwLASnyodl33EUshAHZ37hAAADvVud0HLIkA2N3Ha1fV7tx9CADb6vu1T3QfsSQCYHe/rr239sruQwDYVv9S+033EUsiAG7o7Noraod1HwLAtpie+XJ29xFLIwBu6Btj/lXASd2HALAtPlq7ovuIpREAe/aWIQAAdoq3dB+wRAJgzz5Z+1Lt/t2HAHBIpqe9fqb7iCUSAHv3hjG/ZxSAzfX67gOWSgDs3Xm1L9Ye2HwHAAfn82P+/T97IAD27TXDgyMANtVrug9YMgGwbxduzQsCATbLh8f8ei72QgDcuJfV/nz4ewWwKabP+z+t+4il803txn2tdlbt9OY7ANg/09v+vtl9xNIJgP1zRu0ZtXt2HwLAPk0f5nZm9xGbQADsn2tqL6xd1H0IAHs1feTvC2q/6j5kEwiA/Tc9RerttRd1HwLAHp1V+3TzDRtDAByY6SFBj66d0H0IALv5z9qruo/YJALgwEw/VnrmmD9c4pbNtwAw++/as2rXdh+ySQTAgfty7fm193UfAsDv/VXtq91HbBoBcHDeX3tw7aXNdwCkm97y92/dR2wiAXDwps8FOLb2pO5DAEKdV/u77iM2lQA4eL8d8+sBLqk9oPkWgDSX1f6i9rvuQzaVADg0v6g9YcwRcFzzLQAppt/3Tz99vab7kE0mAA7dVbXH1D5bO7r3FIAd78raY2tXdx+y6QTA9vjumCNgevLU0b2nAOxY0zf/6Wvt97oP2QkEwPa5ovbwMUeAXwcAbK/pwWzTk1l9898mAmB7TT8JeETto7UHNt8CsFN8ofbE4cf+20oAbL/pNQGPrJ0zvEUQ4FCdN+ZX+3vB3zYTAKsxvTvgabU3117WewrAxpo+5Gd6n7+3+q2AAFid6XMCXj7mH12dPTw7AGB/TZ/t/9e1f+0+ZCcTAKv3gTE/P2D6z/s23wKwdNNT/aYH+/hs/xUTAOtx+ZifHfCm2otrh/WeA7A419fOGvMjfT3Vbw0EwPpMjxI+tXZ+7V21e/WeA7AY36i9oPbp5juiCID1+1TtxNo/jPkFgjdvvQagz3VjfqHfmWP+QxJrJAB6/HLMr2x9T+2tY35/K0CSD9dOq32z+5BUAqDXf435swIeV3vjmF8nALCT/Uft1WP+1FQaCYBl+PetPbl2xvApgsDOM70l+vVj/qRUFkAALMtHtvao2um1k4d3DACba3pl//QNf/o9/2eab+H/EQDLdPHWjq09r/bc2l06DwI4AN+v/XPt3WN+UBoLJACWbXpxzPSe2NeO+XUCp9SeWrtd400Ae/KT2odq59Y+UftN6zXcKAGwGaZ/kT62tcPH/LChk7d2fONdQLav1C6oXVi7ZMxv62NDCIDNM/0LdtHWpmcN3LX2Z7WH1R4y5s8YuE3bdcBO9dMxf6z5ZbVLa5+r/aD1Ig6JANh80+/aPri1P7hH7T61Y7Y2/d9H1e5Yu8OYH0w0/SThiNpN13kssCjTQ8uu3dr0+SQ/qv2wdnXt27Urtzb9Sf87TTeyIv8DfbZ/x6E74TgAAAAASUVORK5CYII=;" parent="tFHFQbnFNSWmSSy7VT7S-11" vertex="1">
            <mxGeometry width="140" height="140" as="geometry" />
          </mxCell>
        </UserObject>
        <mxCell id="tFHFQbnFNSWmSSy7VT7S-10" value="" style="shape=image;verticalLabelPosition=bottom;labelBackgroundColor=#ffffff;verticalAlign=top;aspect=fixed;imageAspect=0;image=data:image/png,iVBORw0KGgoAAAANSUhEUgAAASwAAAEsCAYAAAB5fY51AAAABHNCSVQICAgIfAhkiAAAIABJREFUeJztnXdgHNW1/7/n3JmV5O5gwDbuRaIkJICKDYTyCAlpj07yUkjy0gMPHiGAcdGiYgOBhBTyCKQ+8tIIIaH8UiGEbmklCCEUW+7GDQOuKrsz957fH7NrZFm2JWulmdm9nz8w2pnd+Wp356tzzz33XILF0oN5z06axR6qmZyZAkxTpMoE7DJzgoBhIjQcJMMgGAagDEJlRFImgBChBEIOAIDEF0GaAAKoA5AuAToJ6BRQO0TaAXQImTTE+Fp0pwBrIP5K46L5phNfXRHqG2GJHBS2AMvQ89XUxMmulnMcLp3kkDMGRFMIOFaExoOIGMIgckTgsiImAgTI/idAcg9kH9tzSLA3tNc/2f8hEO19DmVf02gxRPAg4huQgYiAZDOAlwSyVht/hy9dr6eN99S35r7+bL7eE0s8sIZV4Fz68MTDpowprWGhcwh8JohLiagUgiOUSwkgMAoxyLkQgH0NakihHl9MIhBjj8lpTwxIXhNBu0AyJCZlYP64YfuOx3989hsbw5BsGRqsYRUYC5onf4rJ/RCTeyQI0xzFk4nfMqVcZCSC8AwpDxBn/0XWzDj4/bRv1gmwRsTborX/4OI5634WrlJLPrGGFWOubZo1KUHpLzCXTCGoE4lwDEDMHNzOIhJETkVEEIkFY1gjYgAxEKwRkZQv6TbHMXfWnbjeRmExxRpWzLi2acJ5Zc7If4PgHIDHEHC4cijI/xiJddQ0KFBgYMyA9gUCbAXMNkD+1OXv/ttNczbeT/Y2iA32k4oBC1IzP6KIv0Lgo5TimcSA0QBEuqedLH2AKPgPq+wQ0shqiF6v4X+3sXL1vWHrsxwYa1iRRLCwefqtihPvIOLTlKJSkeIc4g02uSEkEeD7xoPI01q85sbqVdfa2yN62E8kIgjuwYLma652qeQcEFURaDQ7BNE2ihoqiABigtECgewQMf/SxnugsWb11+2wMRrYTyFk/tD2/lFLt6/4MRNXKYenCGBNKgLkzIsIML5Zq2H+aThzXeOJa18OW1sxYw0rJBa1zLiN4Z7tJvg4MUHC3A73ogkxwByUT/ie/EvrzOMN1asuC1tXMWINawi5tnnip8p4xL8T+L0gjODs8MMSH1gRxAgAaTcGj3eZHb+6uWbz3WHrKhasYQ0B85tnfNol5woiPka5VGp8O+SLO0SBeRktnUakTcP7fmPlqjvC1lXoWMMaRBalpt/MlLjQTfBMowEx1qgKjVyuixXgZ8wKbbyHGqpXXRW2rkLFGlbeEdS2zPoxwzmfFY8JlsRYlyoG3krSy04D//76qrZL7S2WX+y7mScue3LscYeVHnYlQ53PDo+zM33FCxFAiqA9eUNIP7C9c9v3vvPu11vD1lUIWMPKA4tSM+9Q5F6kXBpntJ3tswQQZ/NcntlmxP9dXdXKz4atKe5YwxoAtc0z7lLKvUi5PFZ7NqKy9A4RoByC78tOEf+eusoVnw9bU1yxhnUILGyavkAp9zJmNQGwEZWlb+Ra4hgjW3yTuX1x9erGcBXFD2tY/eD6pikXJVRpHYGPJSabTLccErnvjsA875ndVy+p3vhI2JrigjWsPiC4BzekFv4/J6E+IAa22NOSF1gFrVW15z9UV7X8w/Z2PDj2HToItalZPyVSFynFw61RWQaDoADVdBijf1tfveLSsPVEGWtY++HapqMuGqZGNLDio23Bp2WwyRWgaq2Xe2b3oiXVG+8JW1MUsYbVC8mW2b8m4guY2bFRlWUoYUUwxvii9QN11SsuDFtP1LCG1Y35S6delnBKa5XLR9j1fpbQIEApgtZ40/M7GhbXrP1W2JKigjUsAFc8OWHK2NKRP2Dis0Ck7OyfJQpkdwIyIubhnbu3XXbbmVuLfmPZojesBS0TTnVo1L1K8ZFG200cLBFjT1cI81qn7PzCzZWb7g9bUpgUtWHVtsz+P0XOx0G2+NMSbYKiU4I2+tf1lcs/GraesChKw7r26QnvKysZ9W1FXGHERlWWmEBB51PtmxUdeseVt8zZ/IewJQ01RWdYC1PTki6VXEO2rsoSU3J1W77xbmqsXtUQtp6hpKgMq7Zl9p8UO++z+/lZ4g5lN4j1tf/X+qq294atZ6goCsO6InXk29/GY+5Ximdo3zqVpXBgh6B9vXY37brwGydtKvieWxy2gMFmfvO0K99GYx9la1aWAsT4AqXU1JEy6i8Lmqd+NWw9g01BR1i1LbNuJ6gvMbOtrbIUNMQEiNG++D9qqFz5xbD1DBYFa1jJ1vKnHUfNtRXrlmKBKBgi+p5+pq5y+clh6xkMCs6wvto8sXwkj/idUupYOwtoKUZYEbTWL3d17bj45lO3vBi2nnxSUDmsa56a+K6RNPJh5VizshQvRguUo44pKx3zp2uXHnlm2HryScEY1vzU5I8OLx31hHJ4srHJdUuRY3wBK5403B374PVLj/pk2HryRUEMCRelZnxDUeJyYiTsEpshgnr934Mie/5jGQqIARjxfPG+21C16uqw9QyU2BvWouaZdzrK/SwIyppVnqG3ChRzPwPBX28QfAgMCEYAIREhgkCA3MfABIgEzyIiyv4/E0EBUKSyL5g1MBG7pnMwyH58Wmv/x/XVK74QspwBEWvDqk3N/h834XzZzgQODGKAEPQXJ85+wYmg00YAWSFEW8WY3QbSBZiMEf0qAWuM+FuJZeMIZ8SaZ094Zc1venltAfBH+cCIltTyqR78UVownYHpYDqKhI9gZgWoUgBjCZgA0BSnhJFbjSAmeBFB9jO2n/Mhkdvc1U97t9XXrIhtvVZsDSvZWn6vm1AX+mn7De4PgRkFi2iJAO0LxMhmIbwh4r8OQrND5sHak1Y9EebX49bnjj12h5/+FBOfCvBIAKMATHQT7IoBjJGskcGaWD9wEgQv4/9fXWVbLPNasTSsZEv5g8zqQ7YYtA9kh3TMgPbFALJTRHaKyGMa+iUt7a91+l3PfvuUHf8IW+qB+NSjh48fXyqnOc6IaQ47J5Co0wQoI9Bw5VLCaNht1/oIMaC1/7v6qhUXhK2lv8TOsJIt5fcpR51vm+3tn2BYR9khlIgYWSaQf/iSXk7G/7/GORvawtaYD6TlTizQjVe5qrQSwicRUQVlI0ebDzsA2aaA2tf31VUuj1Xf+FgZVrKl/HeJEuc8L22/iT0hDpZnMAM6I5sM9Got5veNVStvCVvbULKgecY8RepDxGqK49DkIA9m81+94ZYw0l3+b+urll8Utpa+EhvDSraUP6gc9SFbY/UWlGuf64sYko0wpjVjOn+yYu3Ox39zyc43w9YXJgLBvKUTzy11Rn4FoOOYaDwrUkbbCZruBEt5vNgMD2NhWLWp8nuVUheK7Q4KINfATQBIlxAe9f2uJxfXrFkSk48zFOY3TbnG5dKTiei9AA176z0scrKlK8boWCTiI/8NTzbP+p5b5n6l2GcDuw/5vIy0GvEeaahaeV3YuuLIwuYZtzrsnqJcngMJZhyLPd/lJAiZrsy366tX/nfYWg5EpA2rtmXWXa7jfr6Y+1gRA8oheBmzBWKeT/udl90099Wi3+4pH9wDwYupWb8hdk51XB4flHiErSo8lEPwvMyd9VUrvxS2lv0RWcNa2DTjm66TuAKAKsacAzMFtUaQjQb+z3d1vfm/t526raBW3keFLy4dN3u8M/YrAP0Hg48gRVSMw0UiwAi0NplvNVav+lrYenojkoY1v2nCxxJq9E+KcW0gKwIx4HuyWkz63vrq1deGramYWNg8Y4mrEhewQxWiswWqRUR289ZMl7RfelPV+l+HracnkTOsa5vGVw5TYx4lxohiMivi4KMwxrzg68xdi2tW3x6ypKJmftO0S11Vcq1y+DgxxVWUGiyYRvtub8dpt8zd9GzYeroTKcO66plJs0Ylhv9NMU8ulpCcGMESEzHrfOPf1Fi96o6wNVne4vqmqZ9NqNKFBJqWjT6KgmwTwHW7Onef/c13b1wetp4ckTKsZEv5i8pRxxZDrRVREFUZbV7zjf/LxojPzhQ7C5unf11x4lKl+Mg9hagFTnZHnhfrKpe/PWwtOSJjWMnW8qcVq7kFH1kRoBRB+9LhG//njTFv91Fs1KZm/1Cx+gQrKtFFsDyMFUEb81TdSctODVsLEJGOo7UtM//HcQrfrJgJBGjf8/8upnOmNav4UV/V9rmdYib5nn4YgM8qMn/zBwWjBY7Dp9S2zIpETjX0d3t+09SrSpyyW1DA5Qu5li6iZXMaHTfcWLX+zrA1WQbOdc9M/nRpYlg9E08u5N3EiQCI6LTuumZJzdrbQtUS5sWvbhp/7Eg15jFiGleoszCsCKJFNPS99ZVtl4Stx5J/FqVm/4ZJXagKuH6LmGBE3ti1Y/NZ3/y37c+HpSPUIeEIZ/RD7BSmWREFlcNam9UJ0bOsWRUuDVVtFx9X+TJrbdrYoVxL4oJCjEApOmzUyCPvC1NHaG9tbWr2XxzXObsQZwRZEYyRLjH6vrqqto+HrccydNSmZt3N5HyEFSUKMdpSDsH3/L/UVbW9L4zrhxJhLUxNSzqqQM3KIRhtNqZl9+XWrIqP+qoVl/p+51e1MVvYKbxQS/sCVs57FzXPXBjG9Yf8Hb2macJ7R6hR94FoeCElKXO7y2jjL62rbJsbth5L+CRT5Y+zUu8utIR8tqNrR6e346Kb527+41Bee8gjrOFq5HdJcUGZFSuCAF2en77VmpUlR13V8tO0Ti82kM5CKn8QAVjxsDJ39DeH+tpDali1qdm/YKXKC2lsH+SrzOau9O7/bKhedU3YeizRor5q1UJP7/q09uWNQjItowWs+OhkavbPh/K6Q/YOXpca//5hPOYPhbQtU7BlknmhrnLZ8WFrsUQdQbLl6OfcBL/LzxTIDZBNg6TR/p4lJ657ZCguOSQR1mWPjJ9ayqN/Egx+h+KKgwtl9/Xz0v4D1qwsfYNQV7nshHSXdw9RgZQ+ZO9lV8p+/l+Pvm3SUFxySAxr3OhRd+YWjcadbHcFz/Mzd9VVtZ0bth5LvGioXvER7WfuMAJNkVgYNzCC+iw+cuyIcT8eiusN+ls2v3nalQQ+uxDyVrnmZj68+obqlV8MW48lntTXrPyKwFsiBplcH7Q4Y7SAmc+av3T61YN9rUE3LFeVLiAmjvtQMNuyuN3zd1zSULmyMWw9lnhTX7myNm12XihidsY+GS8AETjhlAx6bdagGlYyNfteR9HhcR8KZvtW7czozurFczbdH7YeS2FwY/XGh0SrCq3NtrhHWmIA5dCY2lT5Q4N5nUEzrPnNEy8h5nN1zIeC2bKFLZ3+7nNvrFn3Uth6LIVFXfVLmzPerg8bI1vjHmlpLVDM58xrmvQfg3WNQTMsl0c0MLMT56EgOwStZdNOr/3Um+du+HvYeiyFyY1zNz7Vkd75Xq1lU6yX8whATKpEDbthsC4xKO9ObfOsux3X/WScE+25gtAbTnplQgTahlmKAsENLUdvYMUT437vaO3/tK6y7TN5f+18v6BIMsGsLoxz3oqYINps7fTfPMealWXoILSnO07T2myJc04ruPf5YhmE4VXeDSvZ+osHWPGwuK4VDBrume27ZcfFN9dsDa1RmaU4ueWU9Ss70jsvNsbsiGtOSwRQiocnU+V/yPdr59Ww5jVNuTjhOu+LazhLDGitd0sax91StfmxsPVYipNbTtn0RAZdc4yW3XEtLjVa4Cac9y9YOjmvxdV5fTtKVGmdiem+bUQADLyM7P543anLNoatx1Lc3Fi59pWM7L4kKC4NW82hIQZwnLIl+XzNvL0VC1Izapn4mDhGV9kljr6Gf+uNVRsfCFuPxQIAS6pe/aMv6XoY8eK49tBoARMfu7B52qJ8vWbeDMsh9yvxzU8TtNE/rK9cMT9sJRZLdxqrVi/2xf9RbFdLE6C49Mv5erm8GFZtatYPmenIOG7j7SQIWvu/bahqy9ubarHkk4aqlV822vu9k4ifaYkBmDFhUcvMvGxtlxfDInIuysfrDDWsCF5a/6u+ui2W+i3FQ13VivO9jPlnXGcOGc5H8vM6A2RRatYP3ASNjlt0xcF28W9kXtp9RthaLJa+UFe57J3GmM1xMy0xgJvg0QtTM78/0NcakGFd/uSYdzrsnK+9eCXaiQCjpcszu6+48VMb3whbj8XSVzq9XVcZbbriltLSnsAh98IrHh379oG8zoAM67CSw65ghw6LW5EoEUGLd+uSmld/EbYWi6U/3Dxn46+08W6nmDmWCKBcGjd2xGFXDuR1BmBYAiL33+NWxsAOQRv9TEPVyrxNtVosQ0lD9aprtPGfjttCaaMFIHXeQPqkH7Jh1aZm/zTYZv6Qrz3kBIsyzZa6yuUnh63FYhkIdZVtp2hfNsQpnxX0zOJxydSsHx3qaxyyYRE550mMoqts3irj+522W6ilIMhgd9IYiVU+S4wA7B7ycp1DMqyFzTNuVYpGxyl3RYpgxP/14pp1t4etxWLJBzdWvvojMd59sYuymA5b0Dqt9lCef0iGpdg9L05mxYpgfLOivmrFpWFrsVjySV3Vyo/7nlkZJ9MCAFdKDqkuq9+GtbB52ufdBM+MTb+rYCiI02eOrwpbisUyGNww5rIKMaLjMjQ0WqASfOyC1PRP9ve5/TYsxe7lRvf3WeFBRNDw7ztz7GPbw9ZisQwGNPsKrY2+J05reUUDDtz/7u/z+mVY1zeP/xRBlcclusq2Od7QULniwrC1WCyDSX1V28eMkQ0ck06lYgTMfMx1TeP7labpl2El1MgLlEOlschfEWB843tex6DvlWaxRIGMTjeIiI5DpCUCsENlZWrU+f15Xv+GhMJnxaVQVCmCkHl8ydz1Pw1bi8UyFNxYs+ZOY/QTKiYJeOMLBHR2f57TZ8OqbZ5xOxMNj0N0la25Svtep50VtBQXRBcbX9rjkIAXAZho+MLU9O/09Tl9Nixm98y47ORBTNCif7F47qsbwtZisQwldZXLX9fG/0Wc7lVFJWf0+fy+nNSYevtkKdHrdCb64RUxYIxsqatcNj5sLRZLWNzQUrGFmI6Iw9I55RImTBt92OdGL33zYOf2KcJKI307YvCLA0GYKcjcHbYOiyVMjHg/j82u6wKsXf56n9YXHtSw5J57oIjfZWJQykBMEDFr6ytXXxu2FoslTOqrVn1VRNbEoczBGAGTOqEvXRwOalgLpl57jXJ4ShxCSyLA1+mbwtZhsUSBtM40Rj/MyG0HxlPnN0+7+mDnHtSwXFXy/jjMDDITtDEvLq5ZO+A2rBZLIXBjzeofGWNeiMM6QwHgouScg53XlxzWiXGobCcFaN357bB1WCxRQhvvjjhsxCpaQEyVBzvvgL/KwuZptxKi30aGFcH3ZVlj9bofhK3FYokSjdWr7vC96OeyRAAiGr0oNfXmA513QMNyuOSEOLRhFS1idOZ3YeuwWKKIlvSvRaIedgCkiBilJx7onIMEi3Rq1LuKEgMG8lpD9arrw9ZisUSRxqrV80RkU9SHhqIFIHr3gc7Z769Q2zr5I8qhRNR9WTkEwPwybB0WS5TRxvuFivhoSQRwHCpJtkw9b3/n7NewyJR+OepmRQz4ntm8Kb3Ftj22WA7ANr3tbu2ZLZGPsgQQSey3T9Z+5AuI1eSoD3uZCUbrprtO2bkybC0WS5S5fe62F4yR1qivMRQREHjS/o73aljXLZ14LjPNiHqxKDEw/siyz4Stw2KJA26p/hJHPcIygFI889qlR/x7b8d7lV/qjjwr6qEjK4KX0a1fmfrCtrC1WCxxYOE7Vq73MiYV9UJSUkCpGnVGb8d6tyXB+6Let91ogRH/sbB1WCxxQoz3cNSbcIoGAPWB3o7tY7XXPTlhSmnp6BYmHB7VFBYRICIdN1QuGx62FoslbtS1VnQAVBbp+xvy2qiMOuarc1/aq+XMPhGW6zifI0TXrIBgOCiQP4etw2KJI0bwWJSHhSIAhI54g3Zd2fPYPoalnNLpUa/X0FqMZ7qawtZhscQRT7oe9/0ohyRBfaXjlk3r+XgvOSyuNBGeHSQGILJ5SfXaA645slgsvbOkas2NgGyM8sSaGABCJ/V8vDfJs6Ncf0VMMDAv9LG7s8Vi2QeCEfNclGuyjAiIUNHz8b0Ma0HLtE8REUW5tSoRkPZ33xG2Doslzvhm948iXZMlAEC8qGXqx7o/vJdkFv4Qc3QDRWLA92X9TXM23h+2Foslzry8cfcTOhPtBdFMxDDq3L0e2/sE58ihldQ/iAhi9Dqyw0GLZUD8/vxdbxjo1RTlDQwJYHb22v1qb38lmhbl/JUIYEg/GLYOi6UQ0GJ+H+HbPbuukKZ1f2yPvX7q/x0+ftZR4zZpP8K/AYAbKl+J8J8EiyVe1LUebQSIbN6aHULba28e+bP3bnkN6BZhTT585MlRHs9mZzReCVuHxVJIiMiyKA8LmYEpo0bM3fPzWwfoPVHuzsAK0KKfDVuHxVJIGMjzUZ4tFAM4Lr0n9/MeqST87siOZwnQvvG17vpX2FIslkJC685XtB/dUEUEEEOn535+y1uJy6KacCcAIth1ds2M74StxWIpJKZ0HHE7keyI6qhQRMDEZbmfGQCueGrs2wEaFp6sg0AAAZ1n0mPtYUuxWAqJL57Z+roR2RXtSiEaduWTEyuArGENUyWnAXJERAMsMBOExPa+slgGBXk8qvsWSjCFeXipa84AsoaluOxIx2UV1anNoMLd/0fYOiyWQsRAvxjZCgEB2GXXQckEAHAAwGFnTLiqDgABvid+Bu3rw5ZisRQiaa9jk5JEpPsJOCoxGshGWCI8NarDQQoy7hu7OrwnwtZisRQiu3zzBDHWRzXKCryJpgBZwyKSY6M6sUkgiMjO75755qtha7FYCpE73v3aKiOyPbJrdA0AwbHAnrIGOgKRDbEAkOwMW4bFUsgIzLao+pWIAEQTgLcMK6LBYKBMxNjhoMUymBjTFF0XAHIexQ3/mjWTSSIrlQgYNazk7rB1WCyFjLj0/6JaPAoADOHGZ6dP5a6OrjkAOREdEAJE+NpxL70UtgyLpZBpOKHtMUTUsQJvImd3l3cyg5yZInCjWoPlpyM6G2CxFBQU3GtR9CwBBHAdpWYwCaaxiuboNVAl68LWYbEUCSsiGmSBFTExT2MmVRpVkdn9MDaFrcNiKQYE2BrV3ljBbtA8nAXsRnQ0mGNb2AIsluLA7Apbwf4QAEzsMDMnopq/CsbTuitsGRZLUSDSFckcVhYSLmECottWBoAR44etwWIpBgx0JrLBiwBglLEIDQ9by/4QLRCYrWHrsFiKAsGrRkfVsQCIDGdAhkd1VQ4ADSMbwhZhsRQDRvRaEPwoDguzC6CHMyBliGIcSIAItIFeHbYUi6UoUHoLBBEtfBQQqIwJVBZRvwIAo5jXhqvEYikOxJfNoIgalgBCUsZCVHbws8NBCMJEb4Stw2IpBlyl1gpEIjgiBACwUClDpDSCARYAgETkXSdN2xy2DoulGHipau0qkiiOt4KklQFKmQiR7eUOAOfT37eHrcFiKQZ+E7aAgyHiMAlU2Dr2B0VyNsBiKVwie88JQESKTXYjiigSzeyfxVK4RPqeI3Ei2aXBYrFYeiICYQYiu/TFuqnFMrREdD/V3O7vaRaCDlvL/pBothOzWAqSewCIRPOey4rKsAh0NCVaLJahZHPbCYeHreEgZBhEXVH1KyGiG587elrYOiyWYmB7+xtHUFQ7+AVkmEQ6w1bRG4Jg2Lrb3z4tbC0WSzHQqfG2yKZhCBCQx0LojKhEQMCMxPiwZVgsxYBjnKkQcDQLsQAipJkEnVE1VRBYRB0ZtgyLpRgwoqdFdeVLMFKVnSyg9kiOWgWAwCHwtLClWCzFAIEmAdFd+QLBboZIe9g69gcrAgiTwtZhsRQDBGccqShGLwEC6WAwOsIWsl8IYKhE2DIslmKAiCO7TC9o6ClpFjHpqKawgrE0lYYtw2IpBoi4JIr5qxwC8Rhi/Kj6FQAQY0TYGiyWImFs2AL2R+BRYthAd0R1EwoRgQhFvfrWYikMBBMlomZgtMCIeZONmLVGSyS7SogADJoVtg6LpRhgpsmRdAICjIgH8V9ksFlJBC+SeSwBVAlHtqeYxVJIqEQ0+6MQAAj5YP1PZlATRKKbxxJB47Plp4Utw2IpZBa/MP14RHQ4CABE0IurNjzNjZXrVxpQFANBAMGwMO2ZD4atw2IpZNKd6tII+xUk220qGwNGcuQKIFBGjJqwdVgshQ2dHFkXIAAwnUC2qSdBtiCS63OQbT7vvC1sGRZLIUOKRkY1VUxEIMEaIGtYArxE0cy3QSBgwpjLm0ZPD1uLxVKIXPb0mKkAjY7oloQgAoTMy0DWsIzIusgGWAYQocnDTJlNvFssg0AZJU4JarDCVrIfCBBjNgJ7DMuP9GalToJQooZNCFuHxVKIlDnDJrkJjmRbGQAQDWSQ3gFkDcsznVu0L34ka7GQTbxDHRu2DoulEGFOnBjVhDsFRaPbjfHeGhJ6LI+JYGtUh4XGCIjo9LB1WCwFieA0YyIaXgVdGnZ8fc6WB4CsYd1WveVFQKLbZkYAMI28R94zOmwpFkshccvzM44AqDSqw8GgpkEyueXPb80NiumM6oYZ2TWFo/7Rsvy/w9ZisRQS27u8zxFhZFT9igiAkU25n/cYlhCeiKhfAQBYkXKo9JiwdVgshYTi0rcrh52oRljEgCH/wdzPewxLk/5rVGuxAMAYgMDHh63DYikkiPlEE9m93wPD8jzzSO7nPRa1Zfvup6M6UwAEvbEIsBGWxZJHSKhCIppwJwK8Lum86eS1z+Ue22NYPzzrtS3aN+siG2UJQExYmJp5TdhSLJZCYGFq6vXE0c0DEROIZFn3x/ayJwHWRDXxDgSOq4jPC1uHxVIIMBIfjPDtHjTug7zR/aG9DUu8LVFNvgHBsJChpl98zyi7GNpiGQACAUFNiWpLZAAQLZBswWiOvQxLa/+yur91AAAd00lEQVRBI9HNZIkBVIImzJo6yq4rtFgGwMKlU851EhFtiQzkyq704aXq5u4P72VYi+es+xkgJqpLdIBgtjDBZZ8JW4fFEmeUKrsswsFVUC4Kab/i+BWvdn983xS7YDlHeGArRgDik2yfd4vlUBEw0XFRnR0EgoS7iCzt+fg+hiUwz0Z2phC53qg0cUHzlHlha7FY4siC5inzBDQhssNBBPVXWvTKno/vY02en1mt/eg6LwA4DpGjhtk8lsVyCLg0bK7jRHcYRQRoTzq06WjteWwfw3IT5vuC6HZuAIJNFRk4I2wdFkscEeBsoyMclBAgYnbeWLPpRz0P7WNYdSeu3wiYbZHt8Y5gMbQIlS1MTb8pbC0WS5xY1DLjNmIqi3TCnQggLO/tWK/ZKhHzZ1aDK2qgsCIoSvxb2DoslihxQ2vFXxekppy8v+Ms7ukc4ep2AGAFCPS9vR7r7cGOTPsjUV4QCQTDQjfBVY3/mH1U2FosliiQbK1odkvUe1gSX+7teMNTs2a6peqEKA8HiQA/I7u3db2W6u14r4Z16ymb7hdtVkV5thAIarIyHn4Qtg6LJWxuaK1oUsxV2hMw86zezvFLqF4ibFZAtpwBsvK7p+7ap6QB2I9hAYCBWR/ldYVAUJNFzCde8dTYt4etxWIJi2RLxcOOy9VGS3BPgGclk/ve21r8l6JcFJ7DiP/i/o7t37DIvz3ifgUxgOvykWNK3nZp2FosljC4obX8KTfBZ/mZIHISAdwSHuedM/V9Pc9trFq1eMgF9hNioKFqxcf3d3y/htVYufperaUr6qalfQHD2e8vaLEUKsmWihSzOjlnVjmC/K770X2fQfA90xbVljLEgPHNehwgDDxglkpEniIVzV8uR67yfVFq+s0HO9diKRSSLRWPOQ5X9pZANwaA8NzenidiVkU1CCEmGDHPHOicAxqW72eeMxGvegcAZgJTycVh67BYhoJkqvzvboJP2++KFBEAPOZrS99W0/OQNpmloiNYhUWA0dLV5bX/8UCnHdCwFs9ZdY2I7IiqI+cwRuC4NH1hauplYWuxWAaTZEtFykmo03sOA7sjAiiHDi+hkR/qeWxxzZobBPCidk9TsP/gGzfP3fjTA513kMIFAmBaozrm7Y4YQFHpF8PWYbEMFsmWimeU4krtHTxAIgAOJcp7OyKQtVFbycKKADF/Puh5BzvBh//HiP1uvWK0gJnfcX3T9M+GrcViyTfJloqH3QTP6WvRZ7BbOu+nQYB5KlIrWQgwvuhO3f7kwU49qGE1Vl16a6Q3p+gGAUgod1HYOiyWfJJsqVjavXShTwS7pY9pfPaYqT0Ppf2u5b4XnTwWE8GILP/6nI0/Oei5BzuBUAcD3Rr19UdA8FeFiacuapl5W9haLJZ8kGytaFaKa/plVsjm3YHStJ++tuexUaOH30UkW6IShLADCPxe1w7uc25fTho+Ql0ehwpZAAABipyPhS3DYhkoyVT5o47DVYe69o8VgcndJ481/5hX3hCRNykKNzUBOmO8+sqVtX05vU+Gdd3Ryzb6nnmRI16TBQTJd2Y+YlHLzDvD1mKxHCrJlorH3RJ1Rl8S7PtDtICI3tXrMdEPUgTyWKwIGuaguas95/f1RG3Sf49yD+juiBEouJ9Y8vLRh4WtxWLpL8mWipTj8Lv7OwzsiQjglPC4e3rZ/6Dd63g09BbJBIgWbfz0L/v6lD4bVmP1msuNSHscZgyzdSjD0u36N2FrsVj6Q7K14knlcGW+2pSLEbyQmvmNno9/4+RNfzY63Mk0IsCIvN44Z12fO670T67gEXZi4FgAtBYwqdOub5psa7MssSDZUvGI6/Ip+VxdIgYgcs7q9ZiYjWF2ZGFFEPF/36/n9OfkTn/HfdqL/oJoAIAARKQSapgtc7BEnmRrRbOb4H8b6DCwJ8Fu6Xz4ZU+OPa7nMQP/4bCKG4gA35OtHZt292sNcL8M6+tzN/+vQJbFofIdyJY5MB+VTM3q8xjZYhlqki0VzYq5Kt9mBWQnoRRNHO0MP6PnsYaqVYvC2t8ziK7007f++5bV/Xpefy9kTOb2SFXJHgwREDuXSNt3nLClWCw9yVawH3LpQl8gBhynbJ8ICyCIyOYhz2NR0Baq0+zeJ7d2MPottaF69Q/9jFkRlyhLBGAmrtv+vWVha7FYupNs2bv53mBhNMDg9/d2TCBPDXVRODNBYJbeUrPpiX4/91AuaCTz21jksbIYLVAuz6hNzf5F2FosFiAoXVDOvs33BgURCDA2+UrFxJ6HfD+9MoyNk32d/s6hPO+QDKu+avU8rc22qJT29wWjBUTqgvlLp3whbC2W4ibZUvG443DlUPWaEwEYNMrfmf6vnscMeT8CZPtQBSCsCFrL8sU1aw8pr3zIlmOMuT8uw0IgW5ulqCThDEuGrcVSvNzQWv6om+B3D3VUww6RInd2z8dvrN64XCA7hqrdjNYivu76+aE+/5ANq6F6+WfEN1vjFmWxQxOTLeUHbMNqsQwG2WHgGUMyDOxB0BhA9do2GYI/DcVEGisCyLQtrllTf8ivceiXJxjo++PQxaE7xhcopeYsaplxS9haLMXDDf1ovjcYBGtsaWJvZQwZ6Xx+qJbpaO3/eCDPH1B8tC39xre1L6/HKQEPBMsVGIn/mvfMJLvbjmXQSbZUPOz0o/neYLKodfo+XRF2tO98xhgzqOUNxAStzcrG6lUD2ixmQBK/c8q2fwm8+5QbL8fK5bNKE8NvDatwzlIcJFvKnxmK0oU+QQCJe07Ph//nzB3/MCJbBnOZjpMgaJ0e8KhmwJ5aV7nyi35GtscplwXsaak8/oaWo58PW4ulMAma76k5kTArZJfpkJrQ2x9pgjw2WPcwK0KmyyxvrFkz4JZPeZGojddbB4vIY7TASfDxtalZ/VqAabEcjIE23xsMsnmsadcsnfCBnsfOqFx+5aDM+gfbdxnfdOalP11eDKuheuUXjZhNcSpzyOFnBI5yz7UN/yz5ItlS/thAm+8NFsRAmRpxcs/HzwRBp/W2fI8Kg6af5h+Lq9d+My+vl48XAQAt3nfj0uCvJyICB85nFqamLwhbiyXeBM331GlRGQb2RDQA8AW9HTMirfnc6Z2CNYPptN/+rXy9Zt4Mq7Fq9Y0C83wc2ij3JNgol1yHSmqvWzrh3LD1WOJJvpvvDQYCATONFbl4n8orA2+F5HEIG+w1qJ+5cc6Gn+XtNfP1QgDgof0qCBCF3vb9RQxAjESpM+rn81uPOj5sPZZ4kWwpfzjfzfcGAzEAhI6Y3/T0NT2PMeMOAfLS7y4bXWVAdPHAX+0t8mpYSyo3PKqN/n3ciklziAEU8/CEGfHEtUuPOjNsPZZ4kGypaHYTKhqlC31AucSuM2yf3XTqTlr9TxHZmY+Ag5hgRP+krnL56wN/tbfI+0RmXeWy842W3XErJs1hjIAVjypzRvzy6qcnHB22Hku0SbZUNCs1OM33BgujAQKd0utBkscHGnAwE4wxr9ZXtX1pQC/U22vn+wUBgjb63jjOGOYwRqAUHznCHf03W1hq2R/J1vJBb743GIgIAJre2zGtvZcH9OIEGCPGk67vDeh19sOglIo1VLd9RmvzShwT8DmCHlo0Idly9OarnhxfGbYeS7RIpmY/6brxGQbuRdBuxlnYtO+seLvufGQgy+2UIhgxTy2uXHvTQGX2xqDVp6f93QtFGy+uQ0Mgt1CajxxdOvqP1zwz/vSw9ViiQbKlIqVc55RYmlUWUkRKOe/u+fhtczc/JjDbDqXdTDbRvrsjs/26vIjshUEzrJvmbPitEXN/XLYF2x9GC4h53HBn9O+vbZo1KWw9lnBJtpQPafO9wSIYFappvR/UKT4EZ2BF0OLfdesprw1a+6ZBXQFYV9V2se/J1jjns4BsdweHxwxTzsvzl07+aNh6LOGQbKn4m5tQQ958bzAQI3AUVfSWoxX4/9ffdA4rgu/L8oaqFVfnS2Ov1xnMFwcAX3fUQ0THsTarO0GkhRElzrC7a1tmLAlbj2VoSbZWNDsunxnnYeA+EFDbMmsfg6mvWvtHvx/LdIgArU17h379c/mW2JNBN6zFNetuN6IfjnMCPocYAESuosS1i1pm2bWHRUKypXypYq6K4trAgSAGIKFLej3Wn/1HiWDE/OyWmtf7vQtOfxmSpjCvdbR/XmuzJe5DQyA79geUQ+4XkqnZvwlZjmWQSbaUP+wmVE3cShf6gogA5Bze27DQiF7dl4oeVgRj9PKGqrYvD4LEfa83FBe547SN6z2v45MQieWynZ6IBB+2W+JclGw5+p/y4r7rsizxJ9lS/nScKtj7iwjAhCnzlk7cZycpV3GDmANvZE8EiJZ0XeWyisFTuTdD1nZvyZz1fzVG/yKuy3Z6w88IlKJ33ND1wpbrnpn0sbD1WPJHtvne3EI1KwBBPZZDqkQN38dwFp3Y9rIhHHjFCgHaZG4fyihkSPuE1lW1fVwbs6wQ8lk5jBYoosPK3BE/qk3NaAxbj2XgJFuj13xvsAjysryfGkNZur80TjAUNI/XV6/62uCp6+W6Q3kxAOjo2nmFaNMe54LSnhgjIEKpUiULkqnZS8PWYzl0ki3lj7luNJvvDQZBDzveZyE0AGjtLe8teGImGF9v3vl6x/mDLG/faw/1BW85ZdNfPOPdPFQbNw4VIsGHr1ynJtl69Ovzm6bss8uuJdokWyuao9x8bzAQAAwpvX7ppH0ipbTf/iejZWf3W5UIMCJ+p+780m3nvPrmEEoFEIJhAUBj9aoGY/w/q5hXwfeG8YMhYkINu7U2NfvusPVY+kaypfwpxVxVCEWh/UIActh1VVl1z0O3nLzlIRHZ1T3KIiaI+D+9ec76+4dSZo7Q9rqpq2w7R2uzKu5Ld3ojO0RMuK7zyWSqYuWNqdkzwtZk2T/Z0oWTiyFn1SsCEPOs3o/p53N5LOUStNatdZUrPj+U8roT6uZcu15//YPBdveFZ1oigPYFyuEZGVYra1tn2515IkiytbypkEsX+oLRAsfhE3o75hvvQWaAHYL2ZXld5fJQO5eEaljfeN8br6T99GJjRBdYSmsPRgsEgEPOuTe0HL3h+tTUz4StyRKQbKlIKVbVxWxW3VnUOv0TPR/brXe85GVMu/Fld5e3fX4YuroT+vanS+as+bbA/34hDg33ILlOpjSxhEvvSqZmP3rN0qNmhy2rmEm2zH7QcbkSEkzRF+ofzL4iBoBRn+r5+LdP3v44BK/6JtN405zNvw1B2l6EblgAUF+54nLf008XUn1WbwQ5EnIc1zljhDvyhUXNs38StqZipa6y7cPK08d42rtba/0MgG1OgqAcAnHxGVhQ9a6O6u2Yj13/2Vi96uah1tQbkfpYki3l/1KOOi7uvYb6AlEw46K12WLE+3lD1apBbcthOTCnfw8jTqmccrrLJRcI6HQmHs2KxlHQ8heQPetICxMCSODtyLx+wTdPfv2hsOXsj0gZ1tVPT586IuE+ppSaWiwzNsTIDRnX+ybz9cU1q28PW5MFuPrpcaeVOsPPcrhkFkDvJaIRAEpZEURLQZqXkyB0daXnRSWa6o1IGRYAzHt64gmliVGPE2OEmLDVDB3EBGZA++YVrTu/11CzzhpXhEj+c/YMv0tf7ZA7G6AT3VI6TEyQ+xERFMJ3lRVB+/rJuqrl+7ROjgqRMywAmJea/JESGv6/zCgphC9CfyAmsAK0L8u1Tj/QUL16nw0vLVFAsCg162Zm/gCJehsrmkgcbKEFiWcERgwYkS11Jy0bH7aW/RFJwwKARc0zbmFOXMUEFccPf6CwomySXl7T8H/1mr/j9jvnvN4Wti7Lvlz25NjjRiVGnJZQZcdD6BwCxhBoNDtExsQn+spONHR2ebuuvHHOhh+ELKdXImtYALAoNfMO10l8qVjyWb1BDCiH4HtmsxjTNEzxV647cdnGsHUVAouajnonq+HfAWSUQO57e2VbwyV5uCV+svr0MW2vrZnnqJJyIqpUzJNzx6I+fFQOIeNn7mqoXPnFsLX0RqQNCwAWpWZ9o6TE/arvSVHvaUocrJInBrQnz/s6/URD9Wq7wPoQWNg8vV6pxPvchKrOzUjnJj+0b9aJyHKRTKq+evX8fN0itS0zlhCp0yBqouPQdFA081+sCFrrZ+oql58ctpbeiLxhAcCi5tk/c5T6hABFbVo5WBHECIyRThD+nNEdqUTNuiV18fg4Q2FB05RrHVV2JgFnEFEJMVFvkTtxkEfMGlkGkHUG8qhnOtZ5nvf7W0/Z8q+Barn6mcPfP9wZczoxPghRhwEY77hERmfbFof4Hc+WcXh1VcsS4anYP7H5hidbZv1WOe4FxVCj1VeIsrkuX8QAmwHzQpe/639umrPxforPRzsonPe7kYcdd9To05jK/lMRvwugicohNv0pSSCAKDsJ4gkE2AqY10TM7zv9HU/eMnfrnwauVHB9asr8BJXOgvDJBMwkIkWKKNeyaKghgni686LG6rX3DfnFD0KsvtW1qfJ7S8qcC72uCMXQESEXGRABvi/rxeh1IvqhhupVg7JleFRZmJp5DZM6X4GnqQRNMCa46UUw4MglV+xLnFvcbtZCZL3Rmccb5qxekK/baWHztEWK3ZMBNdVx6Rig2/AxD7/HwQj2GPTur69acd7gXqn/xMqwACDZWv4bpdRFRhd3TutAEAeRQe4vtBCWQXSrp73lzPhVY9WaZWFrzAfScifm68YbXFV2NIPfCeDonGkPRW6o+/sMACLmVTHS5COz1jP6l1+vWd8y8KsIFqZmXMVwPsKkjhRgsuOSkpwRB6fklaAeyzxXV7XsxPy+8sCJnWEBwfCQybmgGMsdDoVcbZfxRYvILoF0gsxjxvjPdXntm9PiP/udU7YNODczmHzhybFTxrolZ7hcdpQi51gCnSagkUw0ihUpYyKQ/8lOjGgtgMFOsLxuRB7x/Y7nd/o7m24/decADUwwb+nEL7jO8NkM9R4imiEiZY7DrpjsEqK8/CIABJkXN7824zcfenNDfl40P8TSsACgNjX77kSJ80nbGqR/EAGgvWYcRQSbBLJNYHbCmCeHlcrP5h2/6oXwVAoWPTf7dNLyQQiqiZy3QTCGiSapBFFwcyLSBZrB+xysXgAB2pPXBLJRxH+ivmrFFfm59QQLm6dcSSg5mdk5Rim8g5iyw8eBGbiTIHR2tl+yuGZdpPbejK1hAUBt06xvOiXuVYW6tmuoIAYIFCSZ+a2bTWcMRGSdAJsAbAOkyxitQWarEWzQ2lvtOrzGFXf7O2ZP2nDe2L9v7+0LdTGAE587etpuf/c0MTSRyTlcgGlMahKDEyAqBXgkAYcDmOWU8B4zyg3rojb931+6579YETJdZivEPK/hrTyrcsq8M+mx7fm4Tm3T9IvBzpeJeDyAWW6C3e6zj329T4I8lv/X+qq29+ZDV76ItWEBwKLmWd9TyvkCEZw4f6GjSi5PE/wQ/CNBOYAWgQZgiCAiwa1A9NbEFmefIwISIiKAIGAQGAJnTw+0PTmgoUkqR4HcJIlogQE6YaRDIEu18Vraze6/fmvu1qcGeo2vNY37YJkaXcHgC4l4BgSjlMvDpPtExAH0GSOr6yqXRaq9d+wNCwAWNs+41VWJy0HFt/YwVKh/XyDZ7w/FTW6YTkxBFKRlq4HZLiL/NJL+6T9faH/sgc++sWug17numYmfTrjDTmFR7yCiE4jgEgd/jXItdLprEmBnh37jM1+v3hqZ8oaCMCwAmN888ZIEj/oRKxpRzEt5LPGne/6LFEGndbshvGS0t1rDv2tJ9bpH8nGdBc3TP8zMX1BwJgL0didBiVwZSHZXaGTS6Zsaqlddn4/r5YOCMSwAuK7pqHeWquEPKEdNsQWmlkKBukdfAZ0i0qzFf9GXzqduqtn0y4Fe4/1/GHF45RFHnE3CnyBSRzPROKeER3pd+vEbKpftZ2fooaegDAsArnpm0qxR7rDfK6WOs5GWpRDZY2AAjJHdItIOmOeM6D9v73rzuXTZzKfvqmz1BnKNa5rGX1ymhtUAzqT6yuUfzYvwPFBwhpUj2VrxpOvwKdq3M4iWwqV7/osZ0BlJazJX15+0/HthaxsMIrEJxWBQd9KyUzNe+hsC+IW476HFAuCt0g8BvIykffjfKFSzAgo4wsqxoHnaFS6VLGKXx9m8lqUQUQ5B+2ZjxnQml1Sv+2HYegaTgjcsIOgIeXjZkfcpReXampalUHirW8fy00/6SMWZVBe2okGnKAwrRzI1+0+snPcB8a6atliIg6Gggf+7+soVF4StZ6go2BxWb9RVtZ3j+5lFxkh7oW/aailcsg0ct/vS+Z/FZFZAkUVYOa5dOuHsMjXqW8rhYw+2RMFiiQqUbShoxPxjR2b7F2+bu6U5bE1DTVEaVo7a1Ky7mZxPBivcrWtZogsrgjFijPF/Ul+14nNh6wmLojYsAJj33MT3lPojf8YOj++5nspiCZtckaj2zTro3R+um7Phn2FrCpOiNywAuOzhiYeNGzP850TqbCJiG21ZokB2b8qMMd5v6qtXfMLervYd2IuFqalXOVQ2Xzk0TtsWzJaQIAoWHvue2ZDGzmtuqhz4WsFCwRpWL9Smyh9SzOcQk7LrES1DCTsE8SWtxf9VfdWKT4etJ2oUVVlDX6mvWv6htG7/mNbmFVaU28LbYhk0KHsnak8/2+FtP9+aVe/YW/Eg1LbO+iGL8xHbZ8syKGT762tf3hCkf1hftXpe2JKijDWsPpCEAC0VDzmu+qAYwBqXZcC8tawGAv2Lusq2j4ctKQ5Yw+oHC5ZOPtdRZY3MfByIyM4mWg6FbKW6NmJa0v6uy26as6k1bE1xwRrWIbAwNf16hxKXE9NEAHZdoqVPBF1DRYyYNi3p7zRWrS3YNjCDhTWsAVCbmvl9Rc4lKsFjtW8XVFt6hxhQLsPrMpsMeT9oqFyZDFtTXLGGlQcWBsZ1gePy4UZb47IEEAczzNqY9Vqnf9BYvaYhbE1xxxpWnvjy30ZWHDFy/H+D+ELl8OFirHEVK9mhH4yYtcaYX9ZXf/x6QuH3qhoKrGHlHUFt8+y7mNW5rPgIwM4qFgu5lkXaN+uF/F/VV668NmRJBYc1rEFkYfO0RQ6XXKRcPr4vu+1a4gdRsHcgBNDa/EOj88eNleu+G7auQsUa1hAwr2nSf5Sosq8yqePYoTJjd/KJPd3W+22DmH9mdPs3b5yz8YGwdRU61rCGkOuXjv9kQo28kFidBcGI7Gr8sGVZ+kq2Kl20iJBs00Y/1OXvuOuWuVufCltasWANKyQWNs34puLE2U4JvR0GMDZJH1mICawA7QlE5ElfMn9eXL26MWxdxYg1rJCRIEn/a2ZV4zg8VQCItkPGUKHskC9Y4weBrBDRj9VXtX3O3jLhYt/9yCCY3zTlKlcNey8Bc4hoNCkia15DRy6BbrRkRGSbQP89o9N/v6lm/ffD1mYJsIYVURY0Tb3ZUSXvIvBpyqFSkdwuv9a98gYBTLQnotK+2S4kT3h+x1+X1LxqZ/oiiDWsGFDbOuN8MnwFsTORQOXsAKIBERt99Qt6a+cZVoCfkQwgKwz0spmjhv/Xp8qf3xC2RMuBsYYVM772zJEfHpYYeSaM+gARvY0Eh6sEBZtq2k009iYInoIlMgwYX9JGZDsg64z49+5Iv5H6zqk7Hg1bpqXvWMOKMcmW8nG+7rzcUaVTCXw8CMcDxEzEoGwEVkwzj92GeCICCLQxkiFCq4F+2dddLyypWf9d+7WPL/aTKzAWtUz9mIg6T5FzJIGmscNTmHP5r+yNjODnuEZjRMh+cym7DVYQRXlp7ZHQMkN6qxi9milzZ13Vq0W32WghYw2rwLn04YmHTRlTWsNC5wB8BhOXATQMIkeoBDtA1ry6mRmQ9bIwDI32/VLmuh6AsqarZZdAtgkkDcgOCP5k2P9Lw0mrnwhBsWUIsYZVhFz55MSKMmXOVFwy3lGJ0SCaAoNjQTQBIGYIA+QI4DITE+9rYNL9ge6ps+4mR3v90+3nbq7U7RxjABjjgcgXQbDRmkiGSNYayMsQ86qPzA7fdLXd/Iev3Et1tgNCsWENy7IPN7XMmLLT7zqZyZ0pzNMIPJzBDgElYC6DyHAiGgbQMDFSxoRSIxgOghDIBZBAELN1CeAxkBFCWgSaibpEZJeQ7AbQATFdEGQMxBjonWLMS+zoFxtPevVv9utp6cn/BxDAK8W2rcdMAAAAAElFTkSuQmCC;" parent="tFHFQbnFNSWmSSy7VT7S-11" vertex="1">
          <mxGeometry x="31.53846153846154" y="31.208791208791208" width="76.92307692307693" height="76.92307692307693" as="geometry" />
        </mxCell>
        <mxCell id="tFHFQbnFNSWmSSy7VT7S-12" value="" style="group" parent="1" vertex="1" connectable="0">
          <mxGeometry x="300" y="40" width="430" height="543" as="geometry" />
        </mxCell>
        <mxCell id="tFHFQbnFNSWmSSy7VT7S-8" value="" style="shape=image;verticalLabelPosition=bottom;labelBackgroundColor=#ffffff;verticalAlign=top;aspect=fixed;imageAspect=0;image=data:image/png,iVBORw0KGgoAAAANSUhEUgAAAgAAAAIACAYAAAD0eNT6AAAABHNCSVQICAgIfAhkiAAAAAlwSFlzAAALEwAACxMBAJqcGAAAIABJREFUeJzs3Xl8XXWZP/DP871ZS8tiaVlty6qgFGmapaXtTVfSJmnZoigq6gDuDLiMjoq1jsvogOJPVAQVhNERg7bNAoUuyS2lzdIgawdQdihSCtW2tFnufZ7fH1AH27RNcr7nnntvPu8/5jWv5ObzPC3CefI93/M9ABERERERERERERERERERERERERERERERERERERERERERERERERERERERERERERERERERERERERERERERERERERERERERERERERERERERERERERERERERERERERERERERERERERERERERERERERERERERERERERERERERERERERERERERERERERERERERERERERERERERERERERERERERERERERERERERERERERERERERERERERERERERERERERERERERERERERERERERERERERERERERERERERERERERERERERERERERERERERERERERERERERERERERERERERERERERERERERERERERERERERERERERERERERERERERERERERERERERERERERERERERERERERERERERERERERERERERERERERERERERERERERERERERERERERERERERERERERERERERERERERERERERERERERERERERERERERERUfpI1A0QUfYqqakZIbvtaOmTowA72gmONMhhEBxqhkMhcqgYRgCWb0CeiOQbNM+ZMxP0mKLXCXpMtFfM9Sis20H+JsCrCmyFs1edYKuYvlqgr7+cSCS6o/4zE+UKDgBEdCAyZeaCcZpyp8PhFAAnQO0EFZzg4CZAcGgaezEALwP6DICnAXkGZk8LYk+7fGxav6phcxp7Icp6HACICMAbv83n75SzDDIZpmdB8C6FvdPBjYy6twFRfVWde1gMD0HwkHP6cGFq50NcNSDqHwcAomFq6sxzT0ppajqg0yCuXFVPc87Fou7LL+tTxf0icp843AfBfe1rGl+OuiuiTMABgGiYKItXHQ/JP8dgc6Ay3TkcF3VPUTC1J+HsXoGsyE/aPevWNW+LuieiKHAAIMpRdXV1sWdf7pkB0Woxq4Jz74q6p0yjqinnXAcMd6XMVmxc27QRb+w1IMp5HACIckg8Hi/qdofNM0udJ4paODc66p6yiZpuceL+CNPb2ysnr8WSJRp1T0Rh4QBAlOXq6upiz7yya45APmiwc7Nm017Gs5cA/AGG29sTTfeBKwOUYzgAEGWp8lm1EzVlH4PZRc65o6LuJ7fp8wa5JSb6yw0tdz4bdTdEPnAAIMoiE+fOPaSor+giGC4XQVnU/Qw7pgpzK+HspuSOYxu6um7si7oloqHiAECUBSritSer2BVickmaD9+h/VDTLQK5GUhe35FY8ULU/RANFgcAogxWHq+uVMhVDlYDcS7qfqg/1mfA7RC7pqOl+cGouyEaKA4ARJlHyitrzleTrzjBpKiboUFQrBbBNW2JxhVRt0J0MBwAiDJEXV1d7Lkt3e8H9N8h7vSo+6FAHoDI4vaWhoaoGyHaHw4ARNGTsnjtRSb6TQd3ctTNkFedYvg6VwQoE3EAIIpQ+czqBTD3bQDviboXCo+p3gfEru5Y29ASdS9Ee3AAIIpAxayaSZbCDyEyI+peKH3UcKc5+dzGlobHo+6FiAMAURqVxhccDYl9x5lekvW7+k0Vghdh8rQKNjvgrzC8DOBlA7bByXZT2W4OOyymuwvhkiaxZGx3b19PYb5L9UpBvtNCzestsKQriDkUqsnhDjgSwGgDjoTJaBEdYybjRXACIEcj6/+7ZX2AXN9t7psPJpb/LepuaPjK8n+RiLJDScnl+bFRL11l0K85uFFR9zMohu0GewQimwT2v2KyybnYn3u2j30u3QfhxOPxotfdYePFUhPE3CkQTDS1iQ7ybjgcks5ePNiqZldPGFt8U319fSrqZmj44QBAFLIpMxdNVdOfA3h31L0clGmvQTYC0mbOuuBSGztX3/VnZP45+FIRrz3JHCbCUGFmZ8OkRBwKo27sYAz6J+fk0rY1TfdH3QsNLxwAiEJyZnzR4QVIfc+JXIaM/XfN+kxlvQhWi9hadBd1tLXdsTvqrnyoqqoq/Ft3/mQFzjZDHKIzHVxx1H31583XEv9Qugu/nit//5T5MvQ/SkTZrWJGTa05/ByQY6LuZV/6vJlrdGYrCqW4JZGo3xl1R+kQj8eLdsnIOEzmO8h8CE6Nuqe9mdqT5vDxztam1VH3QrmPAwCRR9OmVR/Rl+d+BOBDUffyT0w3mbg/iuiy9pbmrqjbyQRTZ557UkqTdSb2XoE7K+p+/onZr2J97sr16xt2RN0K5S4OAESelFZWn+MgN2fKb/2qeFbEficx+W37msaHou4nk5XOnn+qS8beC5H3IVP2ahieMuDijkRjW9StUG7iAEAU0Ol1dQWjXun+TwBXIuJ/pxS6WyB/cMAv2lqb1iLzN+9lnNL4wsmAXgax90f9xIYCSYF9a/yY4m/xSQHyjQMAUQCTZy58h7PU/0S+hGy6yeB+1gP333y23I+Jc+ceUtRXdJGpXeaclEfZi5mth8oHO+5tfDrKPii3cAAgGqKyeO37xXBThM+fmxruEmc/6mhpuieiHoaFyTNqSp3YF8xwgXMuFkkThu0m+HBHa+PySOpTzuEAQDRIJSWX5+eN2vwDQD4TTQfWB8NtKee+zyNl06s8vmiCQa8y0Y85uJERtGAw+257ZcnVWLJEI6hPOYQDANEgVMyqPs7U1QOYkvbihl0Qu9EseW1HYsULaa9P/zBtWvURfTH3rwCuguDQtDdguEfzYh/oXL3s1bTXppzBAYBogCpmVZeZyrK07/I37TWRn5vpdzoTd/41rbXpgCrmzXub9RZ8ASpXpPtWkEKfiTm5gCcI0lBxACAagLJ47ftN8CsHFKWtqKkCcksyH0u6VjU9l7a6NGjTplWN6Y3lfxmGT6fz+GGF7obi4s61zUvTVZNyBwcAooMoq6z5pkCuTmtRxWrk4XN8fj+7lE2vPQHOrhGR89NW1FQN8oWORNMP01aTcgIHAKL9KCm5PD9v5Eu/gODD6aqpwJ9h+FxnorEpXTXJv7IZC2eapK5z4iamr6pdP25M8ZU8L4AGKprHWYgy3NSpC0fZiL8vT9dvcgp0A/Yfo4uSF69dfef/pqMmhefFZx9/5uyy99z099eTf4XZNIik4daRlP1tV/Ks0aeMb3j5qafS+ppmyk5cASDaS/ms2qNM9a60He6juDuVr5/auLr5qbTUo7SaNP28Y/JjyZ8AOC8d9VStvVBt/rp1zdvSUY+yFwcAorcoi1cdL8hfnY43xSmwTUSv7GhpvjXsWhS98pm158Ps+rQ8RaJ40BXmzduwcumW0GtR1uIAQPSmybOrT5QUVju4CWkot1Qt9Sk+1je8nBlfdHgRUtdB5JKwaxnwmHM6p21N84th16LsxAGACG+c6S8pW+0cjguzjkJ3OHNXtCcabwmzDmW2ipm17zXTnwPu8HAr6dOWcrP5DgHqDwcAGvbKZ1SfAieJNCzNbkjF9IO8108AMHn6orc70dvEIR5mHVW8mB+Lxde3LHsyzDqUfVzUDRBFafLs6hPh3JqQL/5mZt8bN6ZoOi/+tMfGe5c/3zFz0iwzfEVVQ3t0zzkc15dKrZ48fdHbw6pB2YkrADRsTZm5YHwyFUs4h/Fh1VDDayLy4Y7WhuawalD2K5tZOwuG3wkwJrQihicQw4z2NY0vh1aDsgpXAGhYmjL3vLFJk1VhXvyh6NJ8O4sXfzqYjpbGNZpyJQA6QysiOFXVVlbMm/e20GpQVuEAQMPO1KkLRyV7k3c5uJNDK2L4rfQWTucZ/jRQG+9d/vwRRX3TDbgprBoOcob1FtxdVlWV/jcYUsbhLQAaVqqqqgq37Y7dCXGzQilgqhD3lfbWxu+Fkk/DQnnlwn+FpX4AcaH8kmawVakdxy7o6rqRJwYOY1wBoOFEXtud/+uwLv4K3W2QC3jxp6DaWxt+ZJALYNgVRr5A5uSN3HxDGNmUPfguABo2yuK13xLBJ8PIVtMtsRjOaW9tXh1GPg0/Lz77xGPHjD91JcwWishI7wVEzjp+/KmpF599Yq33bMoKvAVAw0JpZe0lDrgljGyF/sViOIeP+FEYyuOLJgB6d1jHU6vYxZ0tTb8NI5syGwcAynmlMxfOcJpaCXEFvrPV9CEXc/P4aBWFqXxW7VGqttJBzvAebtoLyOz2RNM679mU0TgAUE6bPH3R211Mu0J6vnpDt7kFDyaW/y2EbKJ/UjFv3tust3AFgFLf2ar6cn5BbNL6VQ2bfWdT5uImQMpZ8Xi8KBZL/TGMi78pErvzu+fy4k/p0nbPPa/FemU2gHt9Zzvnjkol7Y7T6+q8r5JR5uIAQDlrlxz6U0Am+841RSJ1qC14aOXK131nEx3I+vUNO5IjrUqB1hDip4zc0v3DEHIpQ/EWAOWk8nj1ZRB3o/dgs7W7C3p48adIxeN1I7tl10rAVfjONtFLOlqab/WdS5mHAwDlnIoZi85IuWS7gyv2mWuGjmIUzU4k6nf6zCUaijPjiw4vEm0B8B6fuQrdLYIpHS3ND/rMpczDAYBySklNzQi3UzY64DSvwaabNC9/RufqZa96zSUKYNq0qjG9eflrBXin12DTTdJTPLmt7Y7dXnMpo3APAOUUt1Ou933xV8WzEsM8Xvwp06xbt+IV53QOgBe8Bos73Qp7/strJmUcrgBQziivrLkAkDt8ZiqwLc9s6oZE02M+c4l8Kp9VO1FV1zm4UT5zDVLDt1nmLg4AlBPKZ9UeBcUjAI70FmraKyLz2lqbEt4yiUJSWll9DuCaHJDnK1NNt+QVFJyxYeXSLb4yKXPwFgDlBFPcBJ8XfwAi+Bgv/pQtOlub73amn/KZ6cSNTfYmb/aZSZmDLwOirFcer/2ICP7Na6jZd9oTzdd5zSQK2YvP/vn+4ye8YySAqb4yRXDKceNPferFZ594yFcmZQauAFBWK59Ve5QKfuA1VK25vbLkaq+ZRGkybkzRl2G6xmemmP1w2rSqMI7TpghxAKDspvZjBxzhLc/wRLKg+GIsWaLeMonSqL6+PpWfSl0E6PPeQp0b3RvL5ymBOYabAClrlc9cuBBmy70FGnapQ1lnS+Oj3jKJIjJ5Rk2pg9wrDoW+MsUwvy3RuMJXHkWLKwCUlSbOnXsIzH7iN9U+w4s/5YqNa5s6JYYrfGamDDdMnDv3EJ+ZFB0OAJSVivqKvgbgeG+BZr9uTzRxtzPllPaWxhtV8Qdfec5hfHFf4Vd95VG0OABQ1qmI154spp/zFmh4YndBz6e95RFlkFhRz+XweFKgqXyubHrtCb7yKDocACjrmNl1EOflveUKJCWmH+Lb/ShXtd1zz2um8mGYetnYKg6FJuAxwTmAAwBllYp4bRWcVPvKc4Zvt61p7vCVR5SJOtY2tEDctb7ynMMFFZU1cV95FA1vR0ZSdqqqqirctsudqBI7yYmcZGbjIBgl0JFqcoiDjVSTQ+AwAmbmzPXBYZcBO2F4TcReMcNmQF4A8HQK9peuRNPWUJpdvNilEl3fd94eXrGNRdjxLU9hRBltx5iir43asqsa4k73kWcqP8LixZP4yGz24mOAw0jp7HNHx/qSU1VwtgjKADkFwHHw/L8DA14R2CNmuF8EnalUbP3Ge5cHfia5tLL2Egfc4qFFANYnGitpW7v8YT95RJmvdEbNFCe2DuK8rP4acGlHa+MvfWRR+nEAyGHTplUf0RuTGoHFTdzZArwDUf0zNzwHWIs63AOXd/dgX60bj8eLumXkE4B7u5928K2O1kae9kfDTnllzY8B+YyXMMNzO8YWnbKpvr7XSx6lFW8B5Jhp06rG9OXnnwfFBX1iMwWSD0j0k55gHCCXOMMlSPZpeWXtfYD8oS8V+/399y596WA/3i2HfhqAr4v/Y28r6uPSPw1LRVb8792ya5GXYVowbtQruy8F8NPgnVG6RX5doOCqqqoKX+3Ov8jBLlG1Gc657HnJk6mayBoT3DxCd/wxkUh07/2RkpqaEW6HPe3EjfVTUmZ1rG1o8ZFFlI3KKhdWC6zJR5aabh6BnSf19+8uZTYOAFmsLF51vCDvkyZymQBZ/6IONbzmBL+CuZ+0J5Y/s+fr5ZW1nwdwjY8aZvr7jkTz+3xkEWWz8hk1Tb6eqDHDVR2JRr49M8twAMhCpTNqpjiHqxRynsvB2ziqmhLBH2IW+8/eQ/Vxt92ecs4dFTwYr5v0vbMjscLboShE2ap09vxTXSr2CCD5QbNU9eWewt6TeJ5GduE5AFlkcrz63eWV1Y3OyXpA6nLx4g8AzrmYiHuvOrvf7ZSNXi7+AODsu7z4E72hc/VdT5jJj31kOeeOKu4rvtRHFqUPB4AsMGXmgvHl8dpfx4AHAVcTdT/p5IDTfOSo4kXpLvqBjyyiXJHKL/qmAa/4yFKkrqyrq8ue/UcE/sPKYBPnzj1kwrh3fUfV3SYOJRDhLZuhcnJV+7qlnVG3QZRJXnpqU8/x49+xE4LAewEEcvj23clHX3jmCb5RM0twBSBDVcQXzinuK3gYwBd8vs97mHqkY8ZZt0TdBFEmSu485hcKfcZHlio+7yOH0oO/UWaYkjl1h+X17boW4v4l6l5yhaqe37m2eWnUfRBlqvJ4zUch8isfWSoS72xpWOsji8LFFYAMUj6jZr7r27WJF3+vHuhc27ws6iaIMtm4scW3KvBnL2GqXAXIEtwDkAkWL3ZlMmqJiPxcRA6Nup1coqqf2vzsn/836j6IMtmmTZts3IRTXgPk/KBZAjvlmHGn37z5uce3++iNwsMVgIhNm1Z9RFmiq1kgV4O3ZPxSPMjf/okGpi0++X+g+njgIHHOxVIf89AShYwDQIRK4wve05eHLoFURd1LLpIYvgPAou6DKCssWaLm5Ic+osTkY1i8mNeXDMd/QBEpq6xdBJH1gDsh6l4GxLRXgWTUbQyY4Ym2GZPuiLoNomxSbDt+7eVcAMG4itb753loiULEASACpZW1l5jqHxxccdS9KNANaBuA2wz2DTP7sBN3thhO6UvlHWtFfYeNG1OU155oLuxsbcxvj0+KWVHfYU5SE8RpOQQXmNkXDfgFoG0w7Ir6z/QG+08sWaJRd0GUTd54oY/9xEeWwi7zkUPh4T3nNCuvXPivgP0QUf3dq/3dBKtFZL0Z7ts5tuh+n+/yrquriz2z5fUzYohNN8Eshc52cKN85Q+I4bnkzmNO7uq6sS+tdYlyQEm85kgn9lzwX1Csz+XnH79h5dItfjoj3zgApFFZZc0339zsl1ZvLuktF7U/7jiqeLXPC/7BlJRcnh87dPNMmFxohguc4G1h1zTDZzsSjdeHXYcoV5VV1t4ogIff4O3T7a1NPw2eQ2HgAJAm5fGab0PkK2ksaQa720x+MmFs0V319fWpNNbu1+l1dQUjt+xaaILLHdwchPC/P1V9eYTsnMB3kxMNXWl84WQnFvzobLO17YmmuIeWKAQcANKgIl77WRP8v3TUUugOB/cLMfy0LdH4l3TUHIop8Zp3pkQ+J6aXQFyBx+gvt7c2fs9jHtGwVF5Z+ycA7wkUYqqx/Njb169q2OynK/KJBwGFrLyy5n2A3RT2i3wU6Ibh/yEv78KOloZlLzz7xGth1gvqhWef2PriM080HjfhpFsEsUIznCkS7PXGCmzL65WLn3/+8bTd4iDKVcdPODUGSLCXBImIqT334jNPtHtqizziUwAhKq2smQ2zWyEuvL9nU4XpL8X6TulINH6+c/WyV0OrFYKOxIoX2hONn4H0nWyGn5qiZ6hZArt+/fqGHT77IxquknnFv/HxVI8Z3uejH/KPtwBCUjqz9l0w3RDyDvhHALm0vbUhZ6brsnjV8ZC8r4jZvwzq1oDidc2Pjc+2AYgok5VX1t4K4EMBY8ysb1xHYsULPnoif7gCEIJ4vG6kGO4I7eJv2gvD15M7jpmUSxd/4I0VgY7Wpk+lNO9kADfAdEDL+SZ2Ay/+RJ6J/s5HCiQv2K0ECgUHgBB0y64bBXhnGNkK/Fksb3J7ovE/cvk59433Ln++vbXxk8l8OQWGnx9oEDBFT1Lzr01nf0TDQXL7cSvVEHg/kajN99EP+cUBwLPyeO0nAff+kOKXSlHf5La1yx8OKT/jdK1qeq490fiJZL6comY3ArbP0CMON99/79KXouiPKJd1dd3Y52CBX6ilDrNKSi7P99ET+cMBwKPymdUlZvDyMo1/YqoGfKm9tfH8jhUrhuUrNrtWNT3XmWj6uBM9xYCb9gwCCiQthe9H3R9RrjKH24NmOLhRsUP+Os1HP+QPBwBPqqqqCs3cf4tDoc9cU/RA5L0drY28yAHY0HLnsx2tjZfDYqca8AtndmvHvY1PR90XUa4q1h1rAGwNmiOOtwEyDZ8C8KQ8XrsEgq/7zFToTkDO7WxtWu0zl4hoMMoqa24TyAeDZCjs4c7Wpom+eqLguALgQfmMBacB+mWvoaqvwmIzefEnoqg52IrgGXJGSbzmSB/9kB8cAIITuNjPvR5nq3hd8rCgM9Gw0VsmEdEQ9ZncDdPAr9fOc26qj37IDw4AAZXHqy8FMN1fovWp0wva1jR3+MskIhq6rkTTVoML/guJ6tke2iFPOAAEEI/XjTRx3/YYaSr4SGdr890eM4mIAhPgrqAZZsYBIINwAAigG7uvFGCMrzwzfKezpem3vvKIiHwxUw/7kdzkqqoqr09K0dBxABiiM+OLDofY570FKlZ3VE7y+hQBEZEvxbKzc6BHc++POBT+rTt/sq+eKBgOAENUhNQXAXe4jyw13ewK8z6AJUsCb7IhIgpDIpHohriuoDkGK/fRDwXHAWAIpk2rGqNiV3iKs5jIBzasXLrFUx4RUVjuCxpgsDN8NELBcQAYgt68/Csc3EgfWWp2U1trU8JHFhFRmAxYFzjDHA8DyhAcAAappOTyfAEu9ZNmL2l+8b/5ySIiCldBsm994BDB6XV1dTEP7VBAHAAGKTbyr+cCONpHlpld0bWq/u8+soiIwrZu3YpX1HRzkAwHFL2wZfcpvnqioeMAMEgi+kk/SdbSkWi+w08WEVF6iMhDQTPMCW8DZAAOAIMwJV7zTkBm+sgyk6/4yCEiSicxBB4A1OzdPnqhYPKibiCbpCCX+Xl9ojZ1JJrbvEQREaWVPBw4wuRED41QQFwBGAQBLvQQYyb4moccIqL0iwVfAQDshOAZFBQHgAGaMmPhWRCMC5pjsLs7Wpof9NETEVG67Rhd9BgAC5IhAg4AGYADwACp2Lk+ckTcz3zkEBFFYVN9fa8qAj0JAMjR8Xi8yE9HNFQcAAbKsMhDxnPtM85q8tANEVF0HJ4OmCCvu8PGe+mFhowDwACUxxdNgMOZgYPEbuR5/0SU7QT2TOAMS00I3gkFwQFgAExS5/jISaVit/rIISKKWNAVAIjEjvPRCA0dB4ABEMOUoBlquH/jvcuf99EPEVGUxIIPADA70kMrFAAHgAEwkcCvr3TAMh+9EBFFztnLQSPEbLSPVmjoOAAcxJnxRYcL8I6gOWKOAwAR5QQRbPUQwxWAiHEAOIgi01IAwQ4ANDzXtnZ58NOziIgygLP8VwOHcAUgchwADkYs8PK/ARt8tEJElAl6YvmBVwCMKwCR47sA+ifl8ZqzFfgQIBcFDhPr8NEUEVEm6FpV//fyypo+QPKHHOIcVwAixgHgLabOWXhsMqmXCuwjgJzga3lEIO2eooiIMoKqveacHDXUnxfDCJ/90OBxAACkfEbtHDh8si9ptQ6SF/SW/1spkIx1F97vLZCIKCO47kA/Lijw1AgN0bAdAE6vqysYtaX7AzD9AhzeBYSzIcKpPt7WdsfuEKKJiKLj0BvkxxUo9NUKDc2wGwAmzp17SFFv4adsy64rIe5YSLj7IE3waKgFiIgi4ICeQD+vXAGI2rAZAEpqakbEduDT6JMvimCMeFzmPyARDgBElHPU0OsC/GdUHVcAopbzA0BJyeX5sZEvfdx26NUibmy66wu4AkBEucdJwBWAN64/AsD8dESDldPnAJTPrD3fjXrpURH82EVw8QcAZxwAiCj3KJAKmnF6Xd3QHyOkwHJyBWByvPrdztz1MMQjnXBMewuw8y9RtkBEFA47LNATU6a6qb4+0EZCCianBoB4vG7kbuz+hon8q0j0fzYVeTzRmkhG3QcRkW8OckSgAMF2T63QEEV+kfSlrHJhdTe6bxDI8Wna3jcQXP4nopykwCFBVlhV3d+9NUNDkvUDQMW8eW/T3oIfCeyDUfeyN97/J6Jc5RQFQXaROcERZZW1N4mhB4JeA3oA2+1MtimwVQxbHWRrUpIvdSbufBncLOhdVg8A5TNq5luv/EqAo6PuZW8K3SEWuy/qPoiIQuGsINAeAMGhAly6J0Le/L8mb/7/AigMDjGUVtZ2C/AMgKdheBrA/8L0wVTBiIe6VtVzJWGIMmi1fODi8XjRbhn1fYF8Bpn0ZzDsMmiTOHd7kW6/M5FIBDsqk4goM0l5Za1G3QQAqOJZ5/AnM1tvhnWvH1Xcxc2FA5M5F88BmhKveWdS8HsHOSPqXgDAFD3icBdMbt9dsLvxoZUrX4+6JyKiMFVVVRVu687PyF9wFLpb1HWIYDWc3tne0nw/ePugX1k1AJRX1rxPYb9wcCOj7cT61GSlwH6H4uTyjhUruJuViIaNsqqqQ6U7PyuW3lX1ZSfubog1SHfRnXw3y//JigGgpOTy/NiozdcK5LPRdqJtgNymsbzbO1cvezXaXoiIolESrzkyT+SVqPsYLIXudOYaxOx3248qvnu43yrI+AGgdPa5o5FK3eGAymg60L+pya/zgBs2JJoei6YHIqLMUTGr+jhT90LUfQShhtcE+G9zuLGzpXFYPrGV0QNA+YwFpxlcozg5Kd21DXhMTH8S/gTMAAAfZUlEQVSQHCW/6Wpq2pXu+kREmWry7OoTYyn3ZNR9+GJm603kxtFFfb9bsWJFoHccZJOMHQDKZtbOkpT9EU4OS2ddM1svzn2vvaWhEdw4QkS0jynxmneqyP9G3UcI/mrAjwuS+rN165q3Rd1M2DJyACivrHkfzG6FuDS+L1rbTGRxR0vTPemrSUSUfcpmVp8p5h6Iuo/QKF43wS9dTL/ftqb5xajbCUvGDQDllTVXAHId0tWb6SaF+1JnorEpLfWIiLLc5Bk1pTEnHVH3ETYFuh3sBpef/90NK5duibof3zLqdcDl8ZqvAfIjpOHir6ZbDPaJcWNHTOTFn4ho4GKCwqh7SAcHFAFypfYknyqvrPlOWVXVoVH35FPGrACUVdb+hwBfC72QqRrcDT1wX30wsfxvodcjIsoxZTNrZ4lhddR9pJuqvizOfbUjPulmLFmSESchBpERA0BZZe13BfhyGko9oCaXdSYaNqahFhFRTiqfUTMfTu6Muo+oqOH+mOCKttbGrH7fS+S3AMoqa74e/sXf+gy2OLnjmDJe/ImIgjEnadygnXmcYJIB95bGa35eMqcurU+q+RTpAFBeWft5gSwJtYjqoyZW2tHa9M2urhv7Qq1FRDQMuGGyB+AgxIlc7vp2bSqrrF0UdTNDEdkAUFZZ+y8ArgmzhsF+Jr3FpR0tzQ+GWYeIaDgxxbBeAXgrJ+5YAZaVV1b/NttWAyLZA1A+s3qBmlvugLww8hW6w0E+2t7a9Icw8omIhrOKiguLU4W7DktpoRQVpkQ1JZpKiWqhAIAVpqQgpaKaL6YqWqBSoPmimhIzFc1XMc0XaCo/5lCoKSkQuCKJ2REAjoTZGDWMcWYTVHACBCc4uFER/7EPShXPOrEPtiea1kXdy0CkfQAon1ldgpRLwOGQUAqYbkq52PkbWxoeDyWfiIjSrjS+4GhxbiIUEyE4U0zKIDg16r72pqopcfKd8WOKl9TX16ei7udA0joAlMWrjhfJ7wRwdCgFVJcXyYgPJhL1O0PJJyKijDFl7nljkz29ZzvnpsP0HIg7Peqe/sF0TX4qddG6dSsy9q2JaRsA3lgy6lnnBJNCKnFNe3zSl3Lh2UwiIhq8KTMXjE+qmy+CRQaZE9Zt5oHT51MqF2xc29QZbR/9S9sAUFpZ8z8OcpH3YFNVyKc7E003eM8mIqKsVDr73NFOUxfA7CJAKhHRnjdT9IjYJ9sTTTdHUf9A0vIXUl5Z+3mEsOPfFD0SwwfaWxr/6DubiIhyw+TZ1Se6lLvMVD/qnDsqih7M8O2ORGP4p90OQugDwJSZi6YmTRPel2IUrxuktmNtQ4vXXCIiykklJZfnx0a+dCFEvyhwZ6W7vhl+s3Ns0cc21df3prt2f0IdAEpnnzvapVIPADjeZ65CdzqT+dnyqAUREWWW0sqa2YB9ycHNTWddUyTyklK7fn3DjnTW7U+oBwFJKnUzQrj4x+CqePEnIqKh6mxtWt3Z2jzPVGfAbG266opDPFVgq6dNqz4iXTX320tYwaXxmk84kZ/5zFSg25nOb080t/rMJSKi4a18Ru1cdXatg5yRjnpq+lBeQcHcDSuXbklHvf6EsgJQOnv+qQ5yrc9MBZIw1PHiT0REvrWvbVw5YUzxWYB9Gqqvhl3PiZuoPb1rS+MLwjkXZwD8rwAsXuxKW7rWOyflXnMNH21PNN7iNZOIiGgv06ZVH9EXk2sg8rE0lHtEY7HKztXLQh869uZ9ACiL11wlIj/wGmr4ZnuicbHXTCIiogMorayZ7UxuhODEUAspumxE36yOFSu2h1pnL14HgLLptSeIwyMQjPCVaYbfdCQaP+grj4iIaKBKampG5O2UawF8Isw6CqyLdRfOa2u7Y3eYdd7K6x4AcbjB58Ufiq5ibL/UWx4REdEgdDU17WpvbfwkRBYB2BpWHQdM08Lu/8bixaE+nbdXTT/K4tUXQjDPV56abkmZOy+RSHT7yiQiIhqK9paGhr5U3kQFQnsEXUTOL2vt+n5Y+XuL+QgpqakZEet1DRAc5iMPpmoi525c2/iAlzwiIqKAXnrusZ3HjK78bynccbjA80b3N4nI1OPHv2PLi88+sTGM/LfysgIQ24kvQzDORxYAmLjvdLY2rfaVR0RE5ENX1419Ha1NV5joJTAN5UhfNf1x2YyFM8PIfqvAA0DFrOrjDPYFH80Ab2yEGD+m6Bu+8oiIiHzraGm+VUTmKbDNd7ZzLmaS+l1ZvMrrSbr71AkaYCkscXDFPppR6A5J4cP19fUpH3lERERhaWttSuSZTQX0ad/ZTtxYkVj96XV1Bb6z/1EjyA+Xz1hwmho+4qkXxEw+13Fvo/e/SCIiojBsSDQ9FsuLTTPgMf/prmLUlm6/5+q8NT3ID5u4bznnvGwkhOLutkTTL7xkERERpcn6VQ2bY/l5cSge9B4u+HTFjJpa77kIMABUzFh0hoic56ULwy6IC/WQBSIiorBsWLl0S77qTDXc7ztbnfyyfFbtUb5zhzwAmEtdDU8nCRpscXti+TM+soiIiKKwbl3zNoWdA9NNPnMFGGNqt8Dz6b1DGgDKZyw4DWYXeOnAdFMxdlznJYuIiChCXYmmrbH82FxTe9JnrkCqyiprLveZObQVAHFfgDg/pwiauzKRSCS9ZBEREUVs/aqGzXmxvHPg+ehgUXxv6pyFx/rKG/RFfMrc88aaycU+iqtZQ/vaxpU+soiIiDLF+pZlT6raQgX8HWfv5LBU0n7iLW6wP6C9yU+JQ2HgyqYqMffvgXOIiIgyUOfapg0xwSUAzGPsueUza8/3ETSoAeD0uroChX7SR2FAbutY0+B1owQREVEmaWtp/L0B3/MaanpdRcWFgQ/gG9QAcOjW7nOduLFBiwLW55wuDp5DRESU2caPKfqawVb5S3Rv16LuLwZOGcyHLQU/OxANt21oufNZL1lEREQZrL6+PpUyvB/AC74yxeRLQd8VMOABYPLs6hPhMCtIMQBQ1ZRAvhs0h4iIKFt0JZq2wvRDMFUvgYIRkLxA19IBDwCxpLsEHg4hEHF3tCUa/xI0h4iIKJu0J5pbAbnGV55ALp4cr373UH9+wAOACt4/1CJvJSI/9JFDRESUbZI7j/2aQf/kKU4cZMmQf3ggH5o8o6Y05qRjqEX2ULX2zrVNFUFziIiIstWUGQvPSjrrcECehzhzKiUb1jYMeqgY0AqAE7lo8D3tK+bsxz5yiIiIstWGtQ1/cma+XvMrKWdDWgUY0ABgooEPHVBgW6Ht/EPQHCIiomwnPUXf8PW+AAFqSmfWvmuwP3fQAaBsZvWZDm7CkLr6p0L2m0Qi4e9IRCIioizV1nbHbgi+4ClOYPj8YH/o4CsAJucOqZ29iMPNPnKIiIhyQUeiaRkUq31kOdOLS+MLjh7UzxzsA6JSO/SW3qT6eNuapvsD5xAREeWQlOiVqpoKHCSuwMF9djA/csABoHT2uaPhMClYVwDE/S5wBhERUY7ZmGh+xDn3Wx9ZCru0pOTy/IF+/oADQExTs+Hh8B+Lye+DZhAREeWimMSWKJAMmuPEjc0btXnhgD9/oG+qYU7QhhT4M9/6R0RE1L/1LcuedKa/9pFlwKUD/ewBBwADKoM2I4bGoBlERES5LObyv+vjPQFiNm/KzAXjB/LZ/Q4A06ZVjXHAKYGbgXIAICIiOoD1LcueNMiywEHiXMpiFw/ko/sdAHrz8qcGbsSwa8fYEesD5xAREeU8+S8vKYr3DuRz+78FYDYlcBeGezfV1/cGziEiIspxHYnGNkDbAgc5nFk6e/6pB//YfgisNGgP5rAmaAYREdGwYXKjjxiXzHvfQT+z3++Imxi4AeC+oBlERETDRXIUbodhe+AgwUHf4dPvADB1zsJjARwZrLr1Fdr2rmAZREREw0dXU9MuCHwcDPSeSdPPO+ZAH+h3AEj16pnBa8sDfPkPERHRIJn9xkdMvuurOtD3+78F4HBa0MJq9qegGURERMNNe6LpPlW8GDTHYEMYACDBn/8XPBQ0g4iIaBgy56w+cIi4uVi8eL97/fr/hgY/AAhqHACIiIiGQCB3BM1wwBHl997/7gN8f18KnBy0sOXn8/x/IiKiIXj7mKI2QP8WOEht2v6+tc8AUFdXFwP0+ED1gG2dq5e9GiSDiIhouKqvr08BsjJwkMnZ+/vWPgPAi9t6jnLOxYLUc7Ang/w8ERHRsGe4K2iEGgY+APT14digBQE87SGDiIho2DKV1qAZzmH8lLnnje33e3t/IWZ6wIMDBkINm4NmEBERDWcd9zY+raaBr6fJvr4z+vv6PgOAxtyYoMVEhAMAERFRQE4k8JH6Yuj3aP99BgAxPTxoMYj+NXAGERHRMGcm6wNniAxsBQAmhwUt5lKyLWgGERHRsGfyYNAIBxvYAGBA4BUAhQV/dpGIiGiYS4k+HDRDISf19/V9bwFADwlaTPLc34NmEBERDXddiaatgL0UJMMBR5TMqdtndX/fWwDiCoIUAgBJYVfQDCIiIgIMeDRoRiy1a8LeX9v3KQBYftBCBpcMmkFEREQAIM8EjlA5Ye8v7bsCoBJ4AJBYsi9oBhEREQHwcLieg7x936/t/QW3v1cED1xvX4EGzSAiIiIAFnwAMGD03l/b9ykA08C/vRfm9QTeR0BERESAE/NxuN6R++Tu/QUR1xO0iqaEAwAREZEHSbPAb9dVsYOvAMC0N3ChWPAnCYiIiAgQ2NbgGQNYATCRwAOAgxYFzSAiIiJgBF73MADYyL2/1t9RwLsDF9LYEUEziIiICEgkEknAAu3PM6Bw76/1swfAXgtSBABMdJ97DURERDQ0Cgu0P08U+9ya3/cgIEPgzQbWz70GIiIiGhqnCDQAqBvICgBc4AEAHACIiIj8ccH25znbd3N+P3sAEHizASDHBc8gIiIiADBIXqAA0dTeX9r3FoCkXglUBABg+5w5TEREREMjaoEerzfse8bPvkcBF6eeC1IEAKDgAEBEROSJOtnnHv5gSD97CPYZADpWrNiuwLZAhcTejsWLA79TgIiIiCDONNgKgAxgAHjjkwFfPCCuYOraB7kKQEREFNC0adWHQ1ywX6oN+5zx02+gwJ4JVAhAX6pvYtAMIiKi4S4Zc4HP1hGHfc746X8AEHkqeDHhAEBERBSQeni03rDvGT/7uwXwaNBiMHAAICIiCkicjPUQs88j/v2vAMTsoaCVTGxS0AwiIqJhz3RC8Ix9Xync7wBQmNqxSXXfQwMGw8FNmDT9vGOCZBAREZFMCJrgxF7a52v9fTCRSHSLc38OWjDP9Z4dNIOIiGiY8/BUnXtmn6/s76MGeyBoORHhAEBERBSE6alBI1ye7PN4/34HAAfXFrQgIJXBM4iIiIanqqqqQhUXaAAwRc/6VQ0DuwUAAGq4L0jBN51ZGl9wtIccIiKiYefV3e40BwR6EZAIngVge399vwPACPz9ASheD1IUgDi4+QEziIiIhiUvZ+oINvX35f0OAIlEIglnHR4KcwAgIiIaCnXlgTMM/T7af+CzhU3uDVxYMa+qqirQW4yIiIiGI4NO85DxcH9fP+AA4Jy7O2hhODlsW0/BOYFziIiIhpGSOXWHOeDdQXPUxQY/ABx/ZEF70FcDA4CpvTdoBhER0XCS17t7atC3ACp0x8YZZ/V7rs8Bg+vr61NiujJIcQAw0YXxeLwoaA4REdFwYSJVHmLasGSJ9veNg04WAndX0OoOblQ3Djs3aA4REdFwYR420Qtkv4/0H3QAcAV5dwZ9L8AbUpcFzyAiIsp9U2eee5IDTgma48wNfQDYsHLpFidIBG0C4mZWxGtPDpxDRESU41KWXBQ0Q1VThSjc76m+A9tc4NztQRsBIAq71EMOERFRTjOT9wUOcW5DIlG/c7/fHkhGUu2PCiSD9iJml1ZUXFgcNIeIiChXlccXTRBBWdAcB1tx4O8PQFeiaaszrAnaDJwbbUXdHw2cQ0RElLNSF/lIEYcDbuIf8POF6uzXwdsBFHYVFi8O9FwjERFRrlKRjwXOUH25bU3Tnw70mQFfiEcXJv+ghteCNuXgTi5PdJ0XNIeIiCjXlMerK33s/hfnGtHPGwDfasADwIoVK3oAuy1oUwCgwGIA4iOLiIgoVxicl83yovj9wT4zuKV4JzcNuZt/KipnVMysrfORRURElAtK4wuOFmjga6MBr4w7quig+/YGNQB0tjQ+qsC6obf1f1KGb3AvABER0RucuCsgriBojhj+WF9ff9AD/AZ9AXaCHw6tpX0Kn1be2nWJjywiIqJsNnHu3EMU8gkfWerktwP53KAHgPYZk5Yp9C+Db6kfgm/H43UjvWQRERFlqaLewssdcETQHAX+3NnSsHYgnx38EvySJSqQ6wb9c/2SY3ZL91f9ZBEREWWfiXPnHmKwL/vIcsAvB/HZwUuNxM1QfXUoP7sPxVWTZ1ef6CWLiIgoyxT3FX3GiRsbPMn64HDLQD89pAGgq6lpF5x42QsgDoWSwg0+soiIiLJJyZy6w6D6RR9ZqtLQvqbx5YF+fsi78Ius+EcAtg715/+5CTe3tLKWGwKJiGhYifV1fx3OjfaRlRdzPxjM5wMdxlMWr/miiHw/SMYeangtryDvtA0rl27xkUdERJTJSmfPP9WlYo8Aku8hbkN7a+PUwfxAoOfwXU/R9QD+GiTjH1mCt2lfkrcCiIhoWHB9sR94uvgDsGsHXT9Iuba2O3YD9h9BMvZyXkW8xssxiERERJmqLF59IZxU+8hS6F/a4yVLB/tzgU/iGzem+OdQfTRozh5mcl3p7Pmn+sojIiLKJGfGFx0u4n7sK09MvoklS3SwPxd4AKivr0+JxK4MmvMPDoe4vrzfVlVVFXrLJCIiyhCFot8HcLSPLAMeGz+2eEAn/+3Ny1n8bYmGVWrW4CMLAOBQ8lp3/vXe8oiIiDJAaby2RoDLfOWJyZKBnPvfH28v44lBPq9At688AS7lfgAiIsoV5bNqjxLBr3zlKezh9sqzDvra3/3xNgC0JRr/IoDPDYFQk+srZlWX+cwkIiKKgJjaLQKM8Zh51VDu/e/h9XW8xbb9+2r6kK88cShMJdFQHl80wVcmERFRupXHa78mkCpfeWrW0NnatDpIhtcBIJFIJM3kUlUd0v2I/jjnjlLRO8+MLzrcVyYREVG6VMRrqwD9hrdA094Y5PNBY7wOAACwcW1Tp4ivtwW+wQGnFYgu5ZMBRESUTSbPrj4xBfwG4jxeb+W6tkTjX4KmeB8AAOBtxcmvKuxhn5kOqNy2K3Z7PB7P85lLREQUhop5894W68OdTvA2X5mm9qT0FH3DR1YoA8CKFSt6zOwDPp8KAAA4t6hbRt6KxYtD6ZuIiMiH0+vqCrS78I9w7h0+c524T7xxCq+HLB8h/dmYaH7Ewb7kP9m9v7y16yYOAURElJEWL3ajXtl1izjEveaa/bot0bDKV1zMV1B/Xnzmifbjx51aChG/R/uKnHXcs5tPmlp6ZsOmTZvMazYREVEAZXLozwXi9RX3qnjRFfWe+8KTT3r57R8IcQVgj3y1D8HwlO9cgXzw2S27f396XV2B72wiIqKhKIvXXOPzpL83mcTw4bZ77nnNZ2joA8C6dc3bFKkLFOptatlDRM4ftaW7cerUhaN8ZxMREQ1GeWXtD0SCP57Xj2s7WhrX+A5Ny330zsSdDzhzl4cSLpiXyrN7K2ZVHxdKPhER0YFJebz2BgBXhZD9wI4xRV8NIRcSRuj+lFfW/gDh/AVBFS9KTKs7WpofDCOfiIhobyUll+fHRr50swgu9p+uf4tJ/uT1Lcue9J+dphWAPdrjk74AYFkY2c7hODOsK4svrAsjn4iI6K3OjC86PG/U5rvDufjD1NyHwrr4A2leAQCAkpqaEXk7pRVAaYhlrhk3pujLQ31FIhER0YG88Y6aZDPEnR5GvgHf6mhtvDqM7D3S/ix9V1PTLjjUKvSZEMt84blXdq+cNP28Y0KsQUREw1BFfOEcWHJjiBf/xo74pMVhZL9V2lcA9iifUX0KnFsL4OgQy2w14NKO1sblIdYgIqJhoryy9kuq+m3nXCjn6Kjh/p6C7hkPrVz5ehj5bxXZAAAAk+PV7xa4hM9zkvujZjfqKFzV1dS0K8w6RESUm0riNUfGRH4lQG1oRQzP9Wlexf33Ln0ptBpvEekAAACl8YWTHWw1BIeGW0mfhrqPt69tXBluHSIiyiUV8YVzTPRWQMK7raz2d0Fsetva5V5fpHcgkQ8AAFAer5mmYnc6uPAP9DH7tRT2fs73iUpERJRb4vG6kd2y+7uAfBphXi8Vr7uYm7ehZfn60Gr0IyMGAAAor1xYrrC7HHBEGsptVbOrJ4wtvolPChAR0d7KZ9TMh8gNEIwLs44pesxZdWdr0+ow6/QnYwYAACibWX0mzK0UYEw66qnpQ2KxKzvWNrSkox4REWW2kjk14/KSuAaQNJwpY30Qd2F7S0ND+LX2lVEDAABMide8M2myyjmk7WhfNdwZi9nVbWua7k9XTSIiyhwVFRcWW2HPl1T03xxccdj1TNHjYHVta5saw661Pxk3AABAWbzqeJO8Ox3kjDSXXirqFqdzEwYREUXn9Lq6gpGv7L7MzL7ixB2blqKGXQJZ1JZoWJWWevuRkQMAAJRVVR0qu/PrIZiX5tKmhrsc9L/aE82taa5NRERp8MaFv/tDprjaOYxPW2HDdsCq2xNN69JWcz8ydgAAgHg8nrdbDv2ZAJdG04FtFNh1hxel7lixYkVPND0QEZEvJXPqDosluz9upv+att/4/88Lom5BpqwyZ/QAsEdFvPazJnYtIPmRNKD6KpzcZs7d1LGmYVMkPRAR0ZC9sclcPi4mF4d/7ky/HojlSfX6VQ2bI6jdr6wYAACgorL2bIPVh3oQw8B0Arg9lXK/33jv8ucj7oWIiPajJF5zpAMudCIfQ7gvoDsgA+4qtqL3JhL1O6PqoT9ZMwAAwKTp5x0TiyV/74BpUfcCwMxsA4Cl5uSuzpbGR6NuiIhouCuJ1xzpRKoFdpFB5jggL8J2DLD/bI+XfA1LlmiEffQrqwYA4B/7AhaL6VcgLu1vM9wvw3MKWyFwq/LycV8mLfMQEeWqeDye1xMbOclS7hyILoChLBOuDQrdAcUlnWubl0bdy/5k3QCwR9mM6ukGd1tad28OgkKfEcg6mLQ7sYfzkvbQunXN26Lui4gom1XMqj7ODGeaSamoTAdQAYdDou5rL484s7oNiabHom7kQLJ2AADe2M2Zl9z1M8C9P+peBugFKB6Fw9MGPA2Tp10s9WxSsNXlp7Z2rFixPeoGiYiiVFJTM6LgdR3Tl3JjnbgJInaiAScJ7GSoTYRzo6Pu8UAM9uNi2/FviUSiO+peDiarB4A9ymcuXKgp+2k6Tw8MhWkvRF41xS4R6zFBjwA9puD7CogoN8gbABU1V+CgRYArUkOhExwBwYioWxwKA14B5KMdrQ3NUfcyUDkxAABvHhzUnf89AB9HDv25iIgos5nh9lhB3hUbVi7dEnUvg5FzF8ryeM00mFwPhzOj7oWIiHLaC6L2qSjP8w8i8p2SvrUnmta1z5w0CYKPv7EkQ0RE5I+qpgC73or63pWtF38gB1cA3qpkTt1hsb7dVwvssxBXEHU/RESU5RSrU6JXbkw0PxJ1K0Hl9ACwR8mcmnGxpFxtwEciPhSCiIiykEL/IiZf7Eg0LYu6F1+GxQCwx9SZ556U0tTX1fRi51ws6n6IiCjDGZ4zwTeLbfuvE4lEMup2fBpWA8AeFfHak1Xscwb7iIMrjrofIiLKLGq6WeC+u3Ns0Y2b6ut7o+4nDMNyANijJF5zZEzwKTP7tBM3Nup+iIgoco8ocI3uOOa3XV039kXdTJiG9QCwRzweL+qRkReousvEIR51P0RElFam0FVOcF17S/NdACzqhtKBA8BeSmfPP9Wl8i5V00u4KkBElNP+CtjNqZj9YuPq5qeibibdOADsR11dXez5LT0zVey9onp+pp8/TUREA6B4XZ01CuR3xba9Odc29g0GB4ABiMfjeT04dI4B5wKYD8G4qHsiIqKBUehOMbnHObm97xBr6mpq2hV1T5mAA8AQlM1aeLqozYdivjqdyicJiIgyjOrjcO5OMblz+9jCtbm6kz8IDgABlZRcnp9/2Itnmco0M5xtZmc7546Kui8iomHDVCHuIcDWAVgnzta1rWl+Meq2Mh0HgBBMmn7eMXl5fWdAMVFEJgI4Q6EnObhRUfdGRJTNFNjmgMcAPKhmD8Lw4AgpfjiRqN8ZdW/ZhgNAGpXOPnc0knqCACcAOgHAUQIcCcORcDZa4UbD9BBnKFSHQmco4DsMiChXqWrKwXUD2q1w3XC6W8y9JmavmLNXBG6rmb0sgqfF4endqdhTDyaW/y3qvnMFB4DMJ/F4nMcWE1HOGc478ImIiIiIiIiIiIiIiIiIiIiIiIiIiIiIiIiIiIiIiIiIiIiIiIiIiIiIiIiIiIiIiIiIiIiIiP5/e3BAAAAAACDk/+uGBAAAAAAAAAAAAAAAAAAAAAAAAAAAAAAAAAAAAAAAAAAAAAAAAAAAAAAAAAAAAAAAAAAAAAAAAAAAAAAAAAAAAAAAAAAAAAAAAAAAAAAAAAAAAAAAAAAAAAAAAAAAAAAAAAAAAAAAAAAAAAAAAAAAAAAAAAAAAAAAAAAAAAAAAAAAAAAAAAAAAAAAAAAAAAAAAAAAAAAAAAAAAAAAAAAAAAAAAAC4CQRjsFhlWeVfAAAAAElFTkSuQmCC;" parent="tFHFQbnFNSWmSSy7VT7S-12" vertex="1">
          <mxGeometry width="430" height="430" as="geometry" />
        </mxCell>
        <mxCell id="wMPRdb4yhV53JizdUTzg-1" value="" style="shape=image;verticalLabelPosition=bottom;labelBackgroundColor=#ffffff;verticalAlign=top;aspect=fixed;imageAspect=0;image=data:image/svg+xml,PHN2ZyB4bWxuczpkYz0iaHR0cDovL3B1cmwub3JnL2RjL2VsZW1lbnRzLzEuMS8iIHhtbG5zOmNjPSJodHRwOi8vY3JlYXRpdmVjb21tb25zLm9yZy9ucyMiIHhtbG5zOnJkZj0iaHR0cDovL3d3dy53My5vcmcvMTk5OS8wMi8yMi1yZGYtc3ludGF4LW5zIyIgeG1sbnM6c3ZnPSJodHRwOi8vd3d3LnczLm9yZy8yMDAwL3N2ZyIgeG1sbnM9Imh0dHA6Ly93d3cudzMub3JnLzIwMDAvc3ZnIiB4bWxuczpzb2RpcG9kaT0iaHR0cDovL3NvZGlwb2RpLnNvdXJjZWZvcmdlLm5ldC9EVEQvc29kaXBvZGktMC5kdGQiIHhtbG5zOmlua3NjYXBlPSJodHRwOi8vd3d3Lmlua3NjYXBlLm9yZy9uYW1lc3BhY2VzL2lua3NjYXBlIiBpZD0iRWJlbmVfMSIgZGF0YS1uYW1lPSJFYmVuZSAxIiB2aWV3Qm94PSIxNTIuODUwMDA2MTAzNTE1NjIgNTMuMjYzNzgyNTAxMjIwNyAyNjYuNDUzMTI1IDQwMy4yMDYyMzc3OTI5Njg3NSIgdmVyc2lvbj0iMS4xIiBzb2RpcG9kaTpkb2NuYW1lPSJxZmllbGRfY2xvdWRfdjA3X3RyYW5zcGFyZW50LnN2ZyIgaW5rc2NhcGU6dmVyc2lvbj0iMC45Mi41ICgyMDYwZWMxZjlmLCAyMDIwLTA0LTA4KSIgd2lkdGg9IjI2Ni40NTMxMjUiIGhlaWdodD0iNDAzLjIwNjIzNzc5Mjk2ODc1Ij4mI3hhOyAgPG1ldGFkYXRhIGlkPSJtZXRhZGF0YTIzIj4mI3hhOyAgICA8cmRmOnJkZj4mI3hhOyAgICAgIDxjYzp3b3JrIHJkZjphYm91dD0iIj4mI3hhOyAgICAgICAgPGRjOmZvcm1hdD5pbWFnZS9zdmcreG1sPC9kYzpmb3JtYXQ+JiN4YTsgICAgICAgIDxkYzp0eXBlIHJkZjpyZXNvdXJjZT0iaHR0cDovL3B1cmwub3JnL2RjL2RjbWl0eXBlL1N0aWxsSW1hZ2UiLz4mI3hhOyAgICAgICAgPGRjOnRpdGxlLz4mI3hhOyAgICAgIDwvY2M6d29yaz4mI3hhOyAgICA8L3JkZjpyZGY+JiN4YTsgIDwvbWV0YWRhdGE+JiN4YTsgIDxzb2RpcG9kaTpuYW1lZHZpZXcgcGFnZWNvbG9yPSIjZmZmZmZmIiBib3JkZXJjb2xvcj0iIzY2NjY2NiIgYm9yZGVyb3BhY2l0eT0iMSIgb2JqZWN0dG9sZXJhbmNlPSIxMCIgZ3JpZHRvbGVyYW5jZT0iMTAiIGd1aWRldG9sZXJhbmNlPSIxMCIgaW5rc2NhcGU6cGFnZW9wYWNpdHk9IjAiIGlua3NjYXBlOnBhZ2VzaGFkb3c9IjIiIGlua3NjYXBlOndpbmRvdy13aWR0aD0iMTkyMCIgaW5rc2NhcGU6d2luZG93LWhlaWdodD0iMTAyOSIgaWQ9Im5hbWVkdmlldzIxIiBzaG93Z3JpZD0iZmFsc2UiIGlua3NjYXBlOnpvb209IjEuODg2ODMwMiIgaW5rc2NhcGU6Y3g9IjM2OC4xNTc5MSIgaW5rc2NhcGU6Y3k9IjIyOS42NjM3NiIgaW5rc2NhcGU6d2luZG93LXg9IjE5MjAiIGlua3NjYXBlOndpbmRvdy15PSIyNyIgaW5rc2NhcGU6d2luZG93LW1heGltaXplZD0iMCIgaW5rc2NhcGU6Y3VycmVudC1sYXllcj0iRWJlbmVfMSIvPiYjeGE7ICA8ZGVmcyBpZD0iZGVmczQiPiYjeGE7ICAgIDxzdHlsZSBpZD0ic3R5bGUyIj4uY2xzLTF7ZmlsbDojZmZmO30uY2xzLTJ7Zm9udC1zaXplOjQ2LjA2cHg7Zm9udC1mYW1pbHk6TGF0by1Cb2xkLCBMYXRvO2ZvbnQtd2VpZ2h0OjcwMDtsZXR0ZXItc3BhY2luZzowLjAyZW07fS5jbHMtMiwuY2xzLTN7ZmlsbDojNGE2ZmFlO308L3N0eWxlPiYjeGE7ICA8L2RlZnM+JiN4YTsgIDx0ZXh0IGNsYXNzPSJjbHMtMiIgdHJhbnNmb3JtPSJ0cmFuc2xhdGUoMTUyLjg1IDQ0Ny40NykiIGlkPSJ0ZXh0OCI+UUZpZWxkQ2xvdWQ8L3RleHQ+JiN4YTsgIDxwYXRoIGNsYXNzPSJjbHMtMyIgZD0iTTI5MS4zNiwyNDkuNDNhMTEuOTIsMTEuOTIsMCwxLDAtMTEuOTEsMTEuOTFBMTEuOTIsMTEuOTIsMCwwLDAsMjkxLjM2LDI0OS40M1oiIHRyYW5zZm9ybT0idHJhbnNsYXRlKC0xMS42OCAtNTIuNjkpIiBpZD0icGF0aDEwIi8+JiN4YTsgIDxwYXRoIGNsYXNzPSJjbHMtMyIgZD0iTTMxMC42NywyNDkuNDNhMTEuOTIsMTEuOTIsMCwxLDAsMTEuOTItMTEuOTJBMTEuOTIsMTEuOTIsMCwwLDAsMzEwLjY3LDI0OS40M1oiIHRyYW5zZm9ybT0idHJhbnNsYXRlKC0xMS42OCAtNTIuNjkpIiBpZD0icGF0aDEyIi8+JiN4YTsgIDxwYXRoIGNsYXNzPSJjbHMtMyIgZD0iTTIxMy40OSwyOTMuNjZhOTQuNTMsOTQuNTMsMCwwLDAsMTQuNCwyNC41Miw5NS44Miw5NS44MiwwLDAsMCw3Mi42NywzNCw5OC4zNCw5OC4zNCwwLDAsMCw2OC42My0yOC4zOCw5NC40NCw5NC40NCwwLDAsMCwyMS42NS0zNi42MiwzLjIsMy4yLDAsMCwwLTQuNjItMy43NSw1My41Nyw1My41NywwLDEsMS0zNy4zNy05OS4xLDMuMiwzLjIsMCwwLDAsMS01Ljg2LDkzLjUsOTMuNSwwLDAsMC0yOS4yMi0xMS41OGMtMy0xMy4zNy03LjUzLTIxLjIxLTExLjYtMjguMTJhMjcwLjUyLDI3MC41MiwwLDAsMC0xNS40NC0yMi4zLDE5LjM0LDE5LjM0LDAsMCwwLTguNDctOC4yM2MtOC00LjEyLTE3LjEtMi41Mi0yMC4yMywzLjU4cy44NSwxNC4zOSw4Ljg5LDE4LjUyYy40Ny4yNC45NC40NiwxLjQyLjY2aDBhMjAuNDEsMjAuNDEsMCwwLDAsNS41MiwxLjQ4LDM3LjgxLDM3LjgxLDAsMCwxLDEzLDcuNzFDMjk4LDE0NC4xNSwzMDYsMTU3LjksMzA3LDE2NS4wNWMtMi0uMTItNC0uMTktNi0uMTlxLTQuMjMsMC04LjQxLjM4Yy04LTEwLjQ5LTE0Ljg3LTE3Ljc4LTIxLjMxLTIzLjE1LTctNS44MS0xNi40NS0xMi4zMi0xOS45LTE0aDBhMTkuNjgsMTkuNjgsMCwwLDAtMTAuNC0yLjgzYy05LDAtMTYuMzYsNS41Ni0xNi4zNiwxMi40MlMyMzIsMTUwLjExLDI0MSwxNTAuMTFhMjIsMjIsMCwwLDAsMy45NC0uMzdoMGwuMDYsMGExOSwxOSwwLDAsMCwzLjgtMS4xMSwxOC41NiwxOC41NiwwLDAsMSw4LjU2LDBjNS42NCwxLjU1LDIyLjIzLDEzLjcsMjAuOCwxOS4wOGE5My43NSw5My43NSwwLDAsMC0yNiwxMC44MywzLjIsMy4yLDAsMCwwLDEsNS44Niw1My41Niw1My41NiwwLDEsMS0zNy4zNiw5OS4xLDMuMiwzLjIsMCwwLDAtNC43NiwyLjU4UTIxMi4xLDI4OS45MiwyMTMuNDksMjkzLjY2WiIgdHJhbnNmb3JtPSJ0cmFuc2xhdGUoLTExLjY4IC01Mi42OSkiIGlkPSJwYXRoMTQiLz4mI3hhOyAgPHBhdGggY2xhc3M9ImNscy0zIiBkPSJNMzUzLjIxLDQyMi40MWMtLjkyLS4xNS01LjY2LS4yNy01LjY2LS4yNy03LjctLjkzLTEwLTE5LjA4LTEwLjU4LTI1LjYxYTU5LjY0LDU5LjY0LDAsMCwwLDExLjgyLTEyLjI0LDExMy41NiwxMTMuNTYsMCwwLDEtOTUuMDkuNjMsNTkuNTUsNTkuNTUsMCwwLDAsMTEuMzcsMTEuNjFjLS41OCw2LjUzLTIuODksMjQuNjgtMTAuNTksMjUuNjEsMCwwLTQuNzQuMTItNS42NS4yNy00LjU1LDEtNy44Myw0LTcuODMsNy41MywwLDQuMzksNS4xMSw3Ljk1LDExLjQyLDcuOTUsMCwwLDEzLjc3LDEuMTcsMTYuNzYtMS4zNXM0LjU1LTQuNzMsNC0xNS44N1MyODIuNjgsNDA2LjQ5LDI4Myw0MDZjNS42OCwxLjgzLDExLjczLDE1LjYzLDE4LDE1LjYzczEyLjMzLTEzLjgsMTgtMTUuNjNjLjMzLjUsMTAuNDMsMy41NCw5Ljg1LDE0LjY4czEsMTMuMzUsNCwxNS44NywxNi43NywxLjM1LDE2Ljc3LDEuMzVjNi4zLDAsMTEuNDEtMy41NiwxMS40MS03Ljk1QzM2MSw0MjYuNDMsMzU3Ljc1LDQyMy40NSwzNTMuMjEsNDIyLjQxWiIgdHJhbnNmb3JtPSJ0cmFuc2xhdGUoLTExLjY4IC01Mi42OSkiIGlkPSJwYXRoMTYiLz4mI3hhOyAgPHBhdGggY2xhc3M9ImNscy0zIiBkPSJNMzc2LjgsMzYyLjE2aDBsLS4wNSwwYTMuNjUsMy42NSwwLDAsMC0uNTQtLjMyYy04LjE4LTUtMTIuNDMtMTAuMjQtMTQuNjMtMTQuMTVhMTAwLjg5LDEwMC44OSwwLDAsMS0xMjEuNDMuNDdjLTIuMjcsMy44Ni02LjUsOC45LTE0LjM2LDEzLjY4YTUuMDksNS4wOSwwLDAsMC0uNTQuMzJsLS4wNSwwaDBhOC43MSw4LjcxLDAsMSwwLDEzLjA4LDkuNmMuNzYtMi4zMywxLjcxLTUuNTUsMy4wOC04Ljc4bDIuMzMsMS4zNWMxNS45NCwxMCwzOC4xMywxNi43MSw1Ni44NywxNi43MSwxOS45MywwLDQxLjY2LTcsNTguMDktMTguMDhsMS40My0xLjIzYTg4LDg4LDAsMCwxLDMuNjUsMTAsOC43MSw4LjcxLDAsMSwwLDEzLjA3LTkuNloiIHRyYW5zZm9ybT0idHJhbnNsYXRlKC0xMS42OCAtNTIuNjkpIiBpZD0icGF0aDE4Ii8+JiN4YTs8L3N2Zz4=;" vertex="1" parent="tFHFQbnFNSWmSSy7VT7S-12">
          <mxGeometry x="170" y="125" width="118.81" height="180" as="geometry" />
        </mxCell>
        <mxCell id="tFHFQbnFNSWmSSy7VT7S-14" value="" style="endArrow=classic;startArrow=classic;html=1;strokeWidth=4;entryX=0.077;entryY=0.812;entryDx=0;entryDy=0;entryPerimeter=0;" parent="1" target="tFHFQbnFNSWmSSy7VT7S-8" edge="1">
          <mxGeometry width="50" height="50" relative="1" as="geometry">
            <mxPoint x="160" y="520" as="sourcePoint" />
            <mxPoint x="170" y="390" as="targetPoint" />
          </mxGeometry>
        </mxCell>
        <mxCell id="tFHFQbnFNSWmSSy7VT7S-15" value="" style="endArrow=classic;startArrow=classic;html=1;strokeWidth=4;entryX=0.863;entryY=0.833;entryDx=0;entryDy=0;entryPerimeter=0;" parent="1" target="tFHFQbnFNSWmSSy7VT7S-8" edge="1">
          <mxGeometry width="50" height="50" relative="1" as="geometry">
            <mxPoint x="810" y="518.51" as="sourcePoint" />
            <mxPoint x="950" y="414.00295774647884" as="targetPoint" />
          </mxGeometry>
        </mxCell>
      </root>
    </mxGraphModel>
  </diagram>
</mxfile>
